<?xml version="1.0" encoding="UTF-8" standalone="no"?>
<!DOCTYPE svg PUBLIC "-//W3C//DTD SVG 1.1//EN" "http://www.w3.org/Graphics/SVG/1.1/DTD/svg11.dtd">
<svg width="100%" height="100%" viewBox="0 0 168 44" version="1.1" xmlns="http://www.w3.org/2000/svg" xmlns:xlink="http://www.w3.org/1999/xlink" xml:space="preserve" xmlns:serif="http://www.serif.com/" style="fill-rule:evenodd;clip-rule:evenodd;stroke-linejoin:round;stroke-miterlimit:2;">
    <g transform="matrix(1,0,0,1,-4.915551,-244.731628)">
        <path d="M32.309,249.017C33.3,248.199 35.065,248.399 36.335,248.039L36.284,247.836C35.586,247.71 34.688,247.84 33.97,247.859C34.653,247.637 35.343,247.419 36.044,247.261C39.795,246.414 48.006,246.922 52.133,247.016C56.534,247.115 61.019,247.076 65.417,246.877C73.207,246.527 80.812,244.82 88.637,244.732C90.527,244.711 105.12,245.584 105.535,245.844C112.16,246.313 120.058,247.137 126.467,248.922C129.387,249.735 132.139,251.077 134.893,252.321C137.213,253.369 139.647,254.248 141.915,255.398C146.281,257.611 150.855,260.637 154.841,263.497C157.26,265.232 159.488,267.334 161.719,269.307C162.265,269.789 162.918,270.606 163.5,270.988C165.392,271.681 168.195,273.599 169.555,275.112C171.127,276.862 172.234,279.268 172.1,281.655C172.006,283.331 171.289,285.761 169.988,286.871C165.176,290.979 151.318,285.957 146.132,283.776C138.811,280.697 122.768,276.181 114.881,275.504C107.882,274.904 100.17,275.332 93.14,275.563C90.438,275.651 87.781,276.351 85.089,276.405C81.999,276.469 78.825,276.401 75.738,276.247C74.653,276.193 73.542,275.947 72.467,275.937C70.184,275.916 67.862,276.542 65.531,276.535C58.664,276.516 51.658,275.82 44.803,275.391C40.813,275.141 36.855,274.636 32.878,274.27C29.15,273.926 24.866,273.856 21.256,272.807C17.734,271.783 14.287,269.841 10.981,268.286C9.086,267.395 6.354,266.521 4.959,264.938C4.651,263.779 6.079,259.216 6.534,257.825C6.74,257.236 7.049,256.729 7.501,256.294C11.759,252.2 24.512,249.222 30.413,249.235L32.309,249.017Z" style="fill:url(#_Linear1);fill-rule:nonzero;"/>
        <path d="M163.5,270.988C165.392,271.681 168.195,273.599 169.555,275.112C171.127,276.862 172.234,279.268 172.1,281.655C172.006,283.331 171.289,285.761 169.988,286.871C165.176,290.979 151.318,285.957 146.132,283.776C138.811,280.697 122.768,276.181 114.881,275.504C107.882,274.904 100.17,275.332 93.14,275.563C90.438,275.651 87.781,276.351 85.089,276.405C81.999,276.469 78.825,276.401 75.738,276.247C74.653,276.193 73.542,275.947 72.467,275.937C70.184,275.916 67.862,276.542 65.531,276.535C58.664,276.516 51.658,275.82 44.803,275.391C40.813,275.141 36.855,274.636 32.878,274.27C29.15,273.926 24.866,273.856 21.256,272.807C17.734,271.783 14.287,269.841 10.981,268.286C9.086,267.395 6.354,266.521 4.959,264.938C4.651,263.779 6.079,259.216 6.534,257.825C6.607,259.26 6.557,260.144 7.691,261.167C10.235,263.465 14.033,265.666 17.296,266.702C21.535,268.048 26.116,268.339 30.507,268.923C33.57,269.33 36.611,269.893 39.688,270.199C44.681,270.695 49.686,270.842 54.686,271.182C56.905,271.333 59.107,271.7 61.329,271.826C67.941,272.203 75.789,272.162 82.417,271.758C85.232,271.586 88.029,271.184 90.846,271.008C98.301,270.544 109.836,270.399 117.182,271.129C122.19,271.627 127.525,274.032 132.189,274.084C134.207,274.519 136.254,274.923 138.192,275.647C140.22,276.406 142.191,277.467 144.27,278.057C144.375,278.186 144.48,278.306 144.605,278.416C145.083,278.836 145.755,279.058 146.351,279.257C148.578,279.997 150.939,280.34 153.19,281.012C155.506,281.704 157.744,282.713 160.087,283.303C161.126,283.564 162.379,283.874 163.455,283.786C165.805,283.594 167.488,281.703 168.906,280.039C168.029,276.314 165.596,274.033 163.5,270.988Z" style="fill:rgb(229,221,218);fill-rule:nonzero;"/>
        <path d="M85.986,265.776C86.442,265.033 87.503,263.66 88.294,263.309C90.902,262.154 93.903,264.353 96.283,265.22C97.421,265.634 97.746,264.927 98.685,264.492C98.721,264.475 98.758,264.46 98.794,264.443C100.101,263.972 101.801,264.21 103.165,264.271C104.002,264.332 105.034,264.281 105.837,264.474C107.674,264.915 118.177,268.288 119.047,267.613C119.508,267.255 119.528,266.758 120.21,266.745C121.498,266.72 126.525,267.793 127.392,268.688L127.7,269.036C135.072,269.265 138.835,272.053 145.412,274.378C147.2,275.009 149.045,275.327 150.89,275.732C154.212,277.445 158.063,278.393 161.717,279.086C158.331,279.077 155.664,277.801 152.475,276.92C150.242,276.303 147.956,275.856 145.763,275.099C143.716,274.392 135.125,270.052 133.411,270.637L133.446,271.946L143.895,276.354C144.998,276.811 146.087,277.545 147.218,277.887C148.328,278.223 149.683,277.522 150.827,277.703C152.671,277.996 154.924,279.513 156.775,280.178L156.459,280.343C154.597,279.693 152.298,278.571 150.358,278.355C148.338,278.131 146.254,278.598 144.27,278.057C142.191,277.467 140.22,276.406 138.192,275.647C136.254,274.923 134.207,274.519 132.189,274.084C131.153,273.265 124,270.433 122.335,269.848C120.459,268.69 117.692,269.337 115.602,269.14C112.949,268.89 110.481,268.077 107.754,268.067C103.24,268.05 98.03,267.931 93.555,268.341C90.141,268.653 86.743,269.491 83.318,269.657C81.12,269.764 78.916,269.125 76.727,269.122C75.459,269.121 74.218,269.67 72.938,269.719C68.944,269.87 49.808,269.889 47.332,268.551C47.039,267.947 46.991,267.799 47.111,267.138C48.966,266.711 52.208,267.422 54.111,267.852C54.266,267.892 54.422,267.926 54.581,267.949C57.736,268.406 64.337,267.871 67.942,267.841C70.591,267.819 73.364,268.108 75.989,267.866C76.57,267.812 77.007,267.627 77.468,267.274C80.168,266.043 82.258,266.436 85.091,266.277C85.634,266.246 85.625,266.172 85.986,265.776Z" style="fill:rgb(58,32,25);fill-rule:nonzero;"/>
        <path d="M85.986,265.776C86.442,265.033 87.503,263.66 88.294,263.309C90.902,262.154 93.903,264.353 96.283,265.22C97.421,265.634 97.746,264.927 98.685,264.492C98.721,264.475 98.758,264.46 98.794,264.443C100.101,263.972 101.801,264.21 103.165,264.271C101.617,264.779 98.796,266.126 97.225,265.994C96.295,265.916 95.178,264.797 94.311,264.954C93.312,265.134 92.223,265.708 91.228,266.01C87.268,267.212 81.444,268.739 77.468,267.274C80.168,266.043 82.258,266.436 85.091,266.277C85.634,266.246 85.625,266.172 85.986,265.776Z" style="fill:rgb(71,41,29);fill-rule:nonzero;"/>
        <path d="M32.309,249.017C33.3,248.199 35.065,248.399 36.335,248.039L36.284,247.836C35.586,247.71 34.688,247.84 33.97,247.859C34.653,247.637 35.343,247.419 36.044,247.261C39.795,246.414 48.006,246.922 52.133,247.016C56.534,247.115 61.019,247.076 65.417,246.877C73.207,246.527 80.812,244.82 88.637,244.732C90.527,244.711 105.12,245.584 105.535,245.844C98.55,245.978 91.875,245.65 84.938,246.973C79.986,246.939 75.19,247.631 70.271,247.791C63.554,248.009 56.868,247.733 50.149,248.108C44.283,248.435 38.172,249.326 32.309,249.017Z" style="fill:rgb(229,221,218);fill-rule:nonzero;"/>
        <path d="M98.794,264.443L98.195,263.622L98.47,263.46C100.699,264.571 108.34,263.476 111.521,263.894C114.612,264.3 117.293,265.923 120.608,266.25C121.204,265.51 121.921,264.34 122.794,263.945C123.745,264.748 124.774,265.211 125.898,265.719C126.969,266.272 128.034,266.849 129.136,267.338L128.989,266.39C129.778,266.383 135.521,269.313 137.077,269.771C138.944,270.322 141.282,270.085 143.038,270.903C144.337,271.509 145.188,272.959 146.415,273.677C147.811,274.494 149.524,274.788 150.89,275.732C149.045,275.327 147.2,275.009 145.412,274.378C138.835,272.053 135.072,269.265 127.7,269.036L127.392,268.688C126.525,267.793 121.498,266.72 120.21,266.745C119.528,266.758 119.508,267.255 119.047,267.613C118.177,268.288 107.674,264.915 105.837,264.474C105.034,264.281 104.002,264.332 103.165,264.271C101.801,264.21 100.101,263.972 98.794,264.443Z" style="fill:rgb(85,51,37);fill-rule:nonzero;"/>
        <path d="M32.309,249.017C38.172,249.326 44.283,248.435 50.149,248.108C56.868,247.733 63.554,248.009 70.271,247.791C75.19,247.631 79.986,246.939 84.938,246.973C83.145,248.619 68.108,248.868 64.953,249.236C63.027,249.461 61.447,250.353 59.728,250.639C58.816,250.79 57.864,250.568 56.966,250.819C56.433,250.969 55.685,250.938 55.204,250.653C54.536,250.258 54.126,249.808 53.332,249.641C50.34,249.014 42.683,251.413 39.819,250.395C39.344,250.226 38.923,249.708 38.572,249.359C35.895,249.352 33.068,249.524 30.413,249.235L32.309,249.017Z" style="fill:rgb(122,84,60);fill-rule:nonzero;"/>
        <path d="M54.111,267.852C59.09,267.093 64.224,267.553 69.233,267.181C70.641,267.077 72.025,266.302 73.458,266.073C76.7,265.555 82.688,265.496 85.986,265.776C85.625,266.172 85.634,266.246 85.091,266.277C82.258,266.436 80.168,266.043 77.468,267.274C77.007,267.627 76.57,267.812 75.989,267.866C73.364,268.108 70.591,267.819 67.942,267.841C64.337,267.871 57.736,268.406 54.581,267.949C54.422,267.926 54.266,267.892 54.111,267.852Z" style="fill:rgb(85,51,37);fill-rule:nonzero;"/>
        <path d="M122.794,263.945C123.377,263.969 124.518,263.91 124.954,264.304C125.314,264.629 125.65,265.302 125.898,265.719C124.774,265.211 123.745,264.748 122.794,263.945Z" style="fill:rgb(103,66,53);fill-rule:nonzero;"/>
        <path d="M79.076,254.555L79.52,254.271C79.922,254.482 80.253,254.695 80.595,254.994L80.826,254.905C81.571,255.345 82.339,255.742 82.894,256.423C82.684,256.836 82.462,257.234 82.226,257.631C82.543,257.584 82.874,257.528 83.195,257.528C83.806,257.527 84.153,257.553 84.59,257.979L84.481,258.612C83.135,260.269 82.248,258.674 80.768,259.262C80.276,259.458 79.908,260.099 79.343,260.286C77.29,260.966 74.661,261.087 72.503,261.504L72.808,262.098C72.241,262.246 71.683,262.392 71.095,262.42C70.394,262.452 70.025,262.294 69.505,261.801C68.971,261.296 66.008,256.512 65.985,255.985C66.096,255.787 66.147,255.581 66.364,255.496C67.652,254.99 71.725,255.437 72.886,256.184C73.507,256.583 73.63,257.328 74.443,257.68C75.465,257.443 76.983,255.396 77.701,254.573L79.076,254.555Z" style="fill:rgb(127,86,49);fill-rule:nonzero;"/>
        <path d="M77.708,257.714C77.476,257.244 77.507,257.076 77.552,256.57C78.003,256.142 78.331,255.875 78.998,255.887C79.699,255.9 80.024,256.26 80.484,256.719L80.539,257.53C80.179,257.921 80.112,257.99 79.579,258.004C78.971,258.02 78.303,257.837 77.708,257.714Z" style="fill:rgb(145,109,81);fill-rule:nonzero;"/>
        <path d="M79.076,254.555L79.52,254.271C79.922,254.482 80.253,254.695 80.595,254.994C80.681,255.629 80.631,256.096 80.484,256.719C80.024,256.26 79.699,255.9 78.998,255.887C78.331,255.875 78.003,256.142 77.552,256.57C77.507,257.076 77.476,257.244 77.708,257.714C77.407,257.675 77.225,257.481 76.988,257.302L76.933,256.693C77.382,255.854 78.397,255.234 79.076,254.555Z" style="fill:rgb(140,96,61);fill-rule:nonzero;"/>
        <path d="M69.629,255.841C70.026,255.867 70.347,255.936 70.698,256.126C72.023,256.845 73.769,257.657 74.224,259.16C74.042,259.695 74.015,259.744 73.557,260.072C72.936,260.174 72.136,260.355 71.511,260.231C70.92,260.113 70.292,259.884 69.99,259.327C69.712,258.814 69.593,258.223 69.751,257.662C69.93,257.022 69.775,256.474 69.629,255.841Z" style="fill:rgb(145,109,81);fill-rule:nonzero;"/>
        <path d="M28.239,260.483C27.605,260.555 26.907,260.659 26.27,260.569C25.221,260.422 24.032,260.07 23.39,259.176C22.872,258.456 22.512,257.006 22.659,256.126C23.21,256.857 23.136,257.559 23.387,258.378C23.551,258.915 24.055,259.352 24.544,259.595C25.364,260.003 26.205,260.124 27.049,259.82C27.745,260.016 28.345,259.813 29.025,259.639C29.629,259.205 30.118,258.767 30.897,258.82C31.742,259.368 32.35,259.813 33.392,259.709C34.145,259.08 34.466,257.913 35.626,258.033C36.541,258.128 37.318,259.215 37.853,259.905C38.163,260.305 38.407,260.689 38.577,261.169C37.433,260.735 36.105,259.027 35.202,258.137C34.766,258.905 34.26,259.522 34.255,260.418C35.167,260.908 36.509,261.055 37.053,262.036L37.103,262.314C36.082,263.408 30.781,263.413 29.184,263.545C28.537,262.911 27.736,261.944 26.942,261.523C25.773,260.905 24.044,261.745 23.031,260.969C24.405,260.726 27.028,261.283 28.115,260.57C28.157,260.542 28.198,260.512 28.239,260.483Z" style="fill:rgb(93,59,45);fill-rule:nonzero;"/>
        <path d="M28.239,260.483C27.605,260.555 26.907,260.659 26.27,260.569C25.221,260.422 24.032,260.07 23.39,259.176C22.872,258.456 22.512,257.006 22.659,256.126C23.21,256.857 23.136,257.559 23.387,258.378C23.551,258.915 24.055,259.352 24.544,259.595C25.364,260.003 26.205,260.124 27.049,259.82C27.745,260.016 28.345,259.813 29.025,259.639C29.629,259.205 30.118,258.767 30.897,258.82C31.742,259.368 32.35,259.813 33.392,259.709C34.145,259.08 34.466,257.913 35.626,258.033C36.541,258.128 37.318,259.215 37.853,259.905C38.163,260.305 38.407,260.689 38.577,261.169C37.433,260.735 36.105,259.027 35.202,258.137C34.766,258.905 34.26,259.522 34.255,260.418C35.167,260.908 36.509,261.055 37.053,262.036C34.08,260.515 31.447,260.763 28.239,260.483Z" style="fill:rgb(106,68,40);fill-rule:nonzero;"/>
        <path d="M77.701,254.573C76.787,254.471 76.391,254.732 75.671,255.312C75.251,255.651 74.996,255.963 74.4,255.896C73.654,255.812 69.052,254.253 68.676,253.883L68.8,253.498C72.427,253.945 73.063,256.856 76.55,254.124C78.834,252.335 79.663,250.809 82.86,251.185C82.996,251.201 83.132,251.219 83.268,251.239C82.304,251.423 81.379,251.551 80.549,252.113C80.185,252.686 80.061,253.122 80.222,253.806C80.327,254.251 80.526,254.564 80.826,254.905L80.595,254.994C80.253,254.695 79.922,254.482 79.52,254.271L79.076,254.555L77.701,254.573Z" style="fill:rgb(113,76,55);fill-rule:nonzero;"/>
        <path d="M27.049,259.82C26.367,259.47 25.799,259.242 25.484,258.506C25.567,257.895 25.684,257.875 26.143,257.508C26.872,257.335 27.631,257.21 28.31,257.624C28.844,257.951 28.962,258.223 29.186,258.778L29.025,259.639C28.345,259.813 27.745,260.016 27.049,259.82Z" style="fill:rgb(122,84,60);fill-rule:nonzero;"/>
        <path d="M101.473,250.909C101.798,250.978 102.154,251.04 102.461,251.17C103.045,251.417 103.269,251.651 103.51,252.222C103.264,253.03 102.937,253.2 102.31,253.747C101.637,253.516 101.004,253.102 100.684,252.457C100.746,251.627 100.944,251.523 101.473,250.909Z" style="fill:rgb(113,76,55);fill-rule:nonzero;"/>
        <path d="M52.132,251.331C52.15,251.393 52.175,251.454 52.186,251.518C52.287,252.08 52.079,252.501 51.768,252.942C50.862,253.388 50.65,253.368 49.634,253.277C49.439,252.868 49.444,252.766 49.481,252.31C50.158,251.623 51.223,251.525 52.132,251.331Z" style="fill:rgb(122,84,60);fill-rule:nonzero;"/>
    </g>
    <defs>
        <linearGradient id="_Linear1" x1="0" y1="0" x2="1" y2="0" gradientUnits="userSpaceOnUse" gradientTransform="matrix(1.107696,-33.31342,33.31342,1.107696,86.662575,279.09604)"><stop offset="0" style="stop-color:rgb(80,47,27);stop-opacity:1"/><stop offset="1" style="stop-color:rgb(113,68,41);stop-opacity:1"/></linearGradient>
    </defs>
</svg>
