<?xml version="1.0" encoding="UTF-8" standalone="no"?>
<!DOCTYPE svg PUBLIC "-//W3C//DTD SVG 1.1//EN" "http://www.w3.org/Graphics/SVG/1.1/DTD/svg11.dtd">
<svg width="100%" height="100%" viewBox="0 0 134 65" version="1.1" xmlns="http://www.w3.org/2000/svg" xmlns:xlink="http://www.w3.org/1999/xlink" xml:space="preserve" xmlns:serif="http://www.serif.com/" style="fill-rule:evenodd;clip-rule:evenodd;stroke-linejoin:round;stroke-miterlimit:2;">
    <g transform="matrix(1,0,0,1,-18.329192,-450.930982)">
        <path d="M92.15,455.542C93.707,454.763 95.077,453.521 96.618,452.653C103.104,448.999 105.899,452.03 112.135,453.779C118.289,455.848 123.156,454.9 129.32,455.53C132.468,455.852 135.418,456.834 138.41,457.802C138.764,458.547 139.097,459.527 139.746,460.056C141.62,461.283 142.887,462.665 143.36,464.919C144.049,468.198 141.264,472.452 142.739,473.514C143.946,474.383 144.522,474.153 145.077,475.741C146.843,477.129 148.842,478.5 150.168,480.338C151.072,481.005 151.65,481.675 152.299,482.583C152.204,483.842 152.174,485.165 151.932,486.404C151.21,487.302 150.513,488.233 149.664,489.016C147.617,491.8 145.161,494.036 141.643,494.591C140.756,494.731 139.848,494.797 138.953,494.869C138.649,496.023 138.227,497.301 138.115,498.487C137.93,500.456 138.358,502.584 137.775,504.495C136.5,503.924 132.182,505.318 130.683,505.577C125.809,506.421 118.968,506.482 113.721,507.012C112.103,507.176 110.251,507.108 108.726,507.689C106.889,508.388 105.386,510.002 104.441,511.695C97.892,514.807 92.158,516.939 84.835,515.042C81.419,514.191 76.566,513.18 73.069,513.042C67.599,512.825 59.707,514.188 54.651,512.663C53.326,512.264 52.007,511.486 50.774,510.855C50.504,510.519 50.417,510.048 50.166,509.684C49.291,508.413 47.759,506.93 46.372,506.247C45.183,505.165 43.994,504.088 42.873,502.933C41.904,502.423 41.06,501.928 40.223,501.212C39.879,501.269 39.521,501.304 39.172,501.296C37.609,501.26 35.752,500.523 34.214,500.168C30.68,499.351 26.415,499.298 23.681,496.518C23.145,495.225 22.461,494.044 21.754,492.838C21.346,489.581 21.54,485.771 21.794,482.497C20.803,481.062 19.345,480.631 18.902,478.869C18.423,476.966 17.888,474.383 18.922,472.628C19.048,471.844 19.187,471.054 19.83,470.518C21.806,468.873 25.068,468.523 27.442,467.635C28.735,467.151 29.939,466.42 31.145,465.753C33.78,464.296 36.63,462.899 39.096,461.176C41.567,459.451 43.533,457.066 46.372,455.882C47.721,455.32 49.166,455.091 50.615,454.971C55.369,454.575 60.185,455.52 64.935,455.167C68.635,454.891 71.677,452.914 75.538,453.068C78.548,453.188 80.867,454.734 83.744,455.255C86.435,455.741 89.399,455.327 92.15,455.542Z" style="fill:rgb(189,138,44);fill-rule:nonzero;"/>
        <path d="M99.686,497.633C100.175,497.13 100.317,496.863 101.016,496.721L101.239,497.269L100.7,498.432L101.732,499.744C101.773,500.296 101.783,500.859 101.999,501.375C102.836,501.473 104.064,502.272 104.745,502.153C105.524,501.246 106.286,500.364 107.564,500.26C108.472,500.187 110.293,500.796 110.992,501.422C111.131,501.546 111.239,501.695 111.347,501.845C111.584,502.173 111.871,502.476 112.129,502.79C111.505,504.067 110.209,504.249 109.369,505.363C107.184,506.469 103.726,506.303 101.932,508.144C98.475,510.067 97.992,511.989 93.531,512.473C92.817,512.362 88.22,512.563 87.969,512.297C87.5,511.803 87.78,511.617 86.997,511.256L86.764,510.514C85.878,510.92 85.785,510.899 84.826,510.694C85.642,510.338 87.023,509.868 87.578,509.196C87.936,508.765 87.853,508.58 87.798,508.05C85.869,505.6 85.177,507.737 83.231,507.215C82.788,507.096 82.225,506.164 82.025,505.781C80.176,502.245 86.322,501.319 87.143,498.711C87.272,498.301 87.466,497.91 87.635,497.513C88.49,497.315 89.108,498.295 90.128,498.331C90.569,498.347 91.003,498.425 91.44,498.485C91.345,499.423 88.963,500.242 88.559,501.379C88.494,501.564 88.682,501.824 88.764,502C91.219,502.97 95.699,497.353 99.686,497.633Z" style="fill:rgb(173,124,55);fill-rule:nonzero;"/>
        <path d="M99.686,497.633C100.175,497.13 100.317,496.863 101.016,496.721L101.239,497.269L100.7,498.432C100.709,498.568 100.702,498.672 100.644,498.798C100.378,499.374 100.314,499.487 99.712,499.723L99.27,499.404C99.19,498.619 99.357,498.353 99.686,497.633Z" style="fill:rgb(173,124,55);fill-rule:nonzero;"/>
        <path d="M150.168,480.338C151.072,481.005 151.65,481.675 152.299,482.583C152.204,483.842 152.174,485.165 151.932,486.404C151.21,487.302 150.513,488.233 149.664,489.016C147.617,491.8 145.161,494.036 141.643,494.591C140.756,494.731 139.848,494.797 138.953,494.869C138.649,496.023 138.227,497.301 138.115,498.487C137.93,500.456 138.358,502.584 137.775,504.495C136.5,503.924 132.182,505.318 130.683,505.577C125.809,506.421 118.968,506.482 113.721,507.012C112.103,507.176 110.251,507.108 108.726,507.689C106.889,508.388 105.386,510.002 104.441,511.695C97.892,514.807 92.158,516.939 84.835,515.042C89.103,515.004 92.501,515.439 96.566,513.649C98.71,512.705 101.085,510.341 101.932,508.144C103.726,506.303 107.184,506.469 109.369,505.363C110.209,504.249 111.505,504.067 112.129,502.79C113.025,501.773 115.682,501.257 117.046,500.887C118.51,500.394 119.981,500.301 121.459,499.715C122.096,500.54 122.65,501.663 123.7,501.802C124.266,501.562 124.678,501.217 125.274,501.465C125.666,501.629 126.035,502.011 126.354,502.291C127.48,501.612 127.577,501.507 128.888,501.829C129.877,502.072 131.335,502.729 132.301,502.312C132.339,502.296 132.378,502.281 132.416,502.265C132.532,502.215 132.504,502.226 132.627,502.154L133.637,502.369C134.395,502.296 134.926,501.584 135.428,501.064C135.579,500.964 135.675,500.745 135.77,500.59L135.527,500.116L135.163,499.431C135.457,497.932 135.154,496.319 134.94,494.831C135.972,494.119 136.943,493.271 137.922,492.488C141.379,490.463 144.839,488.453 148.204,486.278C148.961,485.832 149.485,485.032 150.024,484.352C150.562,482.989 150.349,481.747 150.168,480.338Z" style="fill:rgb(229,221,218);fill-rule:nonzero;"/>
        <path d="M121.459,499.715C122.096,500.54 122.65,501.663 123.7,501.802C124.266,501.562 124.678,501.217 125.274,501.465C125.666,501.629 126.035,502.011 126.354,502.291C127.48,501.612 127.577,501.507 128.888,501.829C129.877,502.072 131.335,502.729 132.301,502.312C132.339,502.296 132.378,502.281 132.416,502.265C132.532,502.215 132.504,502.226 132.627,502.154L133.637,502.369C134.395,502.296 134.926,501.584 135.428,501.064C135.289,501.862 135.203,502.532 134.514,503.027C133.937,503.442 133.312,503.804 132.702,504.168C129.625,503.894 126.584,503.922 123.504,503.792C121.566,503.711 119.508,503.397 117.577,503.592C114.941,503.859 111.93,504.653 109.369,505.363C110.209,504.249 111.505,504.067 112.129,502.79C113.025,501.773 115.682,501.257 117.046,500.887C118.51,500.394 119.981,500.301 121.459,499.715Z" style="fill:rgb(199,147,56);fill-rule:nonzero;"/>
        <path d="M18.922,472.628C18.997,474.691 18.989,477.829 20.109,479.607C22.535,481.416 22.911,479.818 24.515,483.674C24.281,485.981 22.723,490.848 24.191,492.717L24.73,492.976L25.091,492.742C25.16,491.434 25.077,490.079 25.762,488.922C26.507,488.394 26.839,488.372 27.751,488.531C28.022,488.579 28.292,488.629 28.561,488.682C29.024,489.038 29.48,489.401 29.93,489.772C29.947,489.793 29.964,489.814 29.981,489.836C31.266,491.492 30.064,493.924 31.805,495.15C32.619,495.257 34.155,494.983 34.841,495.25C36.603,495.936 37.989,497.918 40.053,497.83L40.28,497.6C39.86,496.87 39.157,496.034 39.095,495.188C38.524,494.79 37.879,494.853 37.452,494.275L37.708,493.688C38.818,492.968 40.394,492.923 41.693,492.579C43.35,494.068 44.789,495.77 46.371,497.337C47.652,498.606 49.084,499.771 50.308,501.091C50.954,501.788 51.211,502.695 51.854,503.385C50.984,503.279 50.101,503.024 49.245,502.833L49.327,502.319C49.084,503.061 49.104,503.448 48.426,503.867C47.752,503.623 47.256,503.257 46.691,502.824L46.168,503.643L46.258,503.966L46.372,506.247C45.183,505.165 43.994,504.088 42.873,502.933C41.904,502.423 41.06,501.928 40.223,501.212C39.879,501.269 39.521,501.304 39.172,501.296C37.609,501.26 35.752,500.523 34.214,500.168C30.68,499.351 26.415,499.298 23.681,496.518C23.145,495.225 22.461,494.044 21.754,492.838C21.346,489.581 21.54,485.771 21.794,482.497C20.803,481.062 19.345,480.631 18.902,478.869C18.423,476.966 17.888,474.383 18.922,472.628Z" style="fill:rgb(217,174,86);fill-rule:nonzero;"/>
        <path d="M21.754,492.838C22.776,493.047 23.381,493.338 24.184,494.004C24.841,494.396 25.575,494.883 26.309,495.1C27.496,495.452 28.786,495.144 29.994,495.391C32.511,495.906 33.055,497.103 36.047,497.1C39.6,499.358 43.05,500.687 46.168,503.643L46.258,503.966L46.372,506.247C45.183,505.165 43.994,504.088 42.873,502.933C41.904,502.423 41.06,501.928 40.223,501.212C39.879,501.269 39.521,501.304 39.172,501.296C37.609,501.26 35.752,500.523 34.214,500.168C30.68,499.351 26.415,499.298 23.681,496.518C23.145,495.225 22.461,494.044 21.754,492.838Z" style="fill:rgb(229,221,218);fill-rule:nonzero;"/>
        <path d="M23.681,496.518C26.569,496.789 37.178,499.104 39.638,500.289C39.882,500.586 40.112,500.836 40.223,501.212C39.879,501.269 39.521,501.304 39.172,501.296C37.609,501.26 35.752,500.523 34.214,500.168C30.68,499.351 26.415,499.298 23.681,496.518Z" style="fill:rgb(233,229,231);fill-rule:nonzero;"/>
        <path d="M42.873,502.933C43.689,503.468 44.293,503.879 45.298,503.931C45.619,503.948 45.937,503.963 46.258,503.966L46.372,506.247C45.183,505.165 43.994,504.088 42.873,502.933Z" style="fill:rgb(233,229,231);fill-rule:nonzero;"/>
        <path d="M21.794,482.497C22.413,482.754 22.8,482.98 23.076,483.639C24.433,486.866 22.076,490.763 24.184,494.004C23.381,493.338 22.776,493.047 21.754,492.838C21.346,489.581 21.54,485.771 21.794,482.497Z" style="fill:rgb(229,187,92);fill-rule:nonzero;"/>
        <path d="M37.708,493.688L37.885,493.697C39.354,493.763 40.012,493.196 41.316,494.196C42.512,495.107 45.604,496.988 45.815,498.511C45.677,498.823 45.552,499.146 45.377,499.44C45.101,499.483 44.8,499.544 44.52,499.535C44.364,499.53 43.928,499.476 43.818,499.391C43.349,499.029 42.933,497.861 42.609,497.322C42.089,496.456 41.266,495.724 40.543,495.024C40.106,495.181 39.559,495.159 39.095,495.188C38.524,494.79 37.879,494.853 37.452,494.275L37.708,493.688Z" style="fill:rgb(215,170,76);fill-rule:nonzero;"/>
        <path d="M28.561,488.682C29.024,489.038 29.48,489.401 29.93,489.772C29.862,490.775 29.85,491.745 29.386,492.661C27.626,492.474 27.036,491.899 25.832,490.693C25.833,490.536 25.834,490.384 25.849,490.227C25.915,489.532 25.948,489.387 26.499,488.931C27.223,488.932 27.856,488.844 28.561,488.682Z" style="fill:rgb(215,170,76);fill-rule:nonzero;"/>
        <path d="M47.202,501.153L49.327,502.319C49.084,503.061 49.104,503.448 48.426,503.867C47.752,503.623 47.256,503.257 46.691,502.824C46.745,502.241 46.996,501.697 47.202,501.153Z" style="fill:rgb(199,147,56);fill-rule:nonzero;"/>
        <path d="M25.832,490.693C27.036,491.899 27.626,492.474 29.386,492.661C28.22,492.789 26.757,493.333 25.686,493.018C25.393,492.163 25.649,491.557 25.832,490.693Z" style="fill:rgb(229,187,92);fill-rule:nonzero;"/>
        <path d="M49.327,502.319L49.245,502.833C50.101,503.024 50.984,503.279 51.854,503.385C52.684,504.329 53.368,505.312 54.594,505.731C54.64,505.746 54.685,505.763 54.731,505.779C54.812,505.807 54.895,505.831 54.977,505.854C57.156,504.834 57.002,506.98 59.748,505.088C61.434,505.144 63.441,505.145 64.775,506.351L64.813,506.812C64.215,507.23 63.962,507.186 63.247,507.226C62.038,507.655 60.487,508.668 59.893,509.854C59.765,510.111 59.742,510.393 59.748,510.676C59.984,511.087 59.971,511.205 60.441,511.33C60.901,511.453 61.389,511.457 61.862,511.478C63.739,510.857 66.017,510.804 67.984,510.564C75.584,510.776 86.463,514.286 93.531,512.473C97.992,511.989 98.475,510.067 101.932,508.144C101.085,510.341 98.71,512.705 96.566,513.649C92.501,515.439 89.103,515.004 84.835,515.042C81.419,514.191 76.566,513.18 73.069,513.042C67.599,512.825 59.707,514.188 54.651,512.663C53.326,512.264 52.007,511.486 50.774,510.855C50.504,510.519 50.417,510.048 50.166,509.684C49.291,508.413 47.759,506.93 46.372,506.247L46.258,503.966L46.168,503.643L46.691,502.824C47.256,503.257 47.752,503.623 48.426,503.867C49.104,503.448 49.084,503.061 49.327,502.319Z" style="fill:rgb(233,229,231);fill-rule:nonzero;"/>
        <path d="M59.748,505.088C61.434,505.144 63.441,505.145 64.775,506.351L64.813,506.812C64.215,507.23 63.962,507.186 63.247,507.226C62.038,507.655 60.487,508.668 59.893,509.854C59.765,510.111 59.742,510.393 59.748,510.676C59.984,511.087 59.971,511.205 60.441,511.33C60.901,511.453 61.389,511.457 61.862,511.478C61.73,511.595 61.593,511.639 61.423,511.687C59.597,512.2 56.648,511.4 55.055,510.47C54.86,510.145 54.543,509.914 54.305,509.621C53.728,508.908 53.892,508.565 53.995,507.686C54.445,507.321 54.843,506.989 55.186,506.516L54.977,505.854C57.156,504.834 57.002,506.98 59.748,505.088Z" style="fill:rgb(199,147,56);fill-rule:nonzero;"/>
        <path d="M49.327,502.319L49.245,502.833C50.101,503.024 50.984,503.279 51.854,503.385C52.684,504.329 53.368,505.312 54.594,505.731C54.64,505.746 54.685,505.763 54.731,505.779C54.812,505.807 54.895,505.831 54.977,505.854L55.186,506.516C54.843,506.989 54.445,507.321 53.995,507.686C53.892,508.565 53.728,508.908 54.305,509.621C54.543,509.914 54.86,510.145 55.055,510.47C51.703,509.279 48.658,506.507 46.258,503.966L46.168,503.643L46.691,502.824C47.256,503.257 47.752,503.623 48.426,503.867C49.104,503.448 49.084,503.061 49.327,502.319Z" style="fill:rgb(215,170,76);fill-rule:nonzero;"/>
        <path d="M49.245,502.833C50.101,503.024 50.984,503.279 51.854,503.385C52.684,504.329 53.368,505.312 54.594,505.731C54.64,505.746 54.685,505.763 54.731,505.779C54.812,505.807 54.895,505.831 54.977,505.854L55.186,506.516C54.843,506.989 54.445,507.321 53.995,507.686C52.801,507.161 51.53,506.379 50.573,505.492C49.584,504.577 49.299,504.184 49.245,502.833Z" style="fill:rgb(229,187,92);fill-rule:nonzero;"/>
        <path d="M143.243,482.411C143.87,481.539 145.05,479.806 146.161,479.606C146.927,479.468 147.328,479.941 147.906,480.362C148.687,480.989 149.861,481.679 149.965,482.747C150.017,483.274 150.01,483.822 150.024,484.352C149.485,485.032 148.961,485.832 148.204,486.278C144.839,488.453 141.379,490.463 137.922,492.488C136.943,493.271 135.972,494.119 134.94,494.831C135.154,496.319 135.457,497.932 135.163,499.431C134.156,498.613 133.449,496.529 132.668,495.38L133.265,495.309L133.382,494.869C132.96,494.033 131.584,493.313 130.82,492.772C130.569,492.226 130.482,491.69 130.385,491.103L129.996,491.168C129.408,492.086 129.387,493.631 129.245,494.716C127.934,491.816 131.358,489.67 130.444,486.974C129.491,486.611 128.761,487.418 127.861,487.668C127.249,487.837 127.068,487.782 126.512,487.487C126.274,486.83 126.156,486.583 126.453,485.908C126.67,485.414 127.126,484.324 127.661,484.187C129.507,483.713 132.141,484.589 134.082,484.597C136.323,484.606 141.101,483.207 143.243,482.411Z" style="fill:rgb(173,124,55);fill-rule:nonzero;"/>
        <path d="M143.337,485.237C143.709,485.442 144.087,485.636 144.448,485.858C145.512,486.514 146.998,486.324 148.204,486.278C144.839,488.453 141.379,490.463 137.922,492.488C136.999,492.423 136.359,492.358 135.54,492.867C134.673,493.405 133.471,493.748 132.46,493.498C131.972,493.378 131.523,493.118 131.27,492.663C130.13,490.61 131.862,490.75 132.201,489.386L131.586,488.591L131.934,488.083C133.706,487.077 135.867,487.617 137.81,487.582C139.913,487.544 141.757,486.944 143.234,485.352C143.269,485.314 143.303,485.275 143.337,485.237Z" style="fill:rgb(157,108,56);fill-rule:nonzero;"/>
        <path d="M143.337,485.237C143.149,484.782 143.145,484.607 143.232,484.123C143.496,482.636 144.213,481.617 145.453,480.773C146.313,480.188 146.9,480.177 147.906,480.362C148.687,480.989 149.861,481.679 149.965,482.747C150.017,483.274 150.01,483.822 150.024,484.352C149.485,485.032 148.961,485.832 148.204,486.278C146.998,486.324 145.512,486.514 144.448,485.858C144.087,485.636 143.709,485.442 143.337,485.237Z" style="fill:rgb(149,101,59);fill-rule:nonzero;"/>
        <path d="M130.361,484.974C130.586,484.675 131.008,484.61 131.313,484.827C131.618,485.044 131.695,485.464 131.487,485.775C131.347,485.984 131.104,486.1 130.854,486.078C130.604,486.057 130.385,485.901 130.282,485.672C130.18,485.442 130.21,485.175 130.361,484.974Z" style="fill:rgb(189,138,44);fill-rule:nonzero;"/>
        <path d="M63.247,507.226C65.121,508.144 66.823,506.082 69.895,507.034L70.145,507.042L70.328,507.097C71.184,507.352 72.023,507.244 72.783,507.737C72.994,508.177 73.276,508.853 73.129,509.349L73.077,510.338C71.956,510.301 68.767,509.914 67.984,510.564C66.017,510.804 63.739,510.857 61.862,511.478C61.389,511.457 60.901,511.453 60.441,511.33C59.971,511.205 59.984,511.087 59.748,510.676C59.742,510.393 59.765,510.111 59.893,509.854C60.487,508.668 62.038,507.655 63.247,507.226Z" style="fill:rgb(173,124,55);fill-rule:nonzero;"/>
        <path d="M69.895,507.034L70.145,507.042L70.328,507.097C71.184,507.352 72.023,507.244 72.783,507.737C72.994,508.177 73.276,508.853 73.129,509.349C72.43,509.244 71.7,509.225 70.994,509.15C69.888,509.033 68.264,508.849 67.521,507.928L67.606,507.537C68.386,507.022 68.983,507.09 69.895,507.034Z" style="fill:rgb(169,119,61);fill-rule:nonzero;"/>
        <path d="M139.746,460.056C141.62,461.283 142.887,462.665 143.36,464.919C144.049,468.198 141.264,472.452 142.739,473.514C143.946,474.383 144.522,474.153 145.077,475.741C144.715,475.594 144.362,475.426 144.02,475.237C134.018,469.681 142.053,467.015 140.911,463.358C140.896,463.311 140.88,463.265 140.865,463.219C140.536,462.156 140.12,461.104 139.746,460.056Z" style="fill:rgb(229,221,218);fill-rule:nonzero;"/>
        <path d="M112.135,453.779C118.289,455.848 123.156,454.9 129.32,455.53C132.468,455.852 135.418,456.834 138.41,457.802C138.764,458.547 139.097,459.527 139.746,460.056C140.12,461.104 140.536,462.156 140.865,463.219C139.439,461.731 138.727,459.5 137.093,458.295L136.987,458.218C136.023,457.508 134.878,458.351 133.828,458.118C132.939,457.921 132.383,457.026 131.39,456.959C130.03,456.867 128.775,457.31 127.376,457.07C125.318,456.717 123.342,455.716 121.27,455.48C118.868,455.206 116.42,455.653 114.005,455.29C112.933,455.129 112.727,454.586 112.135,453.779Z" style="fill:rgb(217,174,86);fill-rule:nonzero;"/>
        <path d="M132.627,502.154C132.168,501.693 131.621,502.086 130.974,501.768C130.551,500.85 131.907,498.069 131.925,496.837C131.926,496.763 131.924,496.689 131.93,496.615C131.982,495.922 132.186,495.81 132.668,495.38C133.449,496.529 134.156,498.613 135.163,499.431L135.527,500.116L135.77,500.59C135.675,500.745 135.579,500.964 135.428,501.064C134.926,501.584 134.395,502.296 133.637,502.369L132.627,502.154Z" style="fill:rgb(169,119,61);fill-rule:nonzero;"/>
        <path d="M70.145,507.042C71.686,506.902 74.431,506.082 75.662,507.218C76.031,507.559 76.141,507.953 76.133,508.439C76.127,508.79 75.865,509.376 75.609,509.616C75,510.187 73.883,510.259 73.077,510.338L73.129,509.349C73.276,508.853 72.994,508.177 72.783,507.737C72.023,507.244 71.184,507.352 70.328,507.097L70.145,507.042Z" style="fill:rgb(173,124,55);fill-rule:nonzero;"/>
        <path d="M101.732,499.744C102.515,498.879 103.296,497.794 104.415,497.375L104.739,497.468C104.688,498.763 103.292,500.304 102.361,501.126C102.242,501.231 102.135,501.296 101.999,501.375C101.783,500.859 101.773,500.296 101.732,499.744Z" style="fill:rgb(199,147,56);fill-rule:nonzero;"/>
        <path d="M48.583,481.894C49.28,482.298 49.624,482.642 50.031,483.34C50.391,483.955 49.549,485.169 49.371,485.851C49.827,488.155 52.424,490.9 54.106,492.437C53.401,493.191 52.858,493.895 51.853,494.181C51.045,493.998 50.58,493.231 50.093,492.612C49.886,491.908 48.963,490.777 48.995,490.133C49.032,489.42 49.712,488.881 49.453,488.088C48.515,487.707 47.97,489.016 46.812,488.941C45.3,487.589 46.748,486.276 46.263,484.611C46.016,483.765 45.144,483.403 45,482.525L45.359,482.042C46.371,481.755 46.545,482.392 47.494,482.518C47.935,482.576 48.249,482.164 48.583,481.894Z" style="fill:rgb(173,124,55);fill-rule:nonzero;"/>
        <path d="M59.918,471.745C60.246,471.798 60.624,471.847 60.93,471.978C61.512,472.227 61.689,472.535 61.887,473.105C61.797,473.444 61.682,473.779 61.459,474.055C60.434,475.323 59.172,476.002 57.577,476.151C56.361,477.205 55.132,479.485 53.836,480.186C53.407,480.419 53.001,480.696 52.588,480.955C52.387,480.934 52.314,480.915 52.141,480.806C51.291,480.268 50.751,479.413 50.526,478.447C50.802,476.005 54.95,474.565 56.977,474.045C57.378,473.943 58.348,473.886 58.663,473.702C58.904,473.561 59.677,472.082 59.918,471.745Z" style="fill:rgb(173,124,55);fill-rule:nonzero;"/>
        <path d="M102.445,477.004C102.206,476.774 101.97,476.542 101.735,476.308C100.583,475.153 100.597,474.914 100.572,473.286C100.502,468.846 98.299,470.991 96.949,469.654C96.825,468.923 96.846,468.402 97.009,467.678C97.201,467.475 97.425,467.165 97.679,467.06C98.67,466.651 99.601,466.804 100.561,467.211C101.076,467.933 100.402,467.889 100.398,468.673C101.488,469.192 102.542,468.934 103.63,469.324C104.039,470.053 103.882,470.403 103.787,471.219L103.88,471.565C103.443,471.961 103.004,472.311 102.517,472.646C102.434,472.755 102.346,472.866 102.287,472.992C102.05,473.505 102.088,473.617 102.28,474.12C102.906,474.605 104.045,474.374 104.8,474.329L104.966,474.558C104.163,475.438 103.369,476.251 102.445,477.004Z" style="fill:rgb(215,170,76);fill-rule:nonzero;"/>
        <path d="M102.517,472.646L101.951,471.905C101.871,471.544 101.769,471.163 101.859,470.796C101.982,470.299 102.069,470.239 102.506,469.982C103.282,470.189 103.354,470.564 103.787,471.219L103.88,471.565C103.443,471.961 103.004,472.311 102.517,472.646Z" style="fill:rgb(217,174,86);fill-rule:nonzero;"/>
        <path d="M114.086,472.298C114.163,472.313 114.287,472.333 114.367,472.357C115.658,472.744 119.158,474.367 119.757,475.514C119.18,476.229 116.998,476.891 116.092,477.289C115.974,477.809 115.885,478.194 115.535,478.618C115.238,478.55 114.744,478.306 114.479,478.3C113.901,478.289 113.851,478.836 113.134,478.56L113.556,473.184C113.569,473.018 113.981,472.473 114.086,472.298Z" style="fill:rgb(199,147,56);fill-rule:nonzero;"/>
        <path d="M103.321,479.108C103.315,478.41 103.331,478.247 103.738,477.681C104.342,477.6 104.645,477.681 105.132,478.073C105.645,478.487 105.917,479.013 106.024,479.651L105.803,480.271C104.95,480.62 104.239,480.616 103.593,481.345C103.591,481.408 103.594,481.472 103.588,481.535C103.55,481.941 103.135,482.39 102.835,482.64C102.234,483.139 100.963,482.992 100.231,482.919C99.536,482.85 98.526,482.72 98.069,482.157C98.915,481.06 101.018,480.559 102.266,480.078C102.941,479.817 103.023,479.791 103.321,479.108Z" style="fill:rgb(215,170,76);fill-rule:nonzero;"/>
        <path d="M103.321,479.108C103.315,478.41 103.331,478.247 103.738,477.681C104.342,477.6 104.645,477.681 105.132,478.073C105.645,478.487 105.917,479.013 106.024,479.651L105.803,480.271C104.95,480.62 104.239,480.616 103.593,481.345C103.294,481.19 103.153,480.94 102.97,480.67C103.17,480.264 103.399,479.917 103.663,479.551L103.321,479.108Z" style="fill:rgb(217,174,86);fill-rule:nonzero;"/>
        <path d="M58.631,492.995C59.093,493.033 59.4,493.19 59.773,493.455C60.712,494.121 61.324,494.779 61.492,495.97C61.678,497.291 61.342,498.023 60.558,499.049L59.657,499.271C59.495,499.205 59.33,499.126 59.195,499.012C58.096,498.083 57.369,496.226 57.342,494.811C57.327,494.043 58.128,493.495 58.631,492.995Z" style="fill:rgb(199,147,56);fill-rule:nonzero;"/>
        <path d="M77.558,493.574C78.336,493.611 78.943,493.692 79.665,493.993C79.802,494.154 80.086,494.396 80.106,494.604C80.239,495.966 77.617,498.263 76.738,499.323L76.577,499.404C75.797,498.793 74.772,497.615 74.604,496.655C74.89,495.75 76.828,494.377 77.558,493.574Z" style="fill:rgb(173,124,55);fill-rule:nonzero;"/>
        <path d="M32.625,479.444C34.079,479.894 35.415,480.644 36.913,480.969C37.77,481.155 38.766,480.869 39.53,481.319L39.529,481.716C39.088,481.99 38.794,482.21 38.491,482.648L38.922,483.935C36.888,484.62 36.166,482.698 34.378,482.157C33.633,481.931 32.953,482.586 32.309,482.942L31.988,482.52C31.883,481.447 32.297,480.448 32.625,479.444Z" style="fill:rgb(173,124,55);fill-rule:nonzero;"/>
        <path d="M117.706,464.889C118.648,465.337 120.084,465.745 120.588,466.627C120.313,467.598 118.669,468.718 117.89,469.39C117.329,469.803 116.326,470.15 115.63,470.058C115.524,469.951 115.374,469.852 115.336,469.703C115.027,468.5 117.055,465.984 117.706,464.889Z" style="fill:rgb(199,147,56);fill-rule:nonzero;"/>
        <path d="M115.808,498.78C116.646,497.339 119.074,496.374 120.665,495.9C120.783,495.864 120.883,495.879 121.003,495.891C121.9,496.793 122.191,497.817 122.431,499.039C122.401,499.059 122.373,499.081 122.341,499.097C120.912,499.824 120.866,498.549 119.945,498.261C118.993,497.963 118.188,499.349 115.808,498.78Z" style="fill:rgb(173,124,55);fill-rule:nonzero;"/>
        <path d="M124.695,470.759C124.727,470.773 124.76,470.786 124.791,470.801C126.611,471.696 127.066,473.641 127.674,475.419L127.428,475.77C126.946,475.511 126.466,475.249 125.987,474.983C125.211,474.545 124.305,473.968 124.078,473.041C123.861,472.156 124.238,471.488 124.695,470.759Z" style="fill:rgb(199,147,56);fill-rule:nonzero;"/>
        <path d="M54.761,497.063C55.662,497.141 57.975,498.871 58.878,499.385C59.778,499.896 59.898,500.129 60.166,501.094L59.975,501.119C58.654,501.285 57.575,500.989 56.521,500.139C55.506,499.32 54.884,498.368 54.761,497.063Z" style="fill:rgb(173,124,55);fill-rule:nonzero;"/>
        <path d="M54.503,482.17C54.933,482.364 55.226,482.64 55.57,482.953C55.727,484.117 54.885,486.049 54.588,487.242L53.249,486.167C53.048,485.724 52.838,485.264 52.868,484.766C52.934,483.675 53.727,482.845 54.503,482.17Z" style="fill:rgb(173,124,55);fill-rule:nonzero;"/>
        <path d="M107.403,465.55C107.868,465.569 108.393,465.57 108.849,465.671C109.532,465.823 109.751,466.147 110.086,466.704C110.173,467.623 109.814,468.356 109.47,469.183C108.844,469.25 108.707,469.279 108.134,468.959C107.467,467.99 107.503,466.688 107.403,465.55Z" style="fill:rgb(173,124,55);fill-rule:nonzero;"/>
        <path d="M116.368,493.148C116.925,493.076 117.635,492.936 118.189,493.044C118.825,493.167 119.039,493.35 119.393,493.87C119.216,494.473 118.93,494.698 118.456,495.077C117.392,495.106 116.074,495.299 115.209,494.636C115.43,493.871 115.786,493.675 116.368,493.148Z" style="fill:rgb(173,124,55);fill-rule:nonzero;"/>
        <path d="M110.327,496.912C111.147,497.009 112.131,497.088 112.887,497.439C113.463,497.707 113.638,497.954 113.862,498.531L113.541,499.055C112.297,499.061 110.908,499.257 109.914,498.427C109.828,497.693 109.984,497.547 110.327,496.912Z" style="fill:rgb(173,124,55);fill-rule:nonzero;"/>
        <path d="M124.503,465.279L124.795,465.325L125.091,465.807C125.136,466.527 125.098,466.891 124.699,467.499C124.054,467.81 123.974,467.778 123.315,467.611C122.768,467.335 122.342,467.101 121.909,466.656L122.002,466.236C122.817,465.852 123.65,465.565 124.503,465.279Z" style="fill:rgb(173,124,55);fill-rule:nonzero;"/>
        <path d="M110.402,462.457C110.922,462.528 111.175,462.667 111.572,463.007C111.943,463.961 111.624,465.185 111.491,466.178L110.772,466.13C110.491,465.951 110.255,465.864 110.107,465.556C109.622,464.544 110.044,463.443 110.402,462.457Z" style="fill:rgb(173,124,55);fill-rule:nonzero;"/>
        <path d="M59.272,484.176C59.506,484.225 59.697,484.299 59.895,484.436C60.469,484.835 60.77,484.942 60.889,485.634C60.332,486.136 59.973,486.155 59.252,486.323C58.966,486.568 58.643,486.691 58.301,486.837L58.029,486.527C58.199,485.515 58.651,484.949 59.272,484.176Z" style="fill:rgb(169,119,61);fill-rule:nonzero;"/>
        <path d="M78.353,475.917C79.254,475.958 79.709,476.166 80.337,476.795C80.569,477.605 80.507,477.733 80.206,478.518C80.015,478.6 79.882,478.663 79.67,478.647C79.257,478.614 79.026,478.435 78.765,478.119C78.257,477.503 78.256,476.662 78.353,475.917Z" style="fill:rgb(215,170,76);fill-rule:nonzero;"/>
        <path d="M119.019,478.192C119.513,478.164 120.008,478.139 120.503,478.118C121.276,478.087 122.271,477.947 122.856,478.487L122.559,479.042C121.926,479.435 121.45,479.773 120.682,479.729C119.896,479.457 119.499,478.827 119.019,478.192Z" style="fill:rgb(199,147,56);fill-rule:nonzero;"/>
        <path d="M89.033,475.94C89.84,476.177 90.76,476.916 91.489,477.363L91.565,477.716L91.002,477.792C90.525,478.106 90.064,478.385 89.547,478.627L89.195,478.412C89.169,477.584 89.106,476.765 89.033,475.94Z" style="fill:rgb(215,170,76);fill-rule:nonzero;"/>
        <path d="M124.711,477.558C124.809,477.627 124.902,477.701 124.989,477.782C125.583,478.324 125.862,478.948 125.914,479.714L125.36,480.224C124.711,479.747 124.074,479.333 123.686,478.604C123.883,477.896 124.092,477.912 124.711,477.558Z" style="fill:rgb(173,124,55);fill-rule:nonzero;"/>
        <path d="M95.333,482.058C95.96,482.196 96.288,482.345 96.754,482.788C97.073,483.511 96.759,484.25 96.55,484.965C96.193,484.932 95.889,484.787 95.56,484.65C95.078,483.928 95.281,482.889 95.333,482.058Z" style="fill:rgb(215,170,76);fill-rule:nonzero;"/>
        <path d="M66.266,496.551C67.021,497.011 67.57,497.832 67.879,498.642L67.508,499.322C66.846,499.17 66.496,499.046 66.018,498.549C65.764,497.788 65.996,497.274 66.266,496.551Z" style="fill:rgb(173,124,55);fill-rule:nonzero;"/>
        <path d="M43.147,485.688C43.642,485.818 44.253,486.16 44.597,486.543C45.102,487.107 45.042,487.878 45.021,488.585C44.531,488.316 43.717,487.872 43.373,487.428C42.936,486.863 43.089,486.349 43.147,485.688Z" style="fill:rgb(173,124,55);fill-rule:nonzero;"/>
        <path d="M55.752,481.011C56.576,480.915 57.886,480.626 58.627,481.036C58.972,481.227 58.965,481.556 59.059,481.914C58.39,481.971 57.048,482.227 56.445,481.952C55.953,481.727 55.935,481.473 55.752,481.011Z" style="fill:rgb(173,124,55);fill-rule:nonzero;"/>
        <path d="M44.563,482.939C44.985,483.439 44.995,483.587 45.063,484.211C44.733,484.92 44.31,485.145 43.63,485.494C43.458,485.241 43.323,484.947 43.179,484.676C43.404,483.839 43.942,483.513 44.563,482.939Z" style="fill:rgb(173,124,55);fill-rule:nonzero;"/>
        <path d="M138.349,475.988C138.694,476.226 138.779,476.584 138.916,476.961C138.834,477.8 138.243,478.266 137.675,478.821C137.477,478.677 137.325,478.425 137.173,478.231C137.109,477.424 137.894,476.613 138.349,475.988Z" style="fill:rgb(199,147,56);fill-rule:nonzero;"/>
        <path d="M112.424,493.45C112.774,493.446 112.795,493.513 113.058,493.725L112.967,494.126C112.49,494.82 111.95,494.972 111.169,495.217L110.412,494.765L110.431,494.401C111.151,494.146 111.77,493.846 112.424,493.45Z" style="fill:rgb(199,147,56);fill-rule:nonzero;"/>
        <path d="M36.486,484.191C36.887,484.605 36.905,484.656 36.987,485.229C36.682,485.855 36.2,486.054 35.606,486.357L35.188,485.699C35.41,484.897 35.861,484.691 36.486,484.191Z" style="fill:rgb(173,124,55);fill-rule:nonzero;"/>
        <path d="M97.897,477.991C98.184,478.026 98.451,478.085 98.701,478.239C99.427,478.689 99.85,479.392 100.045,480.203C99.749,480.159 99.462,480.064 99.198,479.923C98.413,479.512 98.136,478.794 97.897,477.991Z" style="fill:rgb(215,170,76);fill-rule:nonzero;"/>
        <path d="M117.457,489.141C117.706,489.291 117.813,489.498 117.975,489.733C117.816,490.53 117.565,490.692 117.017,491.27L116.368,490.679C116.448,489.934 116.939,489.649 117.457,489.141Z" style="fill:rgb(199,147,56);fill-rule:nonzero;"/>
        <path d="M64.304,500.993L64.819,501.395C65.191,502.147 64.918,503.023 64.775,503.813C64.498,503.659 64.324,503.407 64.127,503.166C63.941,502.36 64.088,501.779 64.304,500.993Z" style="fill:rgb(199,147,56);fill-rule:nonzero;"/>
        <path d="M79.46,498.188C79.642,498.35 79.795,498.593 79.948,498.788C79.84,499.505 79.562,499.651 79.064,500.16L78.456,499.721L78.415,499.264L79.46,498.188Z" style="fill:rgb(199,147,56);fill-rule:nonzero;"/>
    </g>
</svg>
