<?xml version="1.0" encoding="UTF-8" standalone="no"?>
<!DOCTYPE svg PUBLIC "-//W3C//DTD SVG 1.1//EN" "http://www.w3.org/Graphics/SVG/1.1/DTD/svg11.dtd">
<svg width="100%" height="100%" viewBox="0 0 136 70" version="1.1" xmlns="http://www.w3.org/2000/svg" xmlns:xlink="http://www.w3.org/1999/xlink" xml:space="preserve" xmlns:serif="http://www.serif.com/" style="fill-rule:evenodd;clip-rule:evenodd;stroke-linejoin:round;stroke-miterlimit:2;">
    <g transform="matrix(1,0,0,1,-16.7807,-7.998223)">
        <path d="M116.97,8.242C119.903,7.982 122.292,7.702 125.122,8.714C125.547,9.291 126.877,11.032 127.155,11.559L127.441,11.711C129.013,12.151 130.403,14.092 131.944,15.179C132.364,19.782 134.356,21.709 134.744,27.963C133.938,29.368 132.994,30.717 133.371,32.371C134.455,33.147 135.975,32.061 136.493,32.311C138.515,33.286 141.454,31.982 143.14,33.392C146.007,35.789 148.3,38.839 151.088,41.435C152.592,46.337 152.34,48.874 151.113,53.987C149.316,55.682 149.741,55.655 148.442,57.245C146.927,59.099 143.593,59.44 141.513,59.548C139.366,59.659 132.863,57.556 132.144,57.831C130.877,62.361 130.848,71.316 125.96,73.986C123.914,75.151 121.588,75.477 119.352,76.121C118.925,76.243 117.444,77.513 117.443,77.513C112.78,77.263 104.222,74.32 101.692,70.222C100.181,67.773 99.607,62.311 99.06,59.419C98.806,58.072 99.022,55.777 97.797,55.097C96.589,55.257 94.391,58.303 92.956,59.48C84.493,60.002 85.378,60.796 78.271,56.32C71.154,51.837 73.94,34.544 72.842,33.547L73.281,33.295C75.61,28.384 77.964,26.817 81.874,23.382C81.912,23.35 81.844,22.35 81.984,22.227C83.908,20.543 87.306,20.637 89.739,20.149C93.59,19.54 95.817,20.544 98.388,23.429C98.362,23.399 101.926,27.029 101.617,26.79C102.734,26.037 102.702,17.349 103.827,16.55C106.207,14.861 104.182,14.854 104.667,14.256C107.098,11.261 104.723,8.726 109.76,8.929C112.403,7.814 114.164,8.102 116.97,8.242Z" style="fill:rgb(229,221,218);fill-rule:nonzero;"/>
        <path d="M116.97,8.242C119.903,7.982 122.292,7.702 125.122,8.714C125.547,9.291 126.877,11.032 127.155,11.559L127.441,11.711C130.628,16.351 133.142,22.254 131.991,27.481C130.77,33.029 121.825,40.432 116.289,37.79C112.791,36.121 108.278,35.363 106.604,31.151C105.661,28.778 104.02,25.567 103.383,22.944C104.217,18.87 104.996,15.069 106.862,11.286C107.49,10.014 108.555,9.535 109.76,8.929C112.403,7.814 114.164,8.102 116.97,8.242Z" style="fill:rgb(163,129,108);fill-rule:nonzero;"/>
        <path d="M113.021,15.289C111.92,14.573 110.823,14.238 110.181,13.314C110.147,12.71 110.076,12.45 110.553,11.935C114.718,7.439 115.894,12.645 120.056,12.41C121.534,12.326 121.799,10.62 124.203,10.402C125.093,10.761 124.793,10.555 125.399,11.39C127.425,15.287 131.001,19.433 130.461,24.645C129.828,25.458 128.741,26.932 128.031,27.581C127.762,27.773 127.498,27.974 127.24,28.182C126.139,29.084 125.274,30.518 124.052,31.528C123.155,32.27 122.322,32.499 121.614,33.25C121.407,33.275 121.199,33.297 120.991,33.316C118.409,33.54 120.189,32.268 118.383,30.731C118.128,30.677 118.123,30.631 117.892,30.468C118.549,28.552 121.011,29.498 122.414,28.846L122.541,27.874C121.869,26.858 121.238,27.761 119.153,27.091C118.725,27.483 118.349,27.477 117.781,27.555C116.28,26.967 116.083,26.128 116.722,24.74C115.708,24.328 116.12,24.376 115.018,24.629L114.873,24.361C113.31,25.095 112.693,25.026 111.472,24.005C111.401,23.124 111.387,23.419 111.931,22.57C111.484,22.084 110.512,22.079 109.728,21.947L109.895,21.706C110.826,21.257 111.118,20.785 111.562,19.899L111.537,19.712C111.68,19.332 111.825,18.766 111.943,18.362L112.119,15.812L112.614,16.051L113.021,15.289Z" style="fill:rgb(85,51,37);fill-rule:nonzero;"/>
        <path d="M129.246,21.776C129.182,20.137 128.149,16.483 127.254,15.107C126.35,13.716 125.764,13.443 125.04,11.614L125.399,11.39C127.425,15.287 131.001,19.433 130.461,24.645C129.828,25.458 128.741,26.932 128.031,27.581C127.762,27.773 127.498,27.974 127.24,28.182C126.139,29.084 125.274,30.518 124.052,31.528C123.155,32.27 122.322,32.499 121.614,33.25C121.407,33.275 121.199,33.297 120.991,33.316C118.409,33.54 120.189,32.268 118.383,30.731C118.128,30.677 118.123,30.631 117.892,30.468C118.549,28.552 121.011,29.498 122.414,28.846L122.541,27.874C121.869,26.858 121.238,27.761 119.153,27.091C119.312,26.566 120.843,25.315 121.457,24.595L122.469,24.153L121.904,23.684L121.898,23.267C122.543,22.622 124.785,22.994 126.532,22.118C126.619,21.978 126.718,21.821 126.827,21.646C126.132,20.491 125.915,19.67 125.713,18.431C126.655,18.491 127.116,18.37 127.842,18.843C128.158,20.165 128.236,20.697 129,21.837L129.249,21.958L129.246,21.776Z" style="fill:rgb(45,25,20);fill-rule:nonzero;"/>
        <path d="M129.246,21.776C129.182,20.137 128.149,16.483 127.254,15.107C126.35,13.716 125.764,13.443 125.04,11.614L125.399,11.39C127.425,15.287 131.001,19.433 130.461,24.645C129.828,25.458 128.741,26.932 128.031,27.581C127.762,27.773 127.498,27.974 127.24,28.182C126.139,29.084 125.274,30.518 124.052,31.528C123.155,32.27 122.322,32.499 121.614,33.25C121.407,33.275 121.199,33.297 120.991,33.316C118.409,33.54 120.189,32.268 118.383,30.731C118.128,30.677 118.123,30.631 117.892,30.468C118.549,28.552 121.011,29.498 122.414,28.846C121.649,29.568 119.791,31.335 119.612,32.281L119.924,32.575C122.225,32.991 121.74,31.44 123.686,30.759C124.342,30.529 124.946,30.229 125.236,29.574C124.841,27.557 125.688,28.187 127.224,27.06C128.094,26.421 128.707,25.89 129.468,25.128C129.777,23.803 130.345,22.716 129.246,21.776Z" style="fill:rgb(58,32,25);fill-rule:nonzero;"/>
        <path d="M121.457,24.595C122.127,25.186 123.007,25.816 123.271,26.637L122.925,27.323L122.541,27.874C121.869,26.858 121.238,27.761 119.153,27.091C119.312,26.566 120.843,25.315 121.457,24.595Z" style="fill:rgb(85,51,37);fill-rule:nonzero;"/>
        <path d="M121.457,24.595L122.469,24.153C123.18,24.688 124.212,25.34 124.588,26.103L124.479,26.607C123.911,26.846 123.474,27.039 122.925,27.323L123.271,26.637C123.007,25.816 122.127,25.186 121.457,24.595Z" style="fill:rgb(77,46,37);fill-rule:nonzero;"/>
        <path d="M112.614,16.051C114.156,15.978 118.128,15.701 119.284,16.364C119.457,16.689 119.711,17.047 119.666,17.393C119.661,18.316 119.655,18.45 120.154,19.218C119.613,21.406 120.799,20.927 120.333,22.405L118.677,23.053C117.951,22.834 117.493,22.776 116.742,22.67L116.513,22.705L114.873,24.361C113.31,25.095 112.693,25.026 111.472,24.005C111.401,23.124 111.387,23.419 111.931,22.57C111.484,22.084 110.512,22.079 109.728,21.947L109.895,21.706C110.826,21.257 111.118,20.785 111.562,19.899L111.537,19.712C111.68,19.332 111.825,18.766 111.943,18.362L112.119,15.812L112.614,16.051Z" style="fill:rgb(132,96,83);fill-rule:nonzero;"/>
        <path d="M112.614,16.051C114.156,15.978 118.128,15.701 119.284,16.364C119.457,16.689 119.711,17.047 119.666,17.393C118.807,18.727 118.458,19.009 117.246,20.043C116.161,18.094 114.767,18.286 112.747,18.337C112.404,18.276 112.254,18.21 111.943,18.362L112.119,15.812L112.614,16.051Z" style="fill:rgb(153,120,103);fill-rule:nonzero;"/>
        <path d="M112.747,18.337C114.767,18.286 116.161,18.094 117.246,20.043C116.608,20.882 114.508,22.845 113.34,22.753L112.985,22.271C113.03,20.971 114.755,20.456 115.022,19.018C114.578,18.546 113.454,18.463 112.747,18.337Z" style="fill:rgb(145,111,97);fill-rule:nonzero;"/>
        <path d="M109.895,21.706C112.972,21.649 111.482,22.753 113.576,23.103C114.174,23.203 114.992,22.365 116.513,22.705L114.873,24.361C113.31,25.095 112.693,25.026 111.472,24.005C111.401,23.124 111.387,23.419 111.931,22.57C111.484,22.084 110.512,22.079 109.728,21.947L109.895,21.706Z" style="fill:rgb(113,76,55);fill-rule:nonzero;"/>
        <path d="M116.742,22.67C118.468,21.273 119.054,21.161 120.154,19.218C119.613,21.406 120.799,20.927 120.333,22.405L118.677,23.053C117.951,22.834 117.493,22.776 116.742,22.67Z" style="fill:rgb(113,76,55);fill-rule:nonzero;"/>
        <path d="M120.333,22.405C120.567,22.36 122.65,20.514 123.125,20.491C123.858,20.457 124.605,20.737 125.484,20.401C126.05,18.937 122.607,15.386 123.123,13.68L123.471,13.496L123.559,14.365C124.432,15.468 125.224,17.107 125.713,18.431C125.915,19.67 126.132,20.491 126.827,21.646C126.718,21.821 126.619,21.978 126.532,22.118C124.785,22.994 122.543,22.622 121.898,23.267L121.904,23.684L122.469,24.153L121.457,24.595C120.843,25.315 119.312,26.566 119.153,27.091C118.725,27.483 118.349,27.477 117.781,27.555C116.28,26.967 116.083,26.128 116.722,24.74C115.708,24.328 116.12,24.376 115.018,24.629L114.873,24.361L116.513,22.705L116.742,22.67C117.493,22.776 117.951,22.834 118.677,23.053L120.333,22.405Z" style="fill:rgb(70,41,33);fill-rule:nonzero;"/>
        <path d="M116.742,22.67C117.493,22.776 117.951,22.834 118.677,23.053C117.926,23.818 117.59,24.113 116.722,24.74C115.708,24.328 116.12,24.376 115.018,24.629L114.873,24.361L116.513,22.705L116.742,22.67Z" style="fill:rgb(103,66,53);fill-rule:nonzero;"/>
        <path d="M113.021,15.289L113.508,15.575C114.015,15.186 114.112,15.035 114.477,14.543C116.071,15.312 115.751,15.309 117.542,14.683L119.013,14.162C120.757,15.101 121.374,17.172 120.522,18.95L120.154,19.218C119.655,18.45 119.661,18.316 119.666,17.393C119.711,17.047 119.457,16.689 119.284,16.364C118.128,15.701 114.156,15.978 112.614,16.051L113.021,15.289Z" style="fill:rgb(113,76,55);fill-rule:nonzero;"/>
        <path d="M106.243,27.17C106.121,26.235 106.032,25.675 106.087,24.715C107.235,22.752 108.164,24.923 111.35,24.04L111.472,24.005C112.693,25.026 113.31,25.095 114.873,24.361L115.018,24.629C116.12,24.376 115.708,24.328 116.722,24.74C116.083,26.128 116.28,26.967 117.781,27.555C118.349,27.477 118.725,27.483 119.153,27.091C121.238,27.761 121.869,26.858 122.541,27.874L122.414,28.846C121.011,29.498 118.549,28.552 117.892,30.468C118.123,30.631 118.128,30.677 118.383,30.731C120.189,32.268 118.409,33.54 120.991,33.316C121.199,33.297 121.407,33.275 121.614,33.25C122.322,32.499 123.155,32.27 124.052,31.528C125.274,30.518 126.139,29.084 127.24,28.182C127.498,27.974 127.762,27.773 128.031,27.581C127.626,29.341 123.176,32.934 122.291,33.913L122.269,34.093C119.26,36.697 112.46,33.967 109.526,32.27C109.73,32.388 107.928,30.188 107.864,30.113C107.288,29.584 106.678,28.008 106.243,27.17Z" style="fill:rgb(77,46,37);fill-rule:nonzero;"/>
        <path d="M106.243,27.17C106.121,26.235 106.032,25.675 106.087,24.715C107.235,22.752 108.164,24.923 111.35,24.04L111.472,24.005C112.693,25.026 113.31,25.095 114.873,24.361L115.018,24.629C112.737,26.72 109.547,24.252 107.571,24.539C106.9,25.174 107.035,24.877 106.862,25.74C107.223,27.033 108.684,27.872 109.191,28.791C109.646,29.614 109.41,30.771 110.196,31.827L110.694,32.084C111.675,31.733 111.659,31.773 111.91,30.72C112.313,32.027 111.334,31.588 112.309,32.417C116.429,35.917 118.114,34.076 122.291,33.913L122.269,34.093C119.26,36.697 112.46,33.967 109.526,32.27C109.73,32.388 107.928,30.188 107.864,30.113C107.288,29.584 106.678,28.008 106.243,27.17Z" style="fill:rgb(97,64,62);fill-rule:nonzero;"/>
        <path d="M118.383,30.731C120.189,32.268 118.409,33.54 120.991,33.316C121.199,33.297 121.407,33.275 121.614,33.25C120.391,34.304 115.372,34.345 114.475,33.05C115.481,32.33 117.996,33.685 118.837,31.54L118.383,30.731Z" style="fill:rgb(70,41,33);fill-rule:nonzero;"/>
        <path d="M116.97,8.242C119.903,7.982 122.292,7.702 125.122,8.714C125.547,9.291 126.877,11.032 127.155,11.559C127.486,12.712 128.556,14.58 129.091,16.052C129.869,18.193 130.384,20.286 131.219,22.342C131.111,23.09 130.864,25.396 130.411,26.097C124.228,35.659 118.979,38.505 108.659,32.52C108.346,32.338 108.04,30.558 107.864,30.113C107.928,30.188 109.73,32.388 109.526,32.27C112.46,33.967 119.26,36.697 122.269,34.093L122.291,33.913C123.176,32.934 127.626,29.341 128.031,27.581C128.741,26.932 129.828,25.458 130.461,24.645C131.001,19.433 127.425,15.287 125.399,11.39C124.793,10.555 125.093,10.761 124.203,10.402C121.799,10.62 121.534,12.326 120.056,12.41C115.894,12.645 114.718,7.439 110.553,11.935C110.076,12.45 110.147,12.71 110.181,13.314C110.823,14.238 111.92,14.573 113.021,15.289L112.614,16.051L112.119,15.812C111.75,15.569 111.383,15.323 111.019,15.072C107.399,12.568 111.503,9.619 114.009,8.854C115.042,8.539 115.92,8.395 116.97,8.242Z" style="fill:rgb(113,76,55);fill-rule:nonzero;"/>
        <path d="M104.89,20.104C105.602,19.686 105.713,19.601 106.525,19.664C107.25,20.214 107.275,21 107.562,21.948C108.568,22.358 108.507,22.424 109.728,21.947C110.512,22.079 111.484,22.084 111.931,22.57C111.387,23.419 111.401,23.124 111.472,24.005L111.35,24.04C108.164,24.923 107.235,22.752 106.087,24.715C106.032,25.675 106.121,26.235 106.243,27.17L105.141,25.068C104.708,23.165 104.515,22.024 104.89,20.104Z" style="fill:rgb(103,66,53);fill-rule:nonzero;"/>
        <path d="M104.89,20.104C105.602,19.686 105.713,19.601 106.525,19.664C107.25,20.214 107.275,21 107.562,21.948C106.803,21.681 106.643,21.583 105.895,21.848C104.99,22.587 105.116,23.994 105.141,25.068C104.708,23.165 104.515,22.024 104.89,20.104Z" style="fill:rgb(140,96,61);fill-rule:nonzero;"/>
        <path d="M104.89,20.104C105.373,18.322 105.554,15.499 106.916,14.554C107.768,14.473 107.471,14.379 108.138,14.85C108.589,15.918 107.938,16.26 107.887,18.139C107.609,19.204 107.415,19.25 107.739,20.201C108.915,20.916 110.327,20.427 111.562,19.899C111.118,20.785 110.826,21.257 109.895,21.706L109.728,21.947C108.507,22.424 108.568,22.358 107.562,21.948C107.275,21 107.25,20.214 106.525,19.664C105.713,19.601 105.602,19.686 104.89,20.104Z" style="fill:rgb(139,103,91);fill-rule:nonzero;"/>
        <path d="M107.887,18.139C108.338,17.744 110.323,16.36 110.912,16.351C112.207,17.536 111.448,18.205 111.537,19.712L111.562,19.899C110.327,20.427 108.915,20.916 107.739,20.201C107.415,19.25 107.609,19.204 107.887,18.139Z" style="fill:rgb(183,160,149);fill-rule:nonzero;"/>
        <path d="M82.851,22.741C85.991,22.779 90.934,20.005 93.316,21.699L93.98,22.224L95.145,22.652C102.91,26.5 102.944,40.126 99.639,46.76C96.053,53.511 88.801,58.456 81.254,54.539C78.511,53.115 76.597,52.075 75.38,48.878C73.923,45.051 73.725,31 77.92,29.147C78.906,27.664 80.453,26.668 81.721,25.419C82.919,24.239 82.15,24.106 82.851,22.741Z" style="fill:rgb(113,76,55);fill-rule:nonzero;"/>
        <path d="M82.851,22.741C85.738,23.13 86.358,23.354 89.183,22.478C88.83,24.2 88.516,25.712 88.041,27.413C87.063,26.993 86.856,26.898 85.806,26.818L85.754,26.959C85.511,27.641 85.593,28.495 85.437,28.857C84.921,28.526 84.63,28.283 84.007,28.258C83.869,28.302 78.154,29.141 77.92,29.147C78.906,27.664 80.453,26.668 81.721,25.419C82.919,24.239 82.15,24.106 82.851,22.741Z" style="fill:rgb(132,96,83);fill-rule:nonzero;"/>
        <path d="M82.851,22.741C85.991,22.779 90.934,20.005 93.316,21.699C92.319,21.737 91.098,21.651 90.327,22.217C89.681,23.446 90.341,24.962 91.046,26.09C90.577,28.011 89.892,29.399 87.155,29.054C86.96,29.03 86.682,28.696 86.515,28.537C86.52,27.848 86.415,27.972 86.767,27.509C87.629,27.668 87.467,27.783 88.041,27.413C88.516,25.712 88.83,24.2 89.183,22.478C86.358,23.354 85.738,23.13 82.851,22.741Z" style="fill:rgb(163,129,108);fill-rule:nonzero;"/>
        <path d="M93.98,22.224L95.145,22.652C95.337,24.365 95.451,24.351 96.59,25.553C95.922,26.486 95.757,26.437 94.596,26.409C93.38,25.74 93.441,26.248 92.356,25.62C90.999,23.722 91.649,22.403 93.98,22.224Z" style="fill:rgb(93,59,45);fill-rule:nonzero;"/>
        <path d="M91.046,26.09C92.225,27.359 89.792,31.059 88.626,31.85L88.326,31.784C86.459,29.279 85.971,30.75 85.806,26.818C86.856,26.898 87.063,26.993 88.041,27.413C87.467,27.783 87.629,27.668 86.767,27.509C86.415,27.972 86.52,27.848 86.515,28.537C86.682,28.696 86.96,29.03 87.155,29.054C89.892,29.399 90.577,28.011 91.046,26.09Z" style="fill:rgb(153,120,103);fill-rule:nonzero;"/>
        <path d="M84.007,28.258C84.63,28.283 84.921,28.526 85.437,28.857C85.593,28.495 85.511,27.641 85.754,26.959L85.806,26.818C85.971,30.75 86.459,29.279 88.326,31.784L88.061,32.31L87.268,32.482C86.232,32.133 86.557,32.378 85.918,31.543C85.745,30.296 85.962,30.366 85.201,29.626C84.812,29.261 84.361,28.683 84.007,28.258Z" style="fill:rgb(139,103,91);fill-rule:nonzero;"/>
        <path d="M85.201,29.626C85.962,30.366 85.745,30.296 85.918,31.543C84.342,31.568 84.963,32.719 83.382,33.034L83.018,32.692C83.232,31.451 84.239,31.259 85.16,29.696L85.201,29.626Z" style="fill:rgb(132,96,83);fill-rule:nonzero;"/>
        <path d="M96.59,25.553C97.392,26.053 97.413,25.891 97.737,26.618C96.878,27.126 95.473,26.796 94.596,26.409C95.757,26.437 95.922,26.486 96.59,25.553Z" style="fill:rgb(103,66,53);fill-rule:nonzero;"/>
        <path d="M91.857,30.333C92.522,29.122 92.56,28.728 93.718,28.264C95.075,28.473 95.885,30.366 96.831,30.205L97.519,29.173C100.612,28.921 100.256,38.43 99.981,40.353C99.767,41.164 99.329,43.018 99.065,43.727C98.213,46.581 96.033,46.638 95.413,47.931C92.851,53.269 90.029,53.783 84.223,53.423C81.151,53.232 78.902,52.022 76.718,49.327C76.581,47.605 75.8,42.332 76.656,41.293C78.399,40.227 79.957,40.876 82.145,41.001C82.598,40.539 82.996,39.988 83.588,39.912C82.881,39.674 82.779,39.641 82.231,39.13L82.651,38.764C82.454,37.904 81.553,37.246 80.821,36.37L80.725,36.243L81.604,34.902C81.695,34.885 82.044,34.662 82.149,34.599L82.517,33.079C82.65,33.742 82.705,34.534 83.217,34.92C83.72,34.977 83.895,35.039 84.355,34.844C85.667,33.703 88.128,33.737 89.606,34.478C89.895,35.04 89.847,36.463 89.864,37.163C90.146,36.563 90.663,36.172 91.16,35.724L91.367,35.619C91.606,34.557 91.809,33.906 92.153,32.888L92.082,32.448C91.642,32.764 91.486,32.928 90.93,32.935L90.755,32.498C91.088,31.438 91.166,31.195 91.857,30.333Z" style="fill:rgb(41,22,19);fill-rule:nonzero;"/>
        <path d="M82.517,33.079C82.65,33.742 82.705,34.534 83.217,34.92C83.72,34.977 83.895,35.039 84.355,34.844C85.667,33.703 88.128,33.737 89.606,34.478C89.895,35.04 89.847,36.463 89.864,37.163C90.146,36.563 90.663,36.172 91.16,35.724C91.282,40.762 89.548,38.76 89.144,39.974C88.414,42.974 87.497,42.296 85.248,43.884L84.898,43.758C84.297,41.943 83.833,41.62 82.145,41.001C82.598,40.539 82.996,39.988 83.588,39.912C82.881,39.674 82.779,39.641 82.231,39.13L82.651,38.764C82.454,37.904 81.553,37.246 80.821,36.37L80.725,36.243L81.604,34.902C81.695,34.885 82.044,34.662 82.149,34.599L82.517,33.079Z" style="fill:rgb(58,32,25);fill-rule:nonzero;"/>
        <path d="M82.517,33.079C82.65,33.742 82.705,34.534 83.217,34.92C83.72,34.977 83.895,35.039 84.355,34.844C84.677,35.007 85.291,35.285 85.528,35.517L84.742,35.837L84.35,35.624C83.731,37.3 85.181,37.767 84.62,39.394L83.588,39.912C82.881,39.674 82.779,39.641 82.231,39.13L82.651,38.764C82.454,37.904 81.553,37.246 80.821,36.37L80.725,36.243L81.604,34.902C81.695,34.885 82.044,34.662 82.149,34.599L82.517,33.079Z" style="fill:rgb(85,51,37);fill-rule:nonzero;"/>
        <path d="M81.604,34.902C82.811,36.845 84.732,36.787 82.651,38.764C82.454,37.904 81.553,37.246 80.821,36.37L80.725,36.243L81.604,34.902Z" style="fill:rgb(97,64,62);fill-rule:nonzero;"/>
        <path d="M84.355,34.844C85.667,33.703 88.128,33.737 89.606,34.478C89.895,35.04 89.847,36.463 89.864,37.163L89.466,37.505C88.098,36.202 87.425,35.094 85.528,35.517C85.291,35.285 84.677,35.007 84.355,34.844Z" style="fill:rgb(93,59,45);fill-rule:nonzero;"/>
        <path d="M84.62,39.394C85.739,39.857 85.56,39.599 86.125,40.456C86.027,42.004 84.384,42.505 85.248,43.884L84.898,43.758C84.297,41.943 83.833,41.62 82.145,41.001C82.598,40.539 82.996,39.988 83.588,39.912L84.62,39.394Z" style="fill:rgb(45,25,20);fill-rule:nonzero;"/>
        <path d="M85.528,35.517C87.425,35.094 88.098,36.202 89.466,37.505C89.345,37.677 89.221,37.848 89.094,38.016C88.654,38.596 88.242,39.115 87.501,39.22C87.003,38.496 87.176,37.421 87.095,36.324L86.546,35.934C86.089,36.073 85.711,36.174 85.246,36.281L84.742,35.837L85.528,35.517Z" style="fill:rgb(77,46,37);fill-rule:nonzero;"/>
        <path d="M91.857,30.333C92.522,29.122 92.56,28.728 93.718,28.264C95.075,28.473 95.885,30.366 96.831,30.205L97.519,29.173C100.612,28.921 100.256,38.43 99.981,40.353C99.767,41.164 99.329,43.018 99.065,43.727C98.94,41.592 99.532,39.106 99.235,35.463L97.81,33.601C97.034,33.784 96.565,33.943 95.776,33.848C94.009,33.017 95.722,31.801 92.809,31.053C92.631,31.883 92.6,32.171 92.153,32.888L92.082,32.448C91.642,32.764 91.486,32.928 90.93,32.935L90.755,32.498C91.088,31.438 91.166,31.195 91.857,30.333Z" style="fill:rgb(77,46,37);fill-rule:nonzero;"/>
        <path d="M91.857,30.333C92.522,29.122 92.56,28.728 93.718,28.264C95.075,28.473 95.885,30.366 96.831,30.205L97.519,29.173C100.612,28.921 100.256,38.43 99.981,40.353C99.71,36.912 100.256,34.99 98.956,31.674C98.535,31.401 97.802,30.914 97.422,30.62C97.451,30.642 95.364,31.13 95.282,31.063C94.729,30.607 94.561,30.343 93.772,30.083C93.048,30.381 93.271,30.268 92.809,31.053C92.631,31.883 92.6,32.171 92.153,32.888L92.082,32.448C91.642,32.764 91.486,32.928 90.93,32.935L90.755,32.498C91.088,31.438 91.166,31.195 91.857,30.333Z" style="fill:rgb(85,51,37);fill-rule:nonzero;"/>
        <path d="M92.082,32.448C91.642,32.764 91.486,32.928 90.93,32.935L90.755,32.498C91.088,31.438 91.166,31.195 91.857,30.333C91.972,30.992 92.154,31.799 92.082,32.448Z" style="fill:rgb(93,59,45);fill-rule:nonzero;"/>
        <path d="M91.16,35.724L91.367,35.619C91.379,36.247 91.367,37.691 91.461,38.243C91.64,39.292 93.581,40.261 92.522,41.417C91.427,41.301 90.758,40.75 89.966,40.009C89.687,39.983 89.415,39.937 89.144,39.974C89.548,38.76 91.282,40.762 91.16,35.724Z" style="fill:rgb(70,41,33);fill-rule:nonzero;"/>
        <path d="M77.02,32.958C77.02,31.658 76.837,31.703 77.44,30.638C78.793,29.822 80.132,30.602 81.261,31.536C81.412,32.063 81.454,32.326 81.807,32.764L82.517,33.079L82.149,34.599C82.044,34.662 81.695,34.885 81.604,34.902L80.725,36.243L80.821,36.37C79.971,36.471 79.133,36.532 78.279,36.598C77.758,37.308 77.78,37.625 77.698,38.519L77.869,38.98C78.68,39.065 80.532,39.085 81.01,39.523L80.919,39.756C80.104,39.637 79.329,39.428 78.612,39.813C77.881,39.636 77.794,39.591 77.188,39.146C76.727,39.37 76.618,39.759 75.918,39.873C75.509,39.14 75.796,38.238 75.899,37.241C76.602,35.905 76.869,34.45 77.02,32.958Z" style="fill:rgb(85,51,37);fill-rule:nonzero;"/>
        <path d="M77.02,32.958C77.749,33.593 80.227,36.096 80.725,36.243L80.821,36.37C79.971,36.471 79.133,36.532 78.279,36.598C77.758,37.308 77.78,37.625 77.698,38.519L77.869,38.98C78.68,39.065 80.532,39.085 81.01,39.523L80.919,39.756C80.104,39.637 79.329,39.428 78.612,39.813C77.881,39.636 77.794,39.591 77.188,39.146C76.727,39.37 76.618,39.759 75.918,39.873C75.509,39.14 75.796,38.238 75.899,37.241C76.602,35.905 76.869,34.45 77.02,32.958Z" style="fill:rgb(93,59,45);fill-rule:nonzero;"/>
        <path d="M75.899,37.241C76.781,37.088 76.464,37.021 77.234,37.407C77.559,38.35 77.482,38.031 77.188,39.146C76.727,39.37 76.618,39.759 75.918,39.873C75.509,39.14 75.796,38.238 75.899,37.241Z" style="fill:rgb(106,68,40);fill-rule:nonzero;"/>
        <path d="M101.684,53.769C102.412,51.969 105.329,49.367 106.883,48.09C109.957,45.563 115.037,45.882 118.806,46.257C120.525,47.686 121.385,47.816 123.569,48.283C124.935,49.46 125.745,50.093 126.192,51.889C128.881,62.678 128.547,72.602 115.012,73.151C108.641,73.409 103.674,69.432 101.072,63.934C101.387,60.224 100.055,57.493 101.684,53.769Z" style="fill:rgb(122,84,60);fill-rule:nonzero;"/>
        <path d="M115.44,53.415C116.378,52.788 116.217,52.659 117.056,52.806C117.381,53.39 117.711,53.97 118.048,54.548L118.127,55.428C118.272,56.106 118.164,56.332 117.907,56.949C119.636,57.906 121.885,55.978 122.106,56.949C122.349,58.017 120.565,59.812 121.953,60.871C122.991,60.818 123.379,60.346 124.052,59.596C124.154,59.481 124.256,59.366 124.357,59.25C125.502,59.899 125.197,63.335 125.218,64.663C124.628,66.007 123.886,67.28 123.008,68.457C119.748,69.834 110.281,72.81 107.354,69.958C107.091,69.21 105.199,67.27 104.557,66.541C103.467,65.34 102.505,65.395 101.786,64.388C101.702,63.244 101.451,61.288 102.103,60.376L102.656,60.321C103.763,60.091 106.7,59.448 107.489,58.914L108.212,58.579C109.604,57.507 110.036,56.988 111.802,57.101L112.507,56.526C112.896,55.921 113.297,55.216 113.672,54.592C114.169,54.37 114.964,53.758 115.44,53.415Z" style="fill:rgb(77,46,37);fill-rule:nonzero;"/>
        <path d="M104.557,66.541C104.079,64.738 102.738,64.528 102.119,63.222C102.033,62.343 102.04,62.235 102.452,61.456C103.293,60.813 102.914,60.955 103.966,60.884C105.92,62.433 104.222,65.359 108.174,65.085C109.661,65.135 110.563,65.599 111.64,65.614C112.139,66.606 111.843,67.614 112.456,68.2C114.01,68.036 120.461,60.676 123.752,61.89C124.905,63.368 123.487,66.423 122.899,68.063C119.659,68.851 115.588,70.016 112.343,70.562C111.79,70.655 108.474,69.962 107.354,69.958C107.091,69.21 105.199,67.27 104.557,66.541Z" style="fill:rgb(45,25,20);fill-rule:nonzero;"/>
        <path d="M115.44,53.415C116.378,52.788 116.217,52.659 117.056,52.806C117.381,53.39 117.711,53.97 118.048,54.548L118.127,55.428C117.579,56.115 117.072,56.776 116.451,57.402C115.992,56.884 115.58,56.248 115.186,55.672C114.38,55.891 113.382,56.094 112.71,56.559L112.507,56.526C112.896,55.921 113.297,55.216 113.672,54.592C114.169,54.37 114.964,53.758 115.44,53.415Z" style="fill:rgb(85,51,37);fill-rule:nonzero;"/>
        <path d="M115.186,55.672C116.141,54.946 116.843,54.49 118.048,54.548L118.127,55.428C117.579,56.115 117.072,56.776 116.451,57.402C115.992,56.884 115.58,56.248 115.186,55.672Z" style="fill:rgb(58,32,25);fill-rule:nonzero;"/>
        <path d="M108.212,58.579C109.604,57.507 110.036,56.988 111.802,57.101C109.491,61.036 108.689,60.277 104.605,60.153C103.974,60.133 103.541,60.456 102.656,60.321C103.763,60.091 106.7,59.448 107.489,58.914L108.212,58.579Z" style="fill:rgb(93,59,45);fill-rule:nonzero;"/>
        <path d="M112.71,56.559C113.382,56.094 114.38,55.891 115.186,55.672C115.58,56.248 115.992,56.884 116.451,57.402C115.864,58.517 115.703,59.241 114.455,59.442C113.389,59.082 113.019,58.25 112.442,57.26L112.71,56.559Z" style="fill:rgb(58,32,25);fill-rule:nonzero;"/>
        <path d="M108.174,65.085L108.294,65.009C109.313,64.349 109.021,63.964 110.053,63.719C111.039,64.284 111.006,65.024 111.64,65.614C110.563,65.599 109.661,65.135 108.174,65.085Z" style="fill:rgb(71,41,29);fill-rule:nonzero;"/>
        <path d="M115.44,53.415C114.296,52.415 113.36,51.026 114.651,49.711C116.396,49.432 119.322,52.398 120.166,53.711C123.198,54.055 122.231,56.035 123.637,56.568L123.669,56.891C123.863,57.765 124.194,58.527 124.357,59.25C124.256,59.366 124.154,59.481 124.052,59.596C123.379,60.346 122.991,60.818 121.953,60.871C120.565,59.812 122.349,58.017 122.106,56.949C121.885,55.978 119.636,57.906 117.907,56.949C118.164,56.332 118.272,56.106 118.127,55.428L118.048,54.548C117.711,53.97 117.381,53.39 117.056,52.806C116.217,52.659 116.378,52.788 115.44,53.415Z" style="fill:rgb(103,66,53);fill-rule:nonzero;"/>
        <path d="M120.166,53.711C123.198,54.055 122.231,56.035 123.637,56.568L123.669,56.891C122.119,56.572 120.98,54.877 120.166,53.711Z" style="fill:rgb(113,76,55);fill-rule:nonzero;"/>
        <path d="M101.684,53.769C104.244,53.767 102.86,55.416 104.672,56.417C105.934,56.285 106.491,56.376 107.593,55.666L108.128,56.216C108.046,57.349 107.806,57.651 108.212,58.579L107.489,58.914C106.7,59.448 103.763,60.091 102.656,60.321L102.103,60.376C101.451,61.288 101.702,63.244 101.786,64.388L101.072,63.934C101.387,60.224 100.055,57.493 101.684,53.769Z" style="fill:rgb(103,66,53);fill-rule:nonzero;"/>
        <path d="M104.672,56.417C105.934,56.285 106.491,56.376 107.593,55.666L108.128,56.216C108.046,57.349 107.806,57.651 108.212,58.579L107.489,58.914C106.352,58.019 105.699,57.437 104.672,56.417Z" style="fill:rgb(113,76,55);fill-rule:nonzero;"/>
        <path d="M107.593,55.666C107.649,54.458 108.052,53.755 108.851,52.91C109.016,53.207 109.362,53.876 109.539,54.121L111.158,55.545L112.186,54.742L113.672,54.592C113.297,55.216 112.896,55.921 112.507,56.526L111.802,57.101C110.036,56.988 109.604,57.507 108.212,58.579C107.806,57.651 108.046,57.349 108.128,56.216L107.593,55.666Z" style="fill:rgb(113,76,55);fill-rule:nonzero;"/>
        <path d="M109.539,54.121L111.158,55.545C110.497,55.883 109.888,56.135 109.196,55.886C109.005,55.046 109.171,55.083 109.539,54.121Z" style="fill:rgb(132,96,83);fill-rule:nonzero;"/>
        <path d="M123.637,56.568C124.601,56.186 124.228,56.206 125.193,56.37C126.999,57.73 125.935,62.906 125.218,64.663C125.197,63.335 125.502,59.899 124.357,59.25C124.194,58.527 123.863,57.765 123.669,56.891L123.637,56.568Z" style="fill:rgb(93,59,45);fill-rule:nonzero;"/>
        <path d="M108.851,52.91L109.025,52.865C110.637,52.431 111.633,51.101 112.763,51.556C113.031,52.457 112.496,53.821 112.186,54.742L111.158,55.545L109.539,54.121C109.362,53.876 109.016,53.207 108.851,52.91Z" style="fill:rgb(153,120,103);fill-rule:nonzero;"/>
        <path d="M108.389,47.635C108.929,47.646 109.66,47.598 110.161,47.815C111.327,48.321 111.93,50.202 112.439,51.297C111.136,51.135 109.811,51.079 108.501,50.991C108.284,51.074 108.065,51.154 107.845,51.23C107.177,51.461 106.583,51.612 105.941,51.294C106.264,49.966 107.896,49.163 108.365,47.712C108.373,47.686 108.381,47.66 108.389,47.635Z" style="fill:rgb(103,66,53);fill-rule:nonzero;"/>
        <path d="M120.124,49.05C120.607,49.056 121.14,49.048 121.608,49.179C122.578,49.449 123.595,50.092 124.09,50.976C124.077,51.662 124.049,51.786 123.61,52.313C123.068,52.334 122.526,52.348 121.984,52.355C121.06,52.362 120.594,52.299 119.931,51.646C119.603,50.791 119.92,49.903 120.124,49.05Z" style="fill:rgb(93,59,45);fill-rule:nonzero;"/>
        <path d="M128.271,42.52C128.511,42.183 129.276,41.144 129.398,40.842C132.308,33.624 134.372,33.332 141.859,33.17L143.475,34.668C144.971,36.17 145.426,36.996 146.565,38.73C147.295,38.987 149.4,41.958 149.916,42.722C150.35,46.318 150.412,51.785 147.439,54.041C145.734,55.453 142.472,56.971 140.183,56.553C132.135,55.085 127.527,51.167 128.271,42.52Z" style="fill:url(#_Linear1);fill-rule:nonzero;"/>
        <path d="M143.082,39.868C143.526,40.618 144.025,41.269 143.951,42.131C144.329,40.772 144.649,40.539 145.762,39.763C148.651,41.043 148.391,46.381 147.238,48.806C146.721,49.892 145.008,51.219 144.185,52.321L144.099,52.734L143.94,52.897C141.708,55.589 134.538,53.376 132.255,51.565C130.576,50.249 129.495,48.314 129.256,46.194C129.103,44.843 129.154,43.308 130.025,42.211C130.148,42.217 130.285,42.225 130.437,42.233C131.261,43.804 131.575,44.532 132.892,45.618C134.652,47.124 135.2,46.167 137.219,45.84C141.223,45.192 142.381,43.868 143.082,39.868Z" style="fill:rgb(93,59,45);fill-rule:nonzero;"/>
        <path d="M145.762,39.763C148.651,41.043 148.391,46.381 147.238,48.806C146.721,49.892 145.008,51.219 144.185,52.321C139.214,51.647 137.689,53.948 135.398,47.952C138.008,48.117 146.217,47.404 144.707,43.271L143.951,42.131C144.329,40.772 144.649,40.539 145.762,39.763Z" style="fill:rgb(58,32,25);fill-rule:nonzero;"/>
        <path d="M144.707,43.271C146.217,47.404 138.008,48.117 135.398,47.952C137.689,53.948 139.214,51.647 144.185,52.321L144.099,52.734L143.94,52.897L143.651,52.925C139.577,53.307 138.876,53.042 135.163,51.238C134.377,50.856 132.994,51.216 132.019,50.408L131.981,49.846C132.918,48.358 135.86,47.027 137.49,46.459C140.445,45.429 143.869,46.876 144.707,43.271Z" style="fill:rgb(85,51,37);fill-rule:nonzero;"/>
        <path d="M134.722,37.16C134.646,36.309 134.596,35.898 134.954,35.135C136.187,33.804 141.432,34.922 143.475,34.668C144.971,36.17 145.426,36.996 146.565,38.73C146.716,39.522 148.368,41.391 148.965,42.133C149.107,46.25 148.336,50.817 144.099,52.734L144.185,52.321C145.008,51.219 146.721,49.892 147.238,48.806C148.391,46.381 148.651,41.043 145.762,39.763C144.649,40.539 144.329,40.772 143.951,42.131C144.025,41.269 143.526,40.618 143.082,39.868C142.919,39.715 142.749,39.569 142.574,39.43C140.336,37.669 138.066,38.719 136.838,38.007L136.517,37.422C135.686,36.96 135.813,37.117 134.722,37.16Z" style="fill:rgb(103,66,53);fill-rule:nonzero;"/>
        <path d="M143.082,39.868C142.483,38.522 141.709,37.642 142.527,36.248L142.917,36.155C144.197,37.011 144.879,39.467 145.762,39.763C144.649,40.539 144.329,40.772 143.951,42.131C144.025,41.269 143.526,40.618 143.082,39.868Z" style="fill:rgb(77,46,37);fill-rule:nonzero;"/>
        <path d="M136.838,38.007C138.066,38.719 140.336,37.669 142.574,39.43C142.749,39.569 142.919,39.715 143.082,39.868C142.381,43.868 141.223,45.192 137.219,45.84C135.2,46.167 134.652,47.124 132.892,45.618C135.169,45.721 136.919,46.069 137.136,43.839C137.237,42.791 140.011,44.111 141.137,43.574C141.961,42.511 141.754,41.966 141.605,40.585C140.205,38.523 139.917,40.096 137.603,39.536C136.857,38.843 137.075,39.134 136.838,38.007Z" style="fill:rgb(122,84,60);fill-rule:nonzero;"/>
        <path d="M134.722,37.16C135.813,37.117 135.686,36.96 136.517,37.422L136.838,38.007C137.075,39.134 136.857,38.843 137.603,39.536C139.917,40.096 140.205,38.523 141.605,40.585C139.624,39.155 138.129,41.009 137.186,40.93C136.413,40.205 136.662,39.065 136.082,37.747C135.471,37.618 135.18,37.606 134.722,37.16Z" style="fill:rgb(132,96,83);fill-rule:nonzero;"/>
        <path d="M105.094,34.692C107.289,35.111 109.78,39.538 114.231,40.343C116.892,40.824 122.607,41.235 124.869,39.558C126.048,38.683 126.875,37.325 128.107,36.506C128.598,36.18 128.759,36.149 129.331,36.262C129.575,38.066 126.697,43.72 125.931,45.758C125.623,46.578 125.349,46.813 124.58,47.164L124.085,46.95C121.33,45.828 118.651,44.592 115.647,44.352C109.385,43.852 108.272,44.846 103.949,48.809C103.252,49.448 102.389,49.921 101.657,50.546C101.362,48.287 103.955,47.278 104.497,45.292C105.395,42.001 105.301,38.068 105.094,34.692Z" style="fill:white;fill-rule:nonzero;"/>
        <path d="M50.073,14.061C51.773,12.834 53.89,12.189 55.541,11.098C58.089,12.835 61.104,13.591 63.838,14.963C65.431,15.762 67.479,17.715 69.113,18.687C69.908,19.16 70.891,22.244 72.136,23.357C72.688,23.219 72.838,23.014 73.233,22.625C74.099,23.762 73.387,30.126 73.241,31.857C73.19,32.465 72.876,32.797 72.842,33.547C69.852,34.707 70.782,39.679 67.595,40.747C67.128,40.904 65.718,41.521 65.379,41.742C63.957,42.36 61.158,43.154 61.357,44.971C64.441,46.653 64.28,47.235 66.44,49.89C68.071,51.158 68.885,52.098 69.685,53.864C70.649,55.172 70.145,63.796 69.244,64.47C66.006,66.889 64.166,70.528 60.132,71.74C52.626,73.997 50.859,70.11 44.871,65.985C44.795,65.934 44.719,65.884 44.643,65.833C41.574,62.834 38.791,60.236 38.128,55.997C38.127,55.498 37.099,50.405 36.882,49.856C36.053,49.996 34.925,52.662 33.282,52.954L33.143,52.977C31.809,53.209 30.134,53.127 28.771,52.955C25.326,52.521 20.389,49.429 18.235,46.742C17.875,46.294 18.531,45.893 18.529,45.422C18.525,44.53 16.857,40.984 16.848,40.713C16.74,37.559 16.771,33.331 16.876,30.263C16.942,28.327 19.218,26.299 20.616,25.265C21.834,24.365 24.138,24.454 25.418,24.038C26.632,23.644 27.207,23.147 28.649,22.924C29.447,22.808 30.258,22.817 31.053,22.951C36.253,23.804 39.602,28.186 42.441,32.12L42.337,32.35C42.019,32.399 41.701,32.452 41.384,32.509C42.219,33.42 41.134,35.55 43.452,36.1C44.329,35.837 44.463,35.805 45.102,35.158C44.978,34.059 43.057,32.484 42.907,31.603C42.631,29.98 42.262,28.247 41.921,26.641C43.716,21.57 42.463,15.54 48.476,14.998L50.073,14.061Z" style="fill:rgb(183,160,149);fill-rule:nonzero;"/>
        <path d="M54.917,12.353C57.096,12.812 57.332,13.754 58.995,14.56C62.132,16.08 66.293,16.576 68.251,19.807C70.144,22.931 69.8,25.287 69.162,28.557C67.833,35.37 65.562,34.382 61.164,39.374C60.402,39.299 52.135,37.36 51.77,36.992C49.539,34.741 45.092,32.436 44.667,29.197C44.308,27.206 44.736,19.239 45.812,17.688C46.645,16.915 47.657,15.826 48.476,14.998L50.073,14.061C51.855,13.504 53.185,13.061 54.917,12.353Z" style="fill:rgb(103,66,53);fill-rule:nonzero;"/>
        <path d="M44.667,29.197C44.308,27.206 44.736,19.239 45.812,17.688C45.835,19.215 45.595,20.516 45.528,21.901C45.497,22.541 47.585,24.13 46.316,25.122C44.43,26.599 44.74,26.672 44.667,29.197Z" style="fill:rgb(113,76,55);fill-rule:nonzero;"/>
        <path d="M48.376,21.532C49.332,20.498 50.738,19.021 51.538,17.829C51.602,16.939 51.656,16.195 51.699,15.598L51.889,16.026L52.286,16.153C53.618,15.867 53.765,16.061 54.603,15.178L54.763,15.404L54.483,15.401L54.819,15.646L54.889,16.35C56.692,18.942 57.409,17.814 59.15,20.002L60.188,21.099L60.504,21.109L60.792,20.829C61.075,21.043 61.918,21.527 62.042,21.655L62.387,21.97C66.551,19.712 68.247,21.77 68.962,25.758C66.337,30.294 68.022,32.783 62.696,35.718C62.447,35.855 61.203,37.22 60.769,37.561C58.271,36.627 56.462,37.568 54.764,36.134C54.417,36.07 54.266,35.986 53.951,35.847C54.384,35.358 54.368,35.532 54.348,35.039C53.207,34.836 53.436,35.032 52.675,34.368C52.133,32.784 53.166,32.864 53.64,31.406L53.701,31.152C49.274,28.893 50.492,29.506 50.894,25.282C51.008,24.082 49.465,22.335 48.376,21.532Z" style="fill:rgb(58,32,25);fill-rule:nonzero;"/>
        <path d="M48.376,21.532C49.332,20.498 50.738,19.021 51.538,17.829C51.602,16.939 51.656,16.195 51.699,15.598L51.889,16.026L52.286,16.153C53.618,15.867 53.765,16.061 54.603,15.178L54.763,15.404L54.483,15.401L54.819,15.646L54.889,16.35C56.692,18.942 57.409,17.814 59.15,20.002C58.913,20.645 58.626,21.246 58.669,21.923L58.453,22.249C57.397,24.107 57.136,24.969 55.241,25.934L55.148,26.101C54.975,27.201 54.742,27.529 55.123,28.475C55.872,29.135 56.007,29.233 56.942,29.56L57.077,29.939C56.923,30.209 56.797,30.475 56.585,30.696C55.339,31.031 55.004,31.098 53.701,31.152C49.274,28.893 50.492,29.506 50.894,25.282C51.008,24.082 49.465,22.335 48.376,21.532Z" style="fill:rgb(122,84,60);fill-rule:nonzero;"/>
        <path d="M55.136,20.209L55.31,21.317L55.746,21.606C56.378,21.47 57.014,21.351 57.653,21.248C58.305,21.695 58.103,21.506 58.453,22.249C57.397,24.107 57.136,24.969 55.241,25.934L55.148,26.101C54.419,26.974 54.036,27.244 52.941,26.833C51.878,25.683 50.471,22.357 51.244,20.861C52.587,20.902 52.428,22.426 54.075,22.255C54.765,21.744 54.887,21.029 55.136,20.209Z" style="fill:rgb(145,111,97);fill-rule:nonzero;"/>
        <path d="M56.441,21.924C57.001,22.046 57.084,22.077 57.488,22.48L57.411,23.043C56.54,24.087 55.069,24.786 53.887,25.434C53.582,25.316 53.263,25.204 53.043,24.951C52.683,24.535 52.738,24.411 52.775,23.882C53.55,22.835 55.181,22.122 56.441,21.924Z" style="fill:rgb(163,129,108);fill-rule:nonzero;"/>
        <path d="M55.136,20.209C54.374,19.334 52.944,19.809 51.824,17.85C52.053,16.51 53.714,16.297 54.889,16.35C56.692,18.942 57.409,17.814 59.15,20.002C58.913,20.645 58.626,21.246 58.669,21.923L58.453,22.249C58.103,21.506 58.305,21.695 57.653,21.248C57.014,21.351 56.378,21.47 55.746,21.606L55.31,21.317L55.136,20.209Z" style="fill:rgb(139,103,91);fill-rule:nonzero;"/>
        <path d="M59.15,20.002L60.188,21.099L60.504,21.109L60.792,20.829C61.075,21.043 61.918,21.527 62.042,21.655C61.723,25.599 63.914,24.372 63.883,27.615L63.617,27.814L62.619,28.93C61.673,29.663 61.559,29.844 60.447,29.125C59.097,30.535 58.125,29.901 57.087,31.749L56.866,31.784L56.585,30.696C56.797,30.475 56.923,30.209 57.077,29.939L56.942,29.56C56.007,29.233 55.872,29.135 55.123,28.475C54.742,27.529 54.975,27.201 55.148,26.101L55.241,25.934C57.136,24.969 57.397,24.107 58.453,22.249L58.669,21.923C58.626,21.246 58.913,20.645 59.15,20.002Z" style="fill:rgb(113,76,55);fill-rule:nonzero;"/>
        <path d="M55.241,25.934C55.906,25.809 56.623,25.601 57.246,25.803C57.267,26.719 57.2,27.157 57.742,27.869C58.843,28.493 59.832,28.503 60.447,29.125C59.097,30.535 58.125,29.901 57.087,31.749L56.866,31.784L56.585,30.696C56.797,30.475 56.923,30.209 57.077,29.939L56.942,29.56C56.007,29.233 55.872,29.135 55.123,28.475C54.742,27.529 54.975,27.201 55.148,26.101L55.241,25.934Z" style="fill:rgb(113,76,55);fill-rule:nonzero;"/>
        <path d="M58.677,25.496C59.161,26.55 58.89,26.325 59.76,26.861C61.286,26.92 61.381,26.326 62.434,26.831C62.789,27.434 62.66,28.215 62.619,28.93C61.673,29.663 61.559,29.844 60.447,29.125C59.832,28.503 58.843,28.493 57.742,27.869C57.2,27.157 57.267,26.719 57.246,25.803C57.93,25.822 58.086,25.857 58.677,25.496Z" style="fill:rgb(122,84,60);fill-rule:nonzero;"/>
        <path d="M58.669,21.923C59.366,22.544 60.174,23.125 60.456,23.997C59.937,24.402 59.079,25.021 58.677,25.496C58.086,25.857 57.93,25.822 57.246,25.803C56.623,25.601 55.906,25.809 55.241,25.934C57.136,24.969 57.397,24.107 58.453,22.249L58.669,21.923Z" style="fill:rgb(145,109,81);fill-rule:nonzero;"/>
        <path d="M60.504,21.109L60.792,20.829C61.075,21.043 61.918,21.527 62.042,21.655C61.723,25.599 63.914,24.372 63.883,27.615L63.617,27.814L63.277,26.673C62.416,25.849 62.85,26.366 61.696,26.167C60.289,25.923 61.621,23.469 61.337,22.576C61.2,22.143 60.762,21.492 60.504,21.109Z" style="fill:rgb(93,59,45);fill-rule:nonzero;"/>
        <path d="M59.15,20.002L60.188,21.099C60.727,22.222 60.59,22.78 60.456,23.997C60.174,23.125 59.366,22.544 58.669,21.923C58.626,21.246 58.913,20.645 59.15,20.002Z" style="fill:rgb(132,96,83);fill-rule:nonzero;"/>
        <path d="M56.585,30.696L56.866,31.784L57.087,31.749L57.776,32.147L57.721,32.532L56.89,32.946L57.537,33.095C56.311,33.886 55.168,34.056 54.926,35.171C54.859,35.49 54.805,35.811 54.764,36.134C54.417,36.07 54.266,35.986 53.951,35.847C54.384,35.358 54.368,35.532 54.348,35.039C53.207,34.836 53.436,35.032 52.675,34.368C52.133,32.784 53.166,32.864 53.64,31.406L53.701,31.152C55.004,31.098 55.339,31.031 56.585,30.696Z" style="fill:rgb(85,51,37);fill-rule:nonzero;"/>
        <path d="M56.585,30.696L56.866,31.784C55.996,32.21 55.673,32.393 54.73,32.578C53.888,32.203 54.147,32.349 53.64,31.406L53.701,31.152C55.004,31.098 55.339,31.031 56.585,30.696Z" style="fill:rgb(127,86,49);fill-rule:nonzero;"/>
        <path d="M63.883,27.615C63.969,28.214 64.239,29.175 63.854,29.441C61.773,30.882 59.678,31.582 57.537,33.095L56.89,32.946L57.721,32.532L57.776,32.147L57.087,31.749C58.125,29.901 59.097,30.535 60.447,29.125C61.559,29.844 61.673,29.663 62.619,28.93L63.617,27.814L63.883,27.615Z" style="fill:rgb(85,51,37);fill-rule:nonzero;"/>
        <path d="M45.544,25.892C46.202,25.95 46.821,25.993 47.447,26.22C47.747,26.516 48.136,26.874 48.243,27.294C48.479,28.222 47.933,29.357 47.448,30.116C47.206,30.147 46.959,30.18 46.715,30.185C45.977,30.2 45.684,29.928 45.181,29.448C44.67,28.215 45.072,27.059 45.544,25.892Z" style="fill:rgb(85,51,37);fill-rule:nonzero;"/>
        <path d="M38.128,55.997C39.485,56.479 39.618,56.621 40.283,57.973C41.557,60.563 44.851,63.062 44.871,65.985C44.795,65.934 44.719,65.884 44.643,65.833C41.574,62.834 38.791,60.236 38.128,55.997Z" style="fill:rgb(229,221,218);fill-rule:nonzero;"/>
        <path d="M61.357,44.971C60.315,44.823 57.286,43.05 57.69,41.609C59.036,40.866 61.325,41.807 62.608,41.846C63.201,41.864 64.639,41.755 65.379,41.742C63.957,42.36 61.158,43.154 61.357,44.971Z" style="fill:rgb(229,221,218);fill-rule:nonzero;"/>
        <path d="M41.485,47.818C40.718,47.784 40.888,47.91 40.45,47.466C40.757,46.471 42.123,45.934 42.821,45.176C43.356,44.596 43.231,44.024 43.749,43.26C44.066,44.144 43.455,44.34 43.658,45.785L44.071,46.092C44.733,46.044 44.846,46.008 45.389,45.627L45.518,45.535L45.776,45.838L45.894,45.512C47.408,45.541 47.369,45.457 48.641,46.276L48.926,46.177L49.435,47.113C49.046,48.338 48.796,48.16 49.031,49.257C49.403,48.671 50.042,47.614 50.614,47.238C51.106,47.5 51.279,47.471 51.429,47.893C51.274,48.563 50.818,49.554 50.788,49.937C51.127,49.289 51.375,48.608 52.028,48.333C52.646,48.447 52.764,48.636 53.181,49.081C54.925,48.578 55.795,44.729 58.725,46.578C59.583,47.119 61.77,48.797 61.936,49.8L62.318,49.376C64.36,50.999 65.092,51.165 65.563,54.174C66.168,58.04 63.664,60.716 61.743,63.725C61.66,63.854 61.407,64.053 61.278,64.143C60.327,64.932 56.155,64.61 55.037,63.513C54.912,63.015 54.903,62.867 54.633,62.44C53.49,62.595 53.242,63.975 51.334,64.033C50.645,63.474 50.85,63.675 50.575,62.715C50.211,63.386 50.43,63.815 50.547,64.687L50.24,64.756C49.658,64.285 49.471,64.138 48.709,64.113C47.938,63.514 47.781,63.329 47.175,62.554C46.16,61.766 45.86,61.273 45.13,60.241C42.234,57.763 39.581,55.748 42.177,51.916L42.589,51.84L42.937,52.47C43.185,52.228 43.542,52.136 43.875,52.228C44.078,52.019 44.206,51.722 44.344,51.458C44.168,50.604 44.125,50.453 44.263,49.599C43.593,48.72 43.791,48.593 43.605,47.44L42.782,47.003L41.485,47.818Z" style="fill:rgb(58,32,25);fill-rule:nonzero;"/>
        <path d="M41.485,47.818C40.718,47.784 40.888,47.91 40.45,47.466C40.757,46.471 42.123,45.934 42.821,45.176C43.356,44.596 43.231,44.024 43.749,43.26C44.066,44.144 43.455,44.34 43.658,45.785L44.071,46.092C44.733,46.044 44.846,46.008 45.389,45.627L45.518,45.535L45.776,45.838L45.894,45.512C47.408,45.541 47.369,45.457 48.641,46.276L48.926,46.177L49.435,47.113C49.046,48.338 48.796,48.16 49.031,49.257C49.403,48.671 50.042,47.614 50.614,47.238C51.106,47.5 51.279,47.471 51.429,47.893C51.274,48.563 50.818,49.554 50.788,49.937L50.873,50.01C52.818,51.694 51.722,52.193 53.13,53.018C54.099,52.863 54.712,52.427 55.468,53.147C55.919,53.954 56.141,54.219 56.004,55.11C55.227,56.12 53.622,55.87 53.837,57.569C53.969,58.615 54.437,58.501 54.048,59.796C52.001,60.639 51.737,60.827 50.575,62.715C50.211,63.386 50.43,63.815 50.547,64.687L50.24,64.756C49.658,64.285 49.471,64.138 48.709,64.113C47.938,63.514 47.781,63.329 47.175,62.554C46.16,61.766 45.86,61.273 45.13,60.241C42.234,57.763 39.581,55.748 42.177,51.916L42.589,51.84L42.937,52.47C43.185,52.228 43.542,52.136 43.875,52.228C44.078,52.019 44.206,51.722 44.344,51.458C44.168,50.604 44.125,50.453 44.263,49.599C43.593,48.72 43.791,48.593 43.605,47.44L42.782,47.003L41.485,47.818Z" style="fill:rgb(93,59,45);fill-rule:nonzero;"/>
        <path d="M49.031,49.257C49.403,48.671 50.042,47.614 50.614,47.238C51.106,47.5 51.279,47.471 51.429,47.893C51.274,48.563 50.818,49.554 50.788,49.937L50.873,50.01C52.818,51.694 51.722,52.193 53.13,53.018C54.099,52.863 54.712,52.427 55.468,53.147C55.919,53.954 56.141,54.219 56.004,55.11C55.227,56.12 53.622,55.87 53.837,57.569C53.969,58.615 54.437,58.501 54.048,59.796C52.001,60.639 51.737,60.827 50.575,62.715C50.211,63.386 50.43,63.815 50.547,64.687L50.24,64.756C49.658,64.285 49.471,64.138 48.709,64.113C47.938,63.514 47.781,63.329 47.175,62.554C46.335,60.496 46.022,58.53 48.963,58.415C48.985,57.744 48.913,56.545 49.318,56.087C50.06,56.85 50.701,58.085 51.495,58.337C52.545,58.14 52.967,57.736 52.962,56.623C52.955,54.929 51.105,55.172 50.3,54.353C49.349,53.385 48.882,50.91 48.796,49.583L49.031,49.257Z" style="fill:rgb(77,46,37);fill-rule:nonzero;"/>
        <path d="M41.485,47.818C40.718,47.784 40.888,47.91 40.45,47.466C40.757,46.471 42.123,45.934 42.821,45.176C43.356,44.596 43.231,44.024 43.749,43.26C44.066,44.144 43.455,44.34 43.658,45.785L44.071,46.092C44.733,46.044 44.846,46.008 45.389,45.627L45.518,45.535L45.776,45.838L45.894,45.512C47.408,45.541 47.369,45.457 48.641,46.276L48.926,46.177L49.435,47.113C49.046,48.338 48.796,48.16 49.031,49.257L48.796,49.583C48.449,50.403 47.909,52.46 47.528,52.87L45.951,51.921C45.716,51.884 45.358,51.77 45.117,51.701C44.737,51.025 44.742,50.617 44.662,49.849L44.263,49.599C43.593,48.72 43.791,48.593 43.605,47.44L42.782,47.003L41.485,47.818Z" style="fill:rgb(145,111,97);fill-rule:nonzero;"/>
        <path d="M48.641,46.276L48.926,46.177L49.435,47.113C49.046,48.338 48.796,48.16 49.031,49.257L48.796,49.583C48.449,50.403 47.909,52.46 47.528,52.87L45.951,51.921C46.518,50.793 47.075,49.661 47.624,48.525C47.814,48.309 48.485,47.871 48.755,47.684C49.066,46.969 48.983,47.2 48.641,46.276Z" style="fill:rgb(122,84,60);fill-rule:nonzero;"/>
        <path d="M45.894,45.512C47.408,45.541 47.369,45.457 48.641,46.276C48.983,47.2 49.066,46.969 48.755,47.684C48.485,47.871 47.814,48.309 47.624,48.525C47.41,47.336 46.599,46.642 45.776,45.838L45.894,45.512Z" style="fill:rgb(132,96,83);fill-rule:nonzero;"/>
        <path d="M45.13,60.241C44.762,59.124 44.305,58.336 44.676,57.302C45.905,56.599 46.869,58.009 48.963,58.415C46.022,58.53 46.335,60.496 47.175,62.554C46.16,61.766 45.86,61.273 45.13,60.241Z" style="fill:rgb(85,51,37);fill-rule:nonzero;"/>
        <path d="M44.263,49.599L44.662,49.849C44.742,50.617 44.737,51.025 45.117,51.701C45.358,51.77 45.716,51.884 45.951,51.921L47.528,52.87C45.651,53.617 46.618,54.203 44.16,53.974C44.475,53.762 44.638,53.385 44.577,53.01C44.516,52.635 44.242,52.329 43.875,52.228C44.078,52.019 44.206,51.722 44.344,51.458C44.168,50.604 44.125,50.453 44.263,49.599Z" style="fill:rgb(103,66,53);fill-rule:nonzero;"/>
        <path d="M43.875,52.228C44.242,52.329 44.516,52.635 44.577,53.01C44.638,53.385 44.475,53.762 44.16,53.974C43.742,54.255 43.18,54.171 42.862,53.781C42.545,53.39 42.577,52.822 42.937,52.47C43.185,52.228 43.542,52.136 43.875,52.228Z" style="fill:rgb(113,76,55);fill-rule:nonzero;"/>
        <path d="M61.936,49.8L62.318,49.376C64.36,50.999 65.092,51.165 65.563,54.174C66.168,58.04 63.664,60.716 61.743,63.725C61.66,63.854 61.407,64.053 61.278,64.143C61.572,62.274 62.781,59.93 63.648,58.224C62.391,58.07 60.406,58.085 59.085,58.059C59.146,56.763 59.122,54.657 60.04,53.701C61.794,53.588 61.986,55.951 63.245,56.407C63.661,55.903 63.752,55.824 64.374,55.633L64.519,55.59C65.765,51.947 63.098,54.34 61.936,49.8Z" style="fill:rgb(77,46,37);fill-rule:nonzero;"/>
        <path d="M55.468,53.147C56.922,54.163 57.421,56.919 57.033,58.544L56.681,59.01C54.908,59.037 55.391,58.791 54.048,59.796C54.437,58.501 53.969,58.615 53.837,57.569C53.622,55.87 55.227,56.12 56.004,55.11C56.141,54.219 55.919,53.954 55.468,53.147Z" style="fill:rgb(58,32,25);fill-rule:nonzero;"/>
        <path d="M26.744,25.203C29.366,24.977 31.979,24.124 34.101,25.787C35.566,26.649 35.954,27.036 36.565,28.669C37.819,31.015 38.855,36.761 37.926,39.346C37.431,40.724 36.061,43.62 34.718,44.193C32.463,45.156 32.739,44.685 30.719,46.28C29.944,45.812 30.162,46.082 29.875,45.196C28.375,44.095 28.704,42.947 27.308,42.138C26.382,42.029 26.09,41.933 25.726,41.118C25.847,40.342 25.875,39.914 26.23,39.215C25.075,38.953 24.584,38.56 23.605,39.423C24.159,39.93 24.45,40.115 24.593,40.85C24.222,41.544 23.89,41.916 23.391,42.524C23.828,43.75 24.287,43.077 24.038,44.166C22.466,45.173 20.352,42.726 19.497,41.487C18.505,39.691 16.994,36.706 19.372,35.278L19.762,35.697C20.934,35.018 21.436,35.626 22.967,34.833C21.937,34.888 20.948,35.032 20.07,34.532C19.791,33.215 21.152,33.303 21.024,31.353C20.395,30.603 20.68,30.751 19.802,30.44C18.022,31.88 18.994,34.96 17.172,35.801L17.104,35.423C19.171,33.321 16.718,31.267 20.914,26.777L23.073,25.983C23.916,25.505 25.758,25.247 26.744,25.203Z" style="fill:rgb(58,32,25);fill-rule:nonzero;"/>
        <path d="M26.744,25.203C29.366,24.977 31.979,24.124 34.101,25.787C35.566,26.649 35.954,27.036 36.565,28.669C33.616,27.284 33.797,27.412 31.465,29.428L30.004,29.541C28.544,30.235 27.573,30.54 26.492,31.764C24.514,35.851 28.534,37.465 26.23,39.215C25.075,38.953 24.584,38.56 23.605,39.423C24.159,39.93 24.45,40.115 24.593,40.85C24.222,41.544 23.89,41.916 23.391,42.524C23.828,43.75 24.287,43.077 24.038,44.166C22.466,45.173 20.352,42.726 19.497,41.487C18.505,39.691 16.994,36.706 19.372,35.278L19.762,35.697C20.934,35.018 21.436,35.626 22.967,34.833C21.937,34.888 20.948,35.032 20.07,34.532C19.791,33.215 21.152,33.303 21.024,31.353C20.395,30.603 20.68,30.751 19.802,30.44C18.022,31.88 18.994,34.96 17.172,35.801L17.104,35.423C19.171,33.321 16.718,31.267 20.914,26.777L23.073,25.983C23.916,25.505 25.758,25.247 26.744,25.203Z" style="fill:rgb(122,84,60);fill-rule:nonzero;"/>
        <path d="M26.744,25.203C29.366,24.977 31.979,24.124 34.101,25.787C35.566,26.649 35.954,27.036 36.565,28.669C33.616,27.284 33.797,27.412 31.465,29.428L30.004,29.541C28.544,30.235 27.573,30.54 26.492,31.764L25.992,31.148L24.956,31.829C24.544,30.955 23.927,28.853 23.911,27.869C24.221,26.911 24.392,26.771 25.125,26.061C25.867,25.871 26.054,25.834 26.623,25.316L26.744,25.203Z" style="fill:rgb(103,66,53);fill-rule:nonzero;"/>
        <path d="M30.004,29.541C31.047,27.452 30.368,26.66 31.048,25.758C31.824,25.318 33.157,25.653 34.101,25.787C35.566,26.649 35.954,27.036 36.565,28.669C33.616,27.284 33.797,27.412 31.465,29.428L30.004,29.541Z" style="fill:rgb(85,51,37);fill-rule:nonzero;"/>
        <path d="M23.073,25.983C22.702,28.476 22.81,28.575 24.198,30.721C24.153,31.89 24.21,33.163 23.713,34.199C23.517,34.378 23.181,34.713 22.967,34.833C21.937,34.888 20.948,35.032 20.07,34.532C19.791,33.215 21.152,33.303 21.024,31.353C20.395,30.603 20.68,30.751 19.802,30.44C18.022,31.88 18.994,34.96 17.172,35.801L17.104,35.423C19.171,33.321 16.718,31.267 20.914,26.777L23.073,25.983Z" style="fill:rgb(153,120,103);fill-rule:nonzero;"/>
        <path d="M19.497,41.487C19.959,40.182 20.612,39.373 21.913,38.822L23.605,39.423C24.159,39.93 24.45,40.115 24.593,40.85C24.222,41.544 23.89,41.916 23.391,42.524C23.828,43.75 24.287,43.077 24.038,44.166C22.466,45.173 20.352,42.726 19.497,41.487Z" style="fill:rgb(77,46,37);fill-rule:nonzero;"/>
        <path d="M19.497,41.487C18.505,39.691 16.994,36.706 19.372,35.278L19.762,35.697C21.907,35.854 22.097,35.748 23.523,37.349C22.957,37.942 22.801,37.997 22.053,38.35L21.913,38.822C20.612,39.373 19.959,40.182 19.497,41.487Z" style="fill:rgb(93,59,45);fill-rule:nonzero;"/>
        <path d="M24.956,31.829L25.992,31.148L26.492,31.764C24.514,35.851 28.534,37.465 26.23,39.215C25.075,38.953 24.584,38.56 23.605,39.423L21.913,38.822L22.053,38.35C22.801,37.997 22.957,37.942 23.523,37.349C24.168,38.017 24.1,38.196 24.784,38.212C26.006,36.984 24.488,32.696 24.956,31.829Z" style="fill:rgb(113,76,55);fill-rule:nonzero;"/>
        <path d="M30.004,29.541L31.465,29.428C30.322,31.809 29.49,31.776 27.071,32.909C29.59,32.984 32.036,32.937 34.549,32.83C34.863,32.817 35.359,33.246 35.599,33.469C36.352,35.437 34.854,36.448 33.151,37.142C32.036,37.596 30.498,37.161 29.343,36.912C27.43,40.659 27.831,41.473 29.875,45.196C28.375,44.095 28.704,42.947 27.308,42.138C26.382,42.029 26.09,41.933 25.726,41.118C25.847,40.342 25.875,39.914 26.23,39.215C28.534,37.465 24.514,35.851 26.492,31.764C27.573,30.54 28.544,30.235 30.004,29.541Z" style="fill:rgb(77,46,37);fill-rule:nonzero;"/>
        <path d="M31.197,38.679L32.392,39.204C32.594,39.548 32.77,39.724 32.739,40.133C32.679,40.94 31.58,41.991 31,42.511C30.391,42.001 29.478,41.418 29.233,40.64C29.581,39.715 30.427,39.282 31.197,38.679Z" style="fill:rgb(70,41,33);fill-rule:nonzero;"/>
        <path d="M45.862,45.218C45.12,44.955 45.357,45.069 44.811,44.455C44.177,42.252 46.088,41.589 47.959,41.939C48.682,41.995 49.745,41.908 50.197,42.506C51.309,43.975 50.16,45.351 48.926,46.177L48.641,46.276C47.369,45.457 47.408,45.541 45.894,45.512L45.862,45.218Z" style="fill:rgb(93,59,45);fill-rule:nonzero;"/>
        <path d="M47.959,41.939C48.682,41.995 49.745,41.908 50.197,42.506C51.309,43.975 50.16,45.351 48.926,46.177L48.641,46.276C47.369,45.457 47.408,45.541 45.894,45.512L45.862,45.218C47.149,45.263 47.63,45.467 48.425,44.398C48.544,43.372 48.304,42.894 47.959,41.939Z" style="fill:rgb(103,66,53);fill-rule:nonzero;"/>
        <path d="M27.308,42.138C28.704,42.947 28.375,44.095 29.875,45.196C30.162,46.082 29.944,45.812 30.719,46.28C30.469,46.298 30.248,46.313 30.045,46.442C29.283,46.928 27.331,46.721 26.324,46.662C24.735,45.652 26.649,43.611 27.233,42.305L27.308,42.138Z" style="fill:rgb(85,51,37);fill-rule:nonzero;"/>
        <path d="M44.024,35.739C44.49,35.739 44.989,35.729 45.447,35.815C46.109,35.938 46.513,36.364 46.852,36.91C47.124,37.793 46.853,38.504 46.593,39.347C46.254,39.593 45.896,39.79 45.531,39.993C45.184,39.935 44.844,39.947 44.589,39.684C43.744,38.819 44.005,36.856 44.024,35.739Z" style="fill:white;fill-rule:nonzero;"/>
        <path d="M42.782,47.003C43.619,48.31 44.049,51.423 41.91,51.125C40.787,50.004 41.344,49.149 41.485,47.818L42.782,47.003Z" style="fill:rgb(93,59,45);fill-rule:nonzero;"/>
    </g>
    <defs>
        <linearGradient id="_Linear1" x1="0" y1="0" x2="1" y2="0" gradientUnits="userSpaceOnUse" gradientTransform="matrix(-9.91562,-2.603695,2.603695,-9.91562,140.80016,42.75985)"><stop offset="0" style="stop-color:rgb(155,119,104);stop-opacity:1"/><stop offset="1" style="stop-color:rgb(126,90,78);stop-opacity:1"/></linearGradient>
    </defs>
</svg>
