<?xml version="1.0" encoding="UTF-8" standalone="no"?>
<!DOCTYPE svg PUBLIC "-//W3C//DTD SVG 1.1//EN" "http://www.w3.org/Graphics/SVG/1.1/DTD/svg11.dtd">
<svg width="100%" height="100%" viewBox="0 0 150 49" version="1.1" xmlns="http://www.w3.org/2000/svg" xmlns:xlink="http://www.w3.org/1999/xlink" xml:space="preserve" xmlns:serif="http://www.serif.com/" style="fill-rule:evenodd;clip-rule:evenodd;stroke-linejoin:round;stroke-miterlimit:2;">
    <g transform="matrix(1,0,0,1,-10.88032,-171.204094)">
        <path d="M11.863,192.119C12.175,191.282 13.392,187.837 13.822,187.348C16.672,184.108 21.556,180.878 25.451,178.837C27.699,177.659 35.807,177.974 38.692,176.983C39.931,176.558 43.41,176.934 44.901,176.646C50.231,175.832 55.59,175.695 60.944,175.177C61.929,175.082 63.4,173.766 64.517,173.336C69.258,171.408 73.538,171.459 78.517,171.212C81.871,171.045 86.428,173.581 88.848,173.406C94.058,173.03 95.318,172.102 100.817,173.303C105.317,174.286 110.702,173.475 114.801,176.677C120.094,176.429 125.341,177.486 130.406,178.799C131.712,179.137 134.737,177.999 136.213,178.182C140.989,178.979 147.407,182.527 151.623,184.812C152.275,185.166 156.033,191.021 157.615,190.664C157.735,190.637 159.274,195.577 159.113,196.257C159.583,197.219 159.59,197.501 159.706,198.578C160.122,197.896 160.361,197.379 160.696,196.652C161.182,198.304 158.717,202.752 157.306,203.625L157.744,204.053L157.494,204.345C155.599,207.154 151.765,210.867 148.355,211.803C146.872,212.21 146.07,211.908 144.38,212.915L143.51,212.457C142.115,213.11 140.325,214.648 139.061,215.066C135.261,216.321 131.058,216.282 127.096,216.65C120.675,217.218 114.353,218.683 107.872,218.406C106.579,218.35 103.79,218.531 102.778,218.323C95.769,216.885 90.9,216.287 83.971,218.666C83.451,218.844 82.368,219.108 81.799,219.256C70.289,219.126 58.686,218.804 47.245,217.494C45.149,217.254 42.734,217.641 40.681,217.068C38.945,216.501 36.937,215.9 35.114,215.678C34.668,215.635 31.193,214.947 30.785,214.783L31.114,214.343C30.386,213.479 29.004,213.769 27.994,213.878L27.539,213.189L26.93,213.077L26.598,213.472C20.507,211.662 14.751,210.724 11.545,204.472C10.614,202.655 12.356,201.487 11.281,198.974C10.381,196.868 11.184,194.134 11.863,192.119Z" style="fill:rgb(229,221,218);fill-rule:nonzero;"/>
        <path d="M35.114,215.678C34.668,215.635 31.193,214.947 30.785,214.783L31.114,214.343C30.386,213.479 29.004,213.769 27.994,213.878L27.539,213.189L26.93,213.077L26.598,213.472C20.507,211.662 14.751,210.724 11.545,204.472C10.614,202.655 12.356,201.487 11.281,198.974C10.381,196.868 11.184,194.134 11.863,192.119C11.425,197.134 11.368,200.158 14.738,204.479C16.529,206.777 18.454,207.151 19.268,209.566C20.88,211.066 25.818,211.463 27.906,212.321C32.669,214.278 37.146,215.367 42.251,215.649C43.779,215.734 45.339,216.367 47.107,216.427C43.815,217.435 39.507,215.468 35.114,215.678Z" style="fill:rgb(233,229,231);fill-rule:nonzero;"/>
        <path d="M159.113,196.257C159.583,197.219 159.59,197.501 159.706,198.578C160.122,197.896 160.361,197.379 160.696,196.652C161.182,198.304 158.717,202.752 157.306,203.625L157.744,204.053L157.494,204.345C155.875,204.99 152.397,210.008 149.298,210.685C148.416,210.878 145.305,212.365 144.282,211.914C145.354,211.128 149.869,209.69 151.242,208.764C151.744,208.425 151.672,207.619 152.437,206.963C156.581,203.409 158.34,201.832 159.113,196.257Z" style="fill:rgb(233,229,231);fill-rule:nonzero;"/>
        <path d="M52.49,177.849C54.878,176.44 59.088,177.148 61.76,176.749C62.502,176.638 64.274,175.326 65.427,174.906C69.108,173.565 73.455,172.754 77.34,172.244C77.766,172.188 80.142,172.659 80.576,172.749L82.18,173.56C83.101,173.842 85.819,174.511 86.378,175.014C87.224,175.09 89.812,175.344 90.409,175.201C94.716,174.171 96.398,172.797 100.569,175.351C103.239,176.986 107.251,174.791 110.844,176.463C112.633,177.121 113.014,177.593 114.4,178.975L113.768,179.794C112.923,181.025 112.574,182.53 112.792,184.007C113.307,184.628 113.046,184.45 113.769,184.724L113.73,184.937C115.382,186.306 115.989,185.379 117.537,185.865L117.842,185.56C118.256,185.019 119.694,184.098 120.317,183.664L119.945,183.105C119.41,182.307 119.059,182.509 118.153,182.466C118.225,182.382 118.268,182.33 118.37,182.278C119.803,181.54 120.389,180.465 121.218,179.134C122.825,179.11 124.998,178.945 126.42,179.572C126.67,179.646 128.093,180.045 128.238,180.115C132.995,182.271 134.91,177.251 143.568,182.688L143.92,182.899C145.214,183.6 146.914,184.543 148.296,184.95C150.157,185.64 157.589,194.479 154.088,196.381C149.584,199.06 152.382,203.254 144.164,205.081C140.84,206.262 137.705,207.997 134.314,208.998C131.39,209.862 127.716,209.791 124.663,210.172C122.666,210.421 120.668,210.952 118.675,211.131C117.983,211.193 117.213,211.213 116.544,211.011C112.584,211.613 108.024,212.113 104.038,211.96C101.92,211.878 99.796,211.525 97.688,211.312C95.882,211.13 94.022,211.058 92.251,210.645C88.309,209.375 86.093,211.351 82.373,211.971C79.731,212.412 76.908,212.474 74.232,212.606C71.677,212.732 69.112,212.336 66.559,212.253C58.399,211.985 45.051,212.169 37.529,209.761C37.137,209.852 36.862,209.693 36.49,209.567C36.025,209.586 35.552,209.582 35.09,209.634C32.371,209.939 28.38,208.443 25.926,207.269C25.053,206.851 24.241,206.164 23.293,205.949C23.253,205.94 23.213,205.933 23.173,205.925L22.863,205.445C19.693,205.624 17.002,204.5 14.75,202.161C12.969,200.312 12.967,199.197 13.086,196.74C12.243,195.468 13.194,192.25 13.784,190.922C14.681,189.828 14.924,188.836 15.369,187.499C17.146,184.896 20.362,183.95 22.954,182.228C24.131,181.447 25.037,180.721 26.136,179.828C27.856,179.604 31.463,180.266 32.317,180.014C37.427,178.506 41.193,177.654 46.541,178.407C48.444,178.675 50.202,179.096 52.099,178.281L52.49,177.849Z" style="fill:rgb(45,25,20);fill-rule:nonzero;"/>
        <path d="M52.49,177.849L54.463,178.055C55.798,178.327 55.942,178.151 56.307,179.563C56.566,180.087 56.968,180.615 57.507,180.869C57.549,181.721 57.631,182.758 57.634,183.593L57.896,184.126C57.105,185.834 57.151,184.677 56.425,185.858C55.145,187.941 56.151,190.191 53.486,191.148C53.355,191.194 53.222,191.238 53.089,191.279C51.285,192.688 50.55,192.879 50.135,195C50.014,194.717 49.957,193.717 49.924,193.348C47.995,193.166 48.907,192.454 46.652,192.089C46.153,192.324 44.913,192.843 44.858,193.337C44.714,194.626 44.167,195.665 43.814,196.786C42.347,197.836 41.645,198.01 39.926,198.03C40.656,198.542 41.431,198.948 41.686,199.788C41.506,200.784 41.105,201.177 40.263,201.844C39.377,201.844 39.679,201.722 39.011,202.26C38.594,203.265 37.944,204.574 37.929,205.623C38.326,206.195 38.09,206.026 38.881,206.196C40.263,205.673 42.216,204.557 43.083,206.425C43.366,207.014 43.477,207.26 44.146,207.468C45.708,207.953 47.549,207.442 49.063,208.304L49.029,208.708C46.821,210.376 40.434,209.33 37.529,209.761C37.137,209.852 36.862,209.693 36.49,209.567C36.025,209.586 35.552,209.582 35.09,209.634C32.371,209.939 28.38,208.443 25.926,207.269C25.053,206.851 24.241,206.164 23.293,205.949C23.253,205.94 23.213,205.933 23.173,205.925L22.863,205.445C19.693,205.624 17.002,204.5 14.75,202.161C12.969,200.312 12.967,199.197 13.086,196.74C12.243,195.468 13.194,192.25 13.784,190.922C14.681,189.828 14.924,188.836 15.369,187.499C17.146,184.896 20.362,183.95 22.954,182.228C24.131,181.447 25.037,180.721 26.136,179.828C27.856,179.604 31.463,180.266 32.317,180.014C37.427,178.506 41.193,177.654 46.541,178.407C48.444,178.675 50.202,179.096 52.099,178.281L52.49,177.849Z" style="fill:rgb(45,25,20);fill-rule:nonzero;"/>
        <path d="M52.49,177.849L54.463,178.055C55.798,178.327 55.942,178.151 56.307,179.563C56.566,180.087 56.968,180.615 57.507,180.869C57.549,181.721 57.631,182.758 57.634,183.593L57.896,184.126C57.105,185.834 57.151,184.677 56.425,185.858C55.145,187.941 56.151,190.191 53.486,191.148C53.355,191.194 53.222,191.238 53.089,191.279C51.285,192.688 50.55,192.879 50.135,195C50.014,194.717 49.957,193.717 49.924,193.348C47.995,193.166 48.907,192.454 46.652,192.089C46.153,192.324 44.913,192.843 44.858,193.337C44.714,194.626 44.167,195.665 43.814,196.786C42.347,197.836 41.645,198.01 39.926,198.03C38.068,197.052 38.381,199.448 36.424,199.212C35.671,197.812 37.309,196.397 36.479,194.966C35.589,194.436 35.969,194.515 34.968,194.611C33.422,195.99 32.837,196.569 30.733,195.862L30.116,195.137C30.198,194.321 30.046,194.075 29.72,193.312L28.938,193.615C29.638,192.867 30.237,192.57 29.802,191.627C28.948,191.215 27.997,191.223 27.047,191.158C25.688,191.062 25.502,191.556 24.252,192.018L24.211,191.688C25.18,190.46 26.261,188.149 27.39,186.503C28.061,186.461 29.423,187.152 29.909,187.525C30.591,187.053 31.11,187.092 31.948,187.035C32.46,186.974 33.245,186.796 33.776,186.694L33.763,186.535L34.08,185.663C34.108,185.026 34.147,185.187 34.755,184.609L34.679,184.07C33.787,184.159 33.418,184.098 32.522,183.986C31.655,183.881 31.549,183.826 30.79,183.388L30.202,183.153C29.794,183.463 29.851,183.323 29.746,183.732L29.178,183.786L28.906,183.15C28.254,182.799 27.079,182.928 26.293,182.947C26.885,181.955 28.051,181.452 28.146,180.653C27.428,179.982 27.157,180.08 26.136,179.828C27.856,179.604 31.463,180.266 32.317,180.014C37.427,178.506 41.193,177.654 46.541,178.407C48.444,178.675 50.202,179.096 52.099,178.281L52.49,177.849Z" style="fill:rgb(140,96,61);fill-rule:nonzero;"/>
        <path d="M52.49,177.849L54.463,178.055C55.798,178.327 55.942,178.151 56.307,179.563C56.566,180.087 56.968,180.615 57.507,180.869C57.549,181.721 57.631,182.758 57.634,183.593L57.896,184.126C57.105,185.834 57.151,184.677 56.425,185.858C55.145,187.941 56.151,190.191 53.486,191.148C53.355,191.194 53.222,191.238 53.089,191.279C52.216,191.209 51.474,191.115 50.877,190.491C50.498,189.724 50.674,189.336 50.88,188.485L50.807,188.251L50.373,188.141C48.292,186.487 48.593,187.272 46.175,187.15C44.51,187.066 44.337,185.868 43.395,184.703C42.492,184.163 42.156,184.281 41.089,184.446C40.123,184.044 39.241,184.313 38.042,183.839L36.797,184.184C35.89,183.764 35.561,183.573 34.679,184.07C33.787,184.159 33.418,184.098 32.522,183.986C31.655,183.881 31.549,183.826 30.79,183.388L30.202,183.153C29.794,183.463 29.851,183.323 29.746,183.732L29.178,183.786L28.906,183.15C28.254,182.799 27.079,182.928 26.293,182.947C26.885,181.955 28.051,181.452 28.146,180.653C27.428,179.982 27.157,180.08 26.136,179.828C27.856,179.604 31.463,180.266 32.317,180.014C37.427,178.506 41.193,177.654 46.541,178.407C48.444,178.675 50.202,179.096 52.099,178.281L52.49,177.849Z" style="fill:rgb(145,109,81);fill-rule:nonzero;"/>
        <path d="M52.49,177.849L54.463,178.055C55.798,178.327 55.942,178.151 56.307,179.563C56.566,180.087 56.968,180.615 57.507,180.869C57.549,181.721 57.631,182.758 57.634,183.593L57.896,184.126C57.105,185.834 57.151,184.677 56.425,185.858C55.145,187.941 56.151,190.191 53.486,191.148C53.355,191.194 53.222,191.238 53.089,191.279C52.216,191.209 51.474,191.115 50.877,190.491C50.498,189.724 50.674,189.336 50.88,188.485L51.073,188.255C51.068,187.039 50.385,187.885 49.56,186.698C49.887,186.137 50.354,186.006 50.953,185.74C52.484,185.856 52.569,185.723 53.609,184.692C53.071,184.417 52.523,184.295 51.941,184.133L51.558,184.195C49.689,183.513 51.675,182.697 49.371,181.784L48.928,181.759L49.303,181.383C51.166,181.045 51.926,180.083 52.099,178.281L52.49,177.849Z" style="fill:url(#_Linear1);fill-rule:nonzero;"/>
        <path d="M52.49,177.849L54.463,178.055L53.339,178.757L52.52,179.208C52.288,180.501 53.646,182.388 52.455,183.87L51.941,184.133L51.558,184.195C49.689,183.513 51.675,182.697 49.371,181.784L48.928,181.759L49.303,181.383C51.166,181.045 51.926,180.083 52.099,178.281L52.49,177.849Z" style="fill:rgb(140,96,61);fill-rule:nonzero;"/>
        <path d="M51.941,184.133L52.455,183.87C53.646,182.388 52.288,180.501 52.52,179.208L53.339,178.757C53.428,182.372 55.642,181.577 53.609,184.692C53.071,184.417 52.523,184.295 51.941,184.133Z" style="fill:rgb(93,59,45);fill-rule:nonzero;"/>
        <path d="M56.307,179.563C56.566,180.087 56.968,180.615 57.507,180.869C57.549,181.721 57.631,182.758 57.634,183.593C57.153,182.774 56.392,182.497 55.652,181.417C55.634,180.311 55.627,180.654 56.307,179.563Z" style="fill:rgb(93,59,45);fill-rule:nonzero;"/>
        <path d="M40.571,182.744C42.233,181.89 42.889,179.76 44.852,180.113C45.591,180.623 45.659,181.129 45.937,182.002C47.987,182.202 47.034,182.143 48.45,183.401C49.105,182.932 49.042,182.652 49.371,181.784C51.675,182.697 49.689,183.513 51.558,184.195L51.941,184.133C52.523,184.295 53.071,184.417 53.609,184.692C52.569,185.723 52.484,185.856 50.953,185.74C50.354,186.006 49.887,186.137 49.56,186.698C50.385,187.885 51.068,187.039 51.073,188.255L50.88,188.485L50.807,188.251L50.373,188.141C48.292,186.487 48.593,187.272 46.175,187.15C44.51,187.066 44.337,185.868 43.395,184.703C42.492,184.163 42.156,184.281 41.089,184.446C40.123,184.044 39.241,184.313 38.042,183.839C37.503,183.725 36.97,183.648 36.495,183.369C36.999,182.911 39.707,182.817 40.571,182.744Z" style="fill:url(#_Linear2);fill-rule:nonzero;"/>
        <path d="M49.371,181.784C51.675,182.697 49.689,183.513 51.558,184.195L51.941,184.133C52.523,184.295 53.071,184.417 53.609,184.692C52.569,185.723 52.484,185.856 50.953,185.74C50.374,185.444 49.067,184.312 48.501,183.848L47.643,183.837C46.746,183.489 46.445,182.817 45.937,182.002C47.987,182.202 47.034,182.143 48.45,183.401C49.105,182.932 49.042,182.652 49.371,181.784Z" style="fill:rgb(103,66,53);fill-rule:nonzero;"/>
        <path d="M48.501,183.848C49.545,184.096 50.653,184.562 51.558,184.195L51.941,184.133C52.523,184.295 53.071,184.417 53.609,184.692C52.569,185.723 52.484,185.856 50.953,185.74C50.374,185.444 49.067,184.312 48.501,183.848Z" style="fill:rgb(71,41,29);fill-rule:nonzero;"/>
        <path d="M34.128,181.759L34.264,181.746C37.029,181.461 35.294,180.905 37.226,181.911C38.738,182.698 40.849,177.938 42.644,178.533C48.188,177.857 46.158,180.462 47.18,181.815C47.633,182.084 48.486,182.002 48.928,181.759L49.371,181.784C49.042,182.652 49.105,182.932 48.45,183.401C47.034,182.143 47.987,182.202 45.937,182.002C45.659,181.129 45.591,180.623 44.852,180.113C42.889,179.76 42.233,181.89 40.571,182.744C39.707,182.817 36.999,182.911 36.495,183.369C36.97,183.648 37.503,183.725 38.042,183.839L36.797,184.184C35.89,183.764 35.561,183.573 34.679,184.07C33.787,184.159 33.418,184.098 32.522,183.986C32.772,182.5 32.694,182.573 34.015,182.041L34.128,181.759Z" style="fill:rgb(122,84,60);fill-rule:nonzero;"/>
        <path d="M34.015,182.041C35.737,183.086 37.885,182.42 40.571,182.744C39.707,182.817 36.999,182.911 36.495,183.369C36.97,183.648 37.503,183.725 38.042,183.839L36.797,184.184C35.89,183.764 35.561,183.573 34.679,184.07C33.787,184.159 33.418,184.098 32.522,183.986C32.772,182.5 32.694,182.573 34.015,182.041Z" style="fill:rgb(106,68,40);fill-rule:nonzero;"/>
        <path d="M30.79,183.388C30.551,182.59 30.567,182.416 30.869,181.804C31.836,181.078 33.148,181.147 34.128,181.759L34.015,182.041C32.694,182.573 32.772,182.5 32.522,183.986C31.655,183.881 31.549,183.826 30.79,183.388Z" style="fill:rgb(122,84,60);fill-rule:nonzero;"/>
        <path d="M34.781,186.537C35.432,186.287 35.53,186.241 36.237,186.353C37.593,187.494 35.913,188.517 35.685,189.812L35.21,190.518C34.977,190.853 34.719,191.161 34.606,191.547C35.12,191.839 35.678,192.083 35.971,192.589L36.631,192.685C35.463,193.221 35.283,193.285 34.968,194.611C33.422,195.99 32.837,196.569 30.733,195.862L30.116,195.137C30.198,194.321 30.046,194.075 29.72,193.312L28.938,193.615C29.638,192.867 30.237,192.57 29.802,191.627C28.948,191.215 27.997,191.223 27.047,191.158C25.688,191.062 25.502,191.556 24.252,192.018L24.211,191.688C25.18,190.46 26.261,188.149 27.39,186.503C28.061,186.461 29.423,187.152 29.909,187.525C30.591,187.053 31.11,187.092 31.948,187.035C32.46,186.974 33.245,186.796 33.776,186.694L34.781,186.537Z" style="fill:rgb(58,32,25);fill-rule:nonzero;"/>
        <path d="M27.39,186.503C28.061,186.461 29.423,187.152 29.909,187.525C30.591,187.053 31.11,187.092 31.948,187.035C31.313,188.36 30.419,189.241 29.437,190.331C28.633,190.669 27.912,191.014 27.047,191.158C25.688,191.062 25.502,191.556 24.252,192.018L24.211,191.688C25.18,190.46 26.261,188.149 27.39,186.503Z" style="fill:rgb(140,96,61);fill-rule:nonzero;"/>
        <path d="M29.909,187.525C30.591,187.053 31.11,187.092 31.948,187.035C31.313,188.36 30.419,189.241 29.437,190.331C28.879,189.974 28.386,189.544 27.875,189.121C28.411,188.959 29.43,187.95 29.909,187.525Z" style="fill:rgb(106,68,40);fill-rule:nonzero;"/>
        <path d="M27.875,189.121C28.386,189.544 28.879,189.974 29.437,190.331C28.633,190.669 27.912,191.014 27.047,191.158C25.688,191.062 25.502,191.556 24.252,192.018L24.211,191.688C25.461,190.893 26.674,189.991 27.875,189.121Z" style="fill:rgb(85,51,37);fill-rule:nonzero;"/>
        <path d="M31.283,193.162C31.954,192.971 33.037,192.054 34.606,191.547C35.12,191.839 35.678,192.083 35.971,192.589L36.631,192.685C35.463,193.221 35.283,193.285 34.968,194.611C33.422,195.99 32.837,196.569 30.733,195.862L30.116,195.137C30.266,194.469 30.876,193.695 31.283,193.162Z" style="fill:rgb(113,76,55);fill-rule:nonzero;"/>
        <path d="M31.283,193.162C31.954,192.971 33.037,192.054 34.606,191.547C35.12,191.839 35.678,192.083 35.971,192.589L35.874,192.614C33.699,193.198 32.935,194.646 31.417,194.199C31.372,193.897 31.291,193.457 31.283,193.162Z" style="fill:rgb(132,96,83);fill-rule:nonzero;"/>
        <path d="M34.781,186.537C35.432,186.287 35.53,186.241 36.237,186.353C37.593,187.494 35.913,188.517 35.685,189.812L35.21,190.518C34.977,190.853 34.719,191.161 34.606,191.547C33.037,192.054 31.954,192.971 31.283,193.162C30.876,193.695 30.266,194.469 30.116,195.137C30.198,194.321 30.046,194.075 29.72,193.312C30.45,192.933 30.66,192.353 31.264,191.828C32.51,190.742 34.902,189.863 35.418,188.171C35.377,187.35 35.248,187.22 34.781,186.537Z" style="fill:rgb(93,59,45);fill-rule:nonzero;"/>
        <path d="M41.089,184.446C42.156,184.281 42.492,184.163 43.395,184.703C44.337,185.868 44.51,187.066 46.175,187.15C48.593,187.272 48.292,186.487 50.373,188.141L50.807,188.251L50.88,188.485C50.674,189.336 50.498,189.724 50.877,190.491C51.474,191.115 52.216,191.209 53.089,191.279C51.285,192.688 50.55,192.879 50.135,195C50.014,194.717 49.957,193.717 49.924,193.348C47.995,193.166 48.907,192.454 46.652,192.089C46.153,192.324 44.913,192.843 44.858,193.337C44.714,194.626 44.167,195.665 43.814,196.786C42.347,197.836 41.645,198.01 39.926,198.03C38.068,197.052 38.381,199.448 36.424,199.212C35.671,197.812 37.309,196.397 36.479,194.966C35.589,194.436 35.969,194.515 34.968,194.611C35.283,193.285 35.463,193.221 36.631,192.685L36.717,192.838C37.5,194.265 37.375,198.605 41.135,196.557C41.215,196.49 41.295,196.424 41.375,196.357L41.572,196.274C41.906,196.257 42.216,196.096 42.529,195.964C43.207,195.106 43.973,190.702 44.27,189.347C44.056,188.808 42.973,188.147 42.441,187.762C42.803,187.191 42.939,187.043 42.984,186.362L42.254,185.574C42.012,185.099 41.522,184.788 41.089,184.446Z" style="fill:rgb(85,51,37);fill-rule:nonzero;"/>
        <path d="M50.373,188.141L50.807,188.251L50.88,188.485C50.674,189.336 50.498,189.724 50.877,190.491C51.474,191.115 52.216,191.209 53.089,191.279C51.285,192.688 50.55,192.879 50.135,195C50.014,194.717 49.957,193.717 49.924,193.348C47.995,193.166 48.907,192.454 46.652,192.089C50.263,191.111 49.337,192.099 50.373,188.141Z" style="fill:rgb(58,32,25);fill-rule:nonzero;"/>
        <path d="M47.356,188.26C47.616,188.312 47.903,188.36 48.147,188.464C48.66,188.683 48.794,188.906 48.993,189.403C48.635,189.944 48.399,190.006 47.827,190.285C47.228,190.298 46.565,190.36 45.991,190.16C45.639,190.037 45.659,189.963 45.501,189.644C45.929,188.878 46.599,188.618 47.356,188.26Z" style="fill:rgb(122,84,60);fill-rule:nonzero;"/>
        <path d="M34.679,184.07C35.561,183.573 35.89,183.764 36.797,184.184L38.042,183.839C39.241,184.313 40.123,184.044 41.089,184.446C41.522,184.788 42.012,185.099 42.254,185.574L42.984,186.362C42.939,187.043 42.803,187.191 42.441,187.762L41.915,187.318C38.817,187.25 38.246,187.994 35.685,189.812C35.913,188.517 37.593,187.494 36.237,186.353C35.53,186.241 35.432,186.287 34.781,186.537L33.776,186.694L33.763,186.535L34.08,185.663C34.108,185.026 34.147,185.187 34.755,184.609L34.679,184.07Z" style="fill:rgb(113,76,55);fill-rule:nonzero;"/>
        <path d="M34.679,184.07C35.561,183.573 35.89,183.764 36.797,184.184C35.948,185.341 35.923,185.704 34.362,185.442L34.08,185.663C34.108,185.026 34.147,185.187 34.755,184.609L34.679,184.07Z" style="fill:rgb(127,86,49);fill-rule:nonzero;"/>
        <path d="M41.915,187.318C41.171,187.022 41.267,187.184 40.856,186.61C41.257,185.955 41.475,185.999 42.254,185.574L42.984,186.362C42.939,187.043 42.803,187.191 42.441,187.762L41.915,187.318Z" style="fill:rgb(106,68,40);fill-rule:nonzero;"/>
        <path d="M38.405,193.092C39.642,192.88 41.475,192.477 42.579,193.137L42.749,193.477C41.777,195.52 43.155,195.056 41.572,196.274L41.375,196.357C41.139,196.334 40.903,196.308 40.667,196.278C38.692,196.025 38.024,195.105 38.405,193.092Z" style="fill:rgb(173,124,55);fill-rule:nonzero;"/>
        <path d="M38.14,188.692C38.608,188.638 39.078,188.6 39.548,188.579C40.406,188.545 41.679,188.573 42.324,189.217C42.463,189.356 42.395,189.651 42.391,189.845L41.598,190.571C40.729,190.528 38.358,190.194 37.622,189.792L37.556,189.273L38.14,188.692Z" style="fill:rgb(153,120,103);fill-rule:nonzero;"/>
        <path d="M15.369,187.499C17.146,184.896 20.362,183.95 22.954,182.228C24.131,181.447 25.037,180.721 26.136,179.828C27.157,180.08 27.428,179.982 28.146,180.653C28.051,181.452 26.885,181.955 26.293,182.947C27.079,182.928 28.254,182.799 28.906,183.15L29.178,183.786L29.746,183.732C29.851,183.323 29.794,183.463 30.202,183.153L30.79,183.388C31.549,183.826 31.655,183.881 32.522,183.986C33.418,184.098 33.787,184.159 34.679,184.07L34.755,184.609C34.147,185.187 34.108,185.026 34.08,185.663L33.763,186.535L33.776,186.694C33.245,186.796 32.46,186.974 31.948,187.035C31.11,187.092 30.591,187.053 29.909,187.525C29.423,187.152 28.061,186.461 27.39,186.503C26.261,188.149 25.18,190.46 24.211,191.688L24.252,192.018L23.587,192.873L23.567,193.248C22.972,194.323 22.015,195.23 21.162,196.128C19.579,195.79 19.761,195.66 18.216,196.504L18.138,196.465L17.88,195.278C17.991,194.921 18.355,194.927 18.645,194.329L17.807,193.255C15.925,192.597 15.983,191.406 13.784,190.922C14.681,189.828 14.924,188.836 15.369,187.499Z" style="fill:rgb(113,76,55);fill-rule:nonzero;"/>
        <path d="M15.369,187.499C17.146,184.896 20.362,183.95 22.954,182.228C24.131,181.447 25.037,180.721 26.136,179.828C27.157,180.08 27.428,179.982 28.146,180.653C28.051,181.452 26.885,181.955 26.293,182.947L25.558,183.53C24.894,184.487 22.495,187.509 22.172,188.276C20.105,191.788 18.484,188.395 17.807,193.255C15.925,192.597 15.983,191.406 13.784,190.922C14.681,189.828 14.924,188.836 15.369,187.499Z" style="fill:rgb(77,46,37);fill-rule:nonzero;"/>
        <path d="M15.369,187.499C15.692,188.506 15.863,189.809 16.482,190.318C18.163,190.29 20.834,189.419 22.172,188.276C20.105,191.788 18.484,188.395 17.807,193.255C15.925,192.597 15.983,191.406 13.784,190.922C14.681,189.828 14.924,188.836 15.369,187.499Z" style="fill:rgb(85,51,37);fill-rule:nonzero;"/>
        <path d="M23.587,192.873C22.602,193.037 20.425,193.361 19.841,192.399C19.924,190.724 22.608,189.69 23.433,188.396C24.304,187.031 24.659,186.001 26.359,185.651C27.176,185.894 26.906,185.71 27.39,186.503C26.261,188.149 25.18,190.46 24.211,191.688L24.252,192.018L23.587,192.873Z" style="fill:rgb(153,120,103);fill-rule:nonzero;"/>
        <path d="M29.746,183.732C29.851,183.323 29.794,183.463 30.202,183.153L30.79,183.388C31.549,183.826 31.655,183.881 32.522,183.986C33.418,184.098 33.787,184.159 34.679,184.07L34.755,184.609C34.147,185.187 34.108,185.026 34.08,185.663L33.763,186.535C30.741,185.609 32.045,185.627 29.746,183.732Z" style="fill:rgb(140,96,61);fill-rule:nonzero;"/>
        <path d="M21.162,196.128C20.315,195.464 19.715,195.632 19.238,195.075C19.974,194.36 22.402,193.246 23.567,193.248C22.972,194.323 22.015,195.23 21.162,196.128Z" style="fill:rgb(93,59,45);fill-rule:nonzero;"/>
        <path d="M26.293,182.947C27.079,182.928 28.254,182.799 28.906,183.15L29.178,183.786C27.541,184.198 26.765,184.87 25.558,183.53L26.293,182.947Z" style="fill:rgb(153,120,103);fill-rule:nonzero;"/>
        <path d="M13.784,190.922C15.983,191.406 15.925,192.597 17.807,193.255L18.645,194.329C18.355,194.927 17.991,194.921 17.88,195.278L18.138,196.465L18.216,196.504C18.11,197.308 17.889,198.17 18.288,198.851C18.933,199.412 19.586,199.529 20.405,199.756L21.329,202.43C21.136,202.785 21.02,203.018 20.867,203.393C23.762,206.24 31.068,205.207 34.214,208.429C34.418,208.638 35.976,209.179 36.49,209.567C36.025,209.586 35.552,209.582 35.09,209.634C32.371,209.939 28.38,208.443 25.926,207.269C25.053,206.851 24.241,206.164 23.293,205.949C23.253,205.94 23.213,205.933 23.173,205.925L22.863,205.445C19.693,205.624 17.002,204.5 14.75,202.161C12.969,200.312 12.967,199.197 13.086,196.74C12.243,195.468 13.194,192.25 13.784,190.922Z" style="fill:rgb(77,46,37);fill-rule:nonzero;"/>
        <path d="M13.086,196.74L13.138,196.81C14.228,198.325 13.435,199.224 14.816,200.771C16.485,202.641 18.844,201.318 20.698,202.272C20.689,203.064 19.558,203.146 20.102,203.901C20.627,204.628 22.171,204.631 22.863,205.445C19.693,205.624 17.002,204.5 14.75,202.161C12.969,200.312 12.967,199.197 13.086,196.74Z" style="fill:rgb(93,59,45);fill-rule:nonzero;"/>
        <path d="M18.138,196.465C17.152,197.483 17.064,198.302 15.522,198.384L15.059,197.904C14.908,196.788 15.349,195.714 16.316,195.069C16.77,194.766 17.374,195.114 17.88,195.278L18.138,196.465Z" style="fill:rgb(106,68,40);fill-rule:nonzero;"/>
        <path d="M28.938,193.615L29.72,193.312C30.046,194.075 30.198,194.321 30.116,195.137L30.733,195.862C32.837,196.569 33.422,195.99 34.968,194.611C35.969,194.515 35.589,194.436 36.479,194.966C37.309,196.397 35.671,197.812 36.424,199.212C35.478,198.898 35.724,198.829 34.876,199.057C34.418,199.926 34.574,200.201 34.31,200.951C34.185,201.046 34.081,201.123 33.95,201.211L33.79,201.317C32.963,201.872 31.45,202.02 30.416,202.2C29.491,201.619 29.075,201.305 27.991,201.044C26.922,201.164 26.396,200.738 25.091,200.956C24.241,201.324 24.087,201.212 23.437,200.759C23.453,198.07 22.738,198.058 24.634,196.095L25.557,195.567C26.29,195.403 27.194,195.298 27.692,194.773C28.265,194.332 28.482,194.189 28.938,193.615Z" style="fill:rgb(93,59,45);fill-rule:nonzero;"/>
        <path d="M34.968,194.611C35.969,194.515 35.589,194.436 36.479,194.966C37.309,196.397 35.671,197.812 36.424,199.212C35.478,198.898 35.724,198.829 34.876,199.057C34.418,199.926 34.574,200.201 34.31,200.951C33.944,199.804 33.161,199.207 32.028,198.889L31.757,198.882C31.001,198.26 30.953,197.34 30.625,196.274L30.733,195.862C32.837,196.569 33.422,195.99 34.968,194.611Z" style="fill:rgb(70,41,33);fill-rule:nonzero;"/>
        <path d="M32.028,198.889L32.448,199.45C32.521,200.284 32.609,199.981 32.165,200.611C30.634,201.013 26.916,199.629 26.081,198.192C26.106,197.376 26.026,197.667 26.599,196.983C28.301,196.375 29.808,198.83 31.757,198.882L32.028,198.889Z" style="fill:rgb(145,109,81);fill-rule:nonzero;"/>
        <path d="M28.938,193.615L29.72,193.312C30.046,194.075 30.198,194.321 30.116,195.137L30.733,195.862L30.625,196.274C29.787,196.15 29.265,196.09 28.421,196.064C26.732,195.869 26.314,195.854 24.634,196.095L25.557,195.567C26.29,195.403 27.194,195.298 27.692,194.773C28.265,194.332 28.482,194.189 28.938,193.615Z" style="fill:rgb(71,41,29);fill-rule:nonzero;"/>
        <path d="M24.634,196.095C26.314,195.854 26.732,195.869 28.421,196.064C25.277,196.26 24.63,198.093 23.437,200.759C23.453,198.07 22.738,198.058 24.634,196.095Z" style="fill:rgb(85,51,37);fill-rule:nonzero;"/>
        <path d="M25.091,200.956C25.728,200.008 25.639,199.829 26.585,199.385C27.407,199.754 27.664,200.168 27.991,201.044C26.922,201.164 26.396,200.738 25.091,200.956Z" style="fill:rgb(77,46,37);fill-rule:nonzero;"/>
        <path d="M25.557,195.567C26.032,194.908 25.983,194.167 26.533,193.336L26.947,193.664C27.106,194.26 27.198,194.402 27.692,194.773C27.194,195.298 26.29,195.403 25.557,195.567Z" style="fill:rgb(58,32,25);fill-rule:nonzero;"/>
        <path d="M54.36,195.866C55.139,194.644 56.017,191.885 57.606,192.24C57.878,192.349 58.963,192.778 59.114,192.927C60.554,194.348 62.593,192.758 63.856,193.37C65.808,194.315 65.145,194.553 67.448,194.692L73.336,195.076C73.272,196.078 73.298,196.344 73.481,197.333C72.041,199.069 72.557,199.074 71.788,200.279L71.756,200.381C72.264,200.569 72.851,200.759 73.314,201.025C74.013,200.275 73.855,200.192 74.668,200.068C75.132,200.49 75.472,200.825 75.901,201.282L76.079,201.264C76.064,202.002 76.015,202.21 76.425,202.829C77.09,202.173 77.195,202.119 78.076,201.805L79.448,202.911C79.937,203.555 80.395,204.327 81.144,204.572C82.173,204.097 82.032,203.731 82.821,202.653C82.32,204.25 83.378,204.625 82.444,205.35C80.622,205.346 80.184,205.517 80.2,207.502L79.135,208.808C79.01,209.496 78.905,209.678 79.212,210.324C82.388,211.845 88.646,206.456 92.251,210.645C88.309,209.375 86.093,211.351 82.373,211.971C79.731,212.412 76.908,212.474 74.232,212.606C71.677,212.732 69.112,212.336 66.559,212.253C58.399,211.985 45.051,212.169 37.529,209.761C40.434,209.33 46.821,210.376 49.029,208.708L49.063,208.304C47.549,207.442 45.708,207.953 44.146,207.468C43.477,207.26 43.366,207.014 43.083,206.425C42.216,204.557 40.263,205.673 38.881,206.196C38.09,206.026 38.326,206.195 37.929,205.623C37.944,204.574 38.594,203.265 39.011,202.26C39.679,201.722 39.377,201.844 40.263,201.844C41.105,201.177 41.506,200.784 41.686,199.788C41.431,198.948 40.656,198.542 39.926,198.03C41.645,198.01 42.347,197.836 43.814,196.786C44.167,195.665 44.714,194.626 44.858,193.337C44.913,192.843 46.153,192.324 46.652,192.089C48.907,192.454 47.995,193.166 49.924,193.348C49.957,193.717 50.014,194.717 50.135,195C50.369,195.508 50.89,196.558 51.047,197.044C52.143,197.019 53.56,196.671 54.36,195.866Z" style="fill:rgb(58,32,25);fill-rule:nonzero;"/>
        <path d="M54.36,195.866C55.139,194.644 56.017,191.885 57.606,192.24C57.878,192.349 58.963,192.778 59.114,192.927C60.554,194.348 62.593,192.758 63.856,193.37C65.808,194.315 65.145,194.553 67.448,194.692L73.336,195.076C73.272,196.078 73.298,196.344 73.481,197.333C72.041,199.069 72.557,199.074 71.788,200.279L71.756,200.381C71.311,200.781 70.855,201.143 70.536,201.645C69.987,201.498 69.331,200.584 68.918,200.099C68.768,197.332 65.966,197.802 64.451,196.6C61.962,195.583 60.66,197.068 59.295,198.833L59.133,198.913C58.543,198.994 57.926,199.039 57.38,199.258C57.149,200.417 57.04,200.733 56.55,201.81L56.491,201.91C55.249,204.059 54.799,204.082 52.662,205.421C52.195,205.894 51.863,206.141 51.227,206.342C50.456,206.246 49.959,205.703 49.407,205.206C49.164,205.714 48.974,206.052 48.538,206.424C48.207,206.477 48.093,206.541 47.79,206.384C47.733,206.212 47.684,205.919 47.554,205.799C46.44,206.348 45.876,206.523 44.683,206.195L44.525,206.199L43.674,206.674L43.083,206.425C42.216,204.557 40.263,205.673 38.881,206.196C38.09,206.026 38.326,206.195 37.929,205.623C37.944,204.574 38.594,203.265 39.011,202.26C39.679,201.722 39.377,201.844 40.263,201.844C41.105,201.177 41.506,200.784 41.686,199.788C41.431,198.948 40.656,198.542 39.926,198.03C41.645,198.01 42.347,197.836 43.814,196.786C44.167,195.665 44.714,194.626 44.858,193.337C44.913,192.843 46.153,192.324 46.652,192.089C48.907,192.454 47.995,193.166 49.924,193.348C49.957,193.717 50.014,194.717 50.135,195C50.369,195.508 50.89,196.558 51.047,197.044C52.143,197.019 53.56,196.671 54.36,195.866Z" style="fill:url(#_Linear3);fill-rule:nonzero;"/>
        <path d="M40.263,201.844C41.052,201.804 41.758,201.859 42.338,201.334C42.451,200.69 42.365,200.539 42.149,199.949C42.483,199.187 42.256,199.419 42.989,199.067C45.389,199.842 44.737,202.171 46.197,203.371C47.073,204.21 47.184,204.639 47.554,205.799C46.44,206.348 45.876,206.523 44.683,206.195L44.525,206.199L43.674,206.674L43.083,206.425C42.216,204.557 40.263,205.673 38.881,206.196C38.09,206.026 38.326,206.195 37.929,205.623C37.944,204.574 38.594,203.265 39.011,202.26C39.679,201.722 39.377,201.844 40.263,201.844Z" style="fill:rgb(85,51,37);fill-rule:nonzero;"/>
        <path d="M44.525,206.199C43.85,205.773 43.097,205.218 42.908,204.392C42.8,203.918 42.944,203.81 43.178,203.408C43.82,203.296 43.838,203.288 44.395,203.623C44.829,204.17 44.959,204.884 44.904,205.575C44.887,205.798 44.795,206.005 44.683,206.195L44.525,206.199Z" style="fill:rgb(93,59,45);fill-rule:nonzero;"/>
        <path d="M50.443,202.922C51.991,201.831 53.541,200.098 55.308,199.164C56.194,198.696 56.396,198.953 57.38,199.258C57.149,200.417 57.04,200.733 56.55,201.81L56.491,201.91C55.249,204.059 54.799,204.082 52.662,205.421C52.195,205.894 51.863,206.141 51.227,206.342C50.456,206.246 49.959,205.703 49.407,205.206L48.923,204.831C49.009,204.563 49.402,203.956 49.566,203.685L50.443,202.922Z" style="fill:rgb(41,22,19);fill-rule:nonzero;"/>
        <path d="M46.652,192.089C48.907,192.454 47.995,193.166 49.924,193.348C48.785,196.979 48.363,197.261 44.834,198.731C44.177,199.004 43.975,199.079 43.248,199.011L42.775,198.682C42.861,197.459 43.6,198.285 43.814,196.786C44.167,195.665 44.714,194.626 44.858,193.337C44.913,192.843 46.153,192.324 46.652,192.089Z" style="fill:rgb(45,25,20);fill-rule:nonzero;"/>
        <path d="M64.451,196.6C66.062,196.403 68.201,195.886 69.477,196.799C70.195,198.201 69.607,198.766 68.918,200.099C68.768,197.332 65.966,197.802 64.451,196.6Z" style="fill:rgb(45,25,20);fill-rule:nonzero;"/>
        <path d="M54.36,195.866C55.139,194.644 56.017,191.885 57.606,192.24C56.498,193.507 57.974,193.732 56.015,196.258L54.36,195.866Z" style="fill:rgb(103,66,53);fill-rule:nonzero;"/>
        <path d="M49.566,203.685L49.184,203.226C48.915,201.908 48.864,198.888 50.976,199.702C51.411,200.738 50.88,201.963 50.443,202.922L49.566,203.685Z" style="fill:rgb(71,41,29);fill-rule:nonzero;"/>
        <path d="M54.36,195.866L56.015,196.258C54.709,198.486 53.151,198.122 51.047,197.044C52.143,197.019 53.56,196.671 54.36,195.866Z" style="fill:rgb(85,51,37);fill-rule:nonzero;"/>
        <path d="M46.197,203.371L47.223,203.239L47.547,203.345C47.983,203.918 48.335,204.579 48.923,204.831L49.407,205.206C49.164,205.714 48.974,206.052 48.538,206.424C48.207,206.477 48.093,206.541 47.79,206.384C47.733,206.212 47.684,205.919 47.554,205.799C47.184,204.639 47.073,204.21 46.197,203.371Z" style="fill:rgb(71,41,29);fill-rule:nonzero;"/>
        <path d="M47.223,203.239C46.953,202.347 46.869,202.513 47.043,201.698C47.936,201.46 48.387,201.82 48.883,202.561L48.816,203.172C48.24,203.433 48.161,203.47 47.547,203.345L47.223,203.239Z" style="fill:rgb(45,25,20);fill-rule:nonzero;"/>
        <path d="M59.295,198.833C60.66,197.068 61.962,195.583 64.451,196.6C65.966,197.802 68.768,197.332 68.918,200.099C69.331,200.584 69.987,201.498 70.536,201.645C70.855,201.143 71.311,200.781 71.756,200.381C72.264,200.569 72.851,200.759 73.314,201.025C74.013,200.275 73.855,200.192 74.668,200.068C75.132,200.49 75.472,200.825 75.901,201.282L76.079,201.264C76.064,202.002 76.015,202.21 76.425,202.829C74.576,204.405 72.886,203.437 72.137,204.641C68.234,206.503 69.555,203.296 68.543,201.727C67.666,201.418 67.656,201.611 66.621,201.919C66.179,202.611 66.104,202.699 65.456,203.202C64.085,203.792 64.194,204.024 63.299,204.533C60.873,205.276 56.804,205.076 56.55,201.81C57.04,200.733 57.149,200.417 57.38,199.258C57.926,199.039 58.543,198.994 59.133,198.913L59.295,198.833Z" style="fill:rgb(103,66,53);fill-rule:nonzero;"/>
        <path d="M59.295,198.833L60.984,198.725C61.717,199.089 61.489,198.855 61.834,199.611C61.67,200.911 60.85,201.772 59.519,201.76L59.045,201.218C58.837,200.176 58.898,199.962 59.133,198.913L59.295,198.833Z" style="fill:rgb(153,120,103);fill-rule:nonzero;"/>
        <path d="M73.314,201.025C74.013,200.275 73.855,200.192 74.668,200.068C75.132,200.49 75.472,200.825 75.901,201.282C75.093,202.327 75.177,202.531 74.047,203.023C73.399,202.91 72.748,202.66 72.451,202.035L73.314,201.025Z" style="fill:rgb(113,76,55);fill-rule:nonzero;"/>
        <path d="M63.723,202.84C61.172,202.088 63.041,204.388 59.491,203.482L59.433,202.602L59.34,202.64C60.095,202.063 62.841,202.06 63.766,202.273L63.723,202.84Z" style="fill:rgb(106,68,40);fill-rule:nonzero;"/>
        <path d="M63.766,202.273C64.131,201.843 64.37,201.717 64.83,201.409C65.612,201.267 65.913,201.521 66.621,201.919C66.179,202.611 66.104,202.699 65.456,203.202C64.643,203.202 64.486,203.123 63.723,202.84L63.766,202.273Z" style="fill:rgb(106,68,40);fill-rule:nonzero;"/>
        <path d="M70.536,201.645C70.855,201.143 71.311,200.781 71.756,200.381C72.264,200.569 72.851,200.759 73.314,201.025L72.451,202.035C72.111,201.961 71.138,201.917 70.735,201.89L70.536,201.645Z" style="fill:rgb(93,59,45);fill-rule:nonzero;"/>
        <path d="M66.621,201.919C67.656,201.611 67.666,201.418 68.543,201.727C69.555,203.296 68.234,206.503 72.137,204.641L72.81,204.739L72.984,205.189L72.935,205.299C72.497,206.301 72.139,207.547 72.561,208.625C72.825,209.302 73.573,209.987 74.069,210.519C72.557,210.609 69.548,211.038 68.235,210.283L67.92,209.77C67.981,209.568 68.019,209.214 68.203,209.113C68.666,208.859 69.052,208.818 69.569,208.775C69.651,207.751 68.312,206.553 68.052,205.426L67.699,205.351C67.68,205.373 67.662,205.394 67.643,205.415C66.418,206.795 65.01,205.991 64.614,208.241C64.947,209.175 65.331,209.66 64.927,210.598C63.791,211.478 62.181,211.324 60.828,211.158C58.316,210.848 55.898,210.05 53.408,209.691C52.325,209.534 50.44,209.981 49.527,209.405L49.348,208.983C49.551,209.087 49.758,209.172 49.98,209.226C54.124,210.214 52.893,208.356 55.529,206.819L55.604,206.775C56.109,207.229 56.435,207.626 57.105,207.665C56.895,206.914 56.368,207.291 55.814,206.403C55.948,206.095 56.177,205.826 56.46,205.657C59.598,203.786 59.978,206.918 63.299,204.533C64.194,204.024 64.085,203.792 65.456,203.202C66.104,202.699 66.179,202.611 66.621,201.919Z" style="fill:rgb(45,25,20);fill-rule:nonzero;"/>
        <path d="M74.478,208.685C73.802,207.661 75.303,207.56 75.47,206.799C75.546,206.448 75.164,205.869 75.283,205.278L75.832,204.993C76.833,204.905 78.269,205.381 79.156,205.841C79.874,206.213 79.962,206.794 80.2,207.502L79.135,208.808L78.074,208.82C76.605,209.417 75.905,209.209 74.478,208.685Z" style="fill:rgb(85,51,37);fill-rule:nonzero;"/>
        <path d="M74.478,208.685C75.275,207.779 76.211,206.37 77.391,206.092C77.975,206.615 77.984,206.976 78.026,207.742C78.045,208.101 78.061,208.461 78.074,208.82C76.605,209.417 75.905,209.209 74.478,208.685Z" style="fill:rgb(106,68,40);fill-rule:nonzero;"/>
        <path d="M52.711,205.733C53.499,205.726 54.585,205.634 55.189,206.235C55.352,206.398 55.48,206.583 55.604,206.775L55.529,206.819C52.893,208.356 54.124,210.214 49.98,209.226C49.758,209.172 49.551,209.087 49.348,208.983C49.702,207.845 51.828,206.698 52.711,205.733Z" style="fill:rgb(70,41,33);fill-rule:nonzero;"/>
        <path d="M60.877,181.073C61.168,180.571 61.221,180.519 61.686,180.17C63.136,180.102 64.524,182.318 64.212,183.568L64.633,183.975L65.181,183.018L65.394,183.141C65.774,183.447 66.718,184.243 67.088,184.445C66.637,184.361 71.341,185.992 71.066,185.863L70.945,186.238C70.098,186.08 69.568,185.889 68.813,186.269C68.238,186.918 68.258,187.133 68.217,188.021L69.371,187.534C70.09,187.951 69.717,188.327 70.697,188.859L71.166,189.475L71.351,190.44C72.41,191.347 72.106,191.618 72.439,192.377C72.621,192.791 73.955,193.05 74.315,194.06C73.993,194.665 73.898,194.715 73.336,195.076L67.448,194.692C65.145,194.553 65.808,194.315 63.856,193.37C62.593,192.758 60.554,194.348 59.114,192.927C58.963,192.778 57.878,192.349 57.606,192.24C56.017,191.885 55.139,194.644 54.36,195.866C53.56,196.671 52.143,197.019 51.047,197.044C50.89,196.558 50.369,195.508 50.135,195C50.55,192.879 51.285,192.688 53.089,191.279C53.222,191.238 53.355,191.194 53.486,191.148C56.151,190.191 55.145,187.941 56.425,185.858C57.151,184.677 57.105,185.834 57.896,184.126C58.287,184.202 58.427,184.126 58.822,184.016L59.068,183.397C59.477,182.856 60.336,182.235 60.891,181.795L60.877,181.073Z" style="fill:rgb(113,76,55);fill-rule:nonzero;"/>
        <path d="M70.697,188.859L71.166,189.475L71.351,190.44C72.41,191.347 72.106,191.618 72.439,192.377C72.621,192.791 73.955,193.05 74.315,194.06C73.993,194.665 73.898,194.715 73.336,195.076L67.448,194.692L66.516,193.735L66.549,193.351L67.618,192.93C70.029,191.725 68.335,190.891 70.697,188.859Z" style="fill:rgb(58,32,25);fill-rule:nonzero;"/>
        <path d="M70.697,188.859L71.166,189.475C70.881,191.045 69.99,192.377 69.97,192.933C69.2,193.367 68.484,193.112 67.618,192.93C70.029,191.725 68.335,190.891 70.697,188.859Z" style="fill:rgb(93,59,45);fill-rule:nonzero;"/>
        <path d="M71.166,189.475L71.351,190.44C71.253,192.067 72.441,191.85 71.746,192.776C70.747,193.044 70.359,192.822 69.97,192.933C69.99,192.377 70.881,191.045 71.166,189.475Z" style="fill:rgb(85,51,37);fill-rule:nonzero;"/>
        <path d="M60.877,181.073C61.168,180.571 61.221,180.519 61.686,180.17C63.136,180.102 64.524,182.318 64.212,183.568L64.633,183.975C65.1,184.494 65.719,185.039 65.768,185.71C64.944,186.443 63.889,185.66 63.024,185.208L61.934,184.269C60.31,184.388 60.055,184.595 59.068,183.397C59.477,182.856 60.336,182.235 60.891,181.795L60.877,181.073Z" style="fill:rgb(58,32,25);fill-rule:nonzero;"/>
        <path d="M60.891,181.795L60.877,181.073C60.948,182.197 60.994,183.495 61.934,184.269C60.31,184.388 60.055,184.595 59.068,183.397C59.477,182.856 60.336,182.235 60.891,181.795Z" style="fill:rgb(71,41,29);fill-rule:nonzero;"/>
        <path d="M65.181,183.018L65.394,183.141C65.774,183.447 66.718,184.243 67.088,184.445C66.637,184.361 71.341,185.992 71.066,185.863L70.945,186.238C70.098,186.08 69.568,185.889 68.813,186.269C68.238,186.918 68.258,187.133 68.217,188.021C67.077,187.025 67.346,187.19 65.951,187.123L65.737,186.973C64.314,186.132 64.23,187.444 63.024,185.208C63.889,185.66 64.944,186.443 65.768,185.71C65.719,185.039 65.1,184.494 64.633,183.975L65.181,183.018Z" style="fill:rgb(77,46,37);fill-rule:nonzero;"/>
        <path d="M64.248,189.119C63.772,188.539 63.854,188.308 64.025,187.674C64.665,187.056 64.832,187.047 65.737,186.973L65.951,187.123C66.46,189.885 67.482,188.764 67.78,190.196L67.435,191.231C66.476,189.441 66.243,190.223 64.378,189.192L64.248,189.119Z" style="fill:rgb(140,96,61);fill-rule:nonzero;"/>
        <path d="M64.248,189.119L64.378,189.192C66.243,190.223 66.476,189.441 67.435,191.231C66.844,191.466 66.209,191.564 65.576,191.518C64.853,191.466 64.427,191.292 63.968,190.753C63.781,189.755 63.765,190.13 64.248,189.119Z" style="fill:rgb(149,101,59);fill-rule:nonzero;"/>
        <path d="M57.808,185.742C58.776,185.917 60.002,186.708 60.614,187.462C60.596,188.152 60.416,188.232 59.978,188.742C59.494,188.882 58.925,189.081 58.423,189.109C57.831,189.142 57.657,189.058 57.21,188.682C56.977,187.723 57.501,186.648 57.808,185.742Z" style="fill:rgb(183,160,149);fill-rule:nonzero;"/>
        <path d="M86.378,175.014C87.224,175.09 89.812,175.344 90.409,175.201C94.716,174.171 96.398,172.797 100.569,175.351C103.239,176.986 107.251,174.791 110.844,176.463C112.633,177.121 113.014,177.593 114.4,178.975C114.06,178.937 113.446,178.739 113.09,178.638C111.529,178.611 110.685,179.24 109.251,179.538C107.003,180.006 103.517,180.53 101.276,180.406C100.983,179.921 100.737,179.862 100.231,179.639C99.549,180.127 99.238,180.332 98.683,180.953C98.615,181.389 98.549,181.668 98.589,182.114C99.989,187.261 92.209,185.632 89.763,185.922C89.336,185.123 89.072,184.822 88.255,184.533C87.325,184.203 87.286,182.407 86.824,180.982L86.883,180.723C87.803,179.943 87.832,181.085 88.791,180.706C90.041,180.213 92.995,178.587 92.609,177.111C92.136,176.851 90.043,176.851 89.05,176.716C88.567,176.145 87.513,176.366 86.378,175.014Z" style="fill:rgb(132,96,83);fill-rule:nonzero;"/>
        <path d="M98.653,177.2C98.682,177.058 98.859,176.723 98.932,176.573C99.642,176.168 109.182,176.555 110.844,176.463C112.633,177.121 113.014,177.593 114.4,178.975C114.06,178.937 113.446,178.739 113.09,178.638C111.529,178.611 110.685,179.24 109.251,179.538C107.003,180.006 103.517,180.53 101.276,180.406C100.983,179.921 100.737,179.862 100.231,179.639L98.897,179.918L98.282,179.508C98.917,178.403 98.835,178.281 98.653,177.2Z" style="fill:rgb(113,76,55);fill-rule:nonzero;"/>
        <path d="M98.148,176.732L98.653,177.2C98.835,178.281 98.917,178.403 98.282,179.508C97.034,179.611 96.327,179.584 95.296,180.408C95.357,180.406 92.833,179.78 92.748,179.744C93.407,178.822 93.613,178.562 94.465,177.821C95.781,178.469 97.36,177.932 98.148,176.732Z" style="fill:rgb(145,109,81);fill-rule:nonzero;"/>
        <path d="M92.748,179.744C92.833,179.78 95.357,180.406 95.296,180.408L95.861,181.115C95.961,181.496 96.126,182.236 96.301,182.553C94.013,182.792 93.656,182.268 92.156,180.662L92.678,180.292L92.748,179.744Z" style="fill:rgb(145,109,81);fill-rule:nonzero;"/>
        <path d="M95.296,180.408C96.327,179.584 97.034,179.611 98.282,179.508L98.897,179.918L100.231,179.639C99.549,180.127 99.238,180.332 98.683,180.953C98.615,181.389 98.549,181.668 98.589,182.114L98.306,182.052L98.01,181.458C97.487,181.003 96.591,181.114 95.861,181.115L95.296,180.408Z" style="fill:rgb(127,86,49);fill-rule:nonzero;"/>
        <path d="M94.465,177.821C95.106,176.962 95.224,176.815 96.142,176.281C97.375,176.169 96.904,176.121 98.148,176.732C97.36,177.932 95.781,178.469 94.465,177.821Z" style="fill:rgb(145,111,97);fill-rule:nonzero;"/>
        <path d="M95.861,181.115C96.591,181.114 97.487,181.003 98.01,181.458L98.306,182.052C98.035,182.865 98.116,183.094 97.553,183.529L97.474,183.434C97.097,182.993 96.862,182.663 96.301,182.553C96.126,182.236 95.961,181.496 95.861,181.115Z" style="fill:rgb(122,84,60);fill-rule:nonzero;"/>
        <path d="M92.05,182.623C92.204,182.575 92.32,182.562 92.481,182.572C92.993,182.604 92.989,182.66 93.32,183.033C93.327,183.234 93.321,183.431 93.257,183.624C93.001,184.395 92.435,184.614 91.776,184.961C91.27,184.549 90.778,184.195 90.481,183.599C90.877,182.981 91.39,182.897 92.05,182.623Z" style="fill:rgb(183,160,149);fill-rule:nonzero;"/>
        <path d="M52.49,177.849C54.878,176.44 59.088,177.148 61.76,176.749C62.502,176.638 64.274,175.326 65.427,174.906C69.108,173.565 73.455,172.754 77.34,172.244C77.766,172.188 80.142,172.659 80.576,172.749C75.279,172.74 77.244,172.655 72.994,174.168C74.867,174.882 74.106,176.814 73.846,178.559C72.258,179.106 71.586,179.868 70.487,181.143C69.113,181.016 68.605,181.082 67.44,180.274C66.604,180.929 66.129,181.483 65.427,182.259L65.394,183.141L65.181,183.018L64.633,183.975L64.212,183.568C64.524,182.318 63.136,180.102 61.686,180.17C61.221,180.519 61.168,180.571 60.877,181.073L60.891,181.795C60.336,182.235 59.477,182.856 59.068,183.397L58.822,184.016C58.427,184.126 58.287,184.202 57.896,184.126L57.634,183.593C57.631,182.758 57.549,181.721 57.507,180.869C56.968,180.615 56.566,180.087 56.307,179.563C55.942,178.151 55.798,178.327 54.463,178.055L52.49,177.849Z" style="fill:rgb(122,84,60);fill-rule:nonzero;"/>
        <path d="M72.339,174.071L72.994,174.168C74.867,174.882 74.106,176.814 73.846,178.559C72.258,179.106 71.586,179.868 70.487,181.143C69.113,181.016 68.605,181.082 67.44,180.274C66.604,180.929 66.129,181.483 65.427,182.259L65.394,183.141L65.181,183.018L64.845,181.934C65.032,179.102 66.536,180.924 68.135,179.9C68.561,179.015 68.408,179.126 68.331,178.013C69.145,177.039 71.374,174.382 72.339,174.071Z" style="fill:rgb(106,68,40);fill-rule:nonzero;"/>
        <path d="M65.528,176.563C66.92,176.711 67.351,176.99 68.331,178.013C68.408,179.126 68.561,179.015 68.135,179.9C66.536,180.924 65.032,179.102 64.845,181.934L64.75,179.573C65.099,179.247 64.892,177.845 64.927,177.005L65.528,176.563Z" style="fill:rgb(85,51,37);fill-rule:nonzero;"/>
        <path d="M65.528,176.563C67.685,176.776 68.922,173.513 72.339,174.071C71.374,174.382 69.145,177.039 68.331,178.013C67.351,176.99 66.92,176.711 65.528,176.563Z" style="fill:rgb(127,86,49);fill-rule:nonzero;"/>
        <path d="M64.927,177.005C64.892,177.845 65.099,179.247 64.75,179.573C63.361,179.308 63.485,180.11 61.378,180.056L61.133,179.782C61.783,178.195 63.227,177.12 64.927,177.005Z" style="fill:rgb(93,59,45);fill-rule:nonzero;"/>
        <path d="M57.507,180.869C59.261,181.182 59.111,181.839 60.891,181.795C60.336,182.235 59.477,182.856 59.068,183.397L58.822,184.016C58.427,184.126 58.287,184.202 57.896,184.126L57.634,183.593C57.631,182.758 57.549,181.721 57.507,180.869Z" style="fill:rgb(113,76,55);fill-rule:nonzero;"/>
        <path d="M128.238,180.115C132.995,182.271 134.91,177.251 143.568,182.688L143.92,182.899C145.214,183.6 146.914,184.543 148.296,184.95C150.157,185.64 157.589,194.479 154.088,196.381C153.997,195.749 154.05,193.662 154.054,192.911C153.498,191.777 153.432,191.865 152.503,191.175C150.44,189.642 151.069,187.979 148.402,186.052C147.547,185.881 147.877,185.825 147.154,186.229C145.992,188.665 149.118,189.511 142.565,189.969C141.79,189.487 140.914,189.026 140.11,188.581L140.133,188.397C138.353,185.518 136.335,185.413 133.806,183.187C132.006,182.333 133.947,181.705 130.143,182.181L128.845,181.882C128.497,181.184 128.429,180.873 128.238,180.115Z" style="fill:rgb(85,51,37);fill-rule:nonzero;"/>
        <path d="M128.238,180.115C132.995,182.271 134.91,177.251 143.568,182.688L143.92,182.899C143.52,184.422 142.892,184.648 141.534,185.643C139.922,184.978 138.859,183.868 136.46,182.96C135.717,182.949 134.365,182.813 133.806,183.187C132.006,182.333 133.947,181.705 130.143,182.181L128.845,181.882C128.497,181.184 128.429,180.873 128.238,180.115Z" style="fill:rgb(93,59,45);fill-rule:nonzero;"/>
        <path d="M136.46,182.96C135.84,182.203 135.824,182.417 135.755,181.585C136.885,180.866 141.008,182.558 143.568,182.688L143.92,182.899C143.52,184.422 142.892,184.648 141.534,185.643C139.922,184.978 138.859,183.868 136.46,182.96Z" style="fill:rgb(58,32,25);fill-rule:nonzero;"/>
        <path d="M136.46,182.96C138.859,183.868 139.922,184.978 141.534,185.643C142.61,185.86 143.803,186.359 144.445,187.288C144.402,187.807 144.368,187.866 144.088,188.308C142.697,188.264 141.438,188.639 140.133,188.397C138.353,185.518 136.335,185.413 133.806,183.187C134.365,182.813 135.717,182.949 136.46,182.96Z" style="fill:rgb(106,68,40);fill-rule:nonzero;"/>
        <path d="M143.92,182.899C145.214,183.6 146.914,184.543 148.296,184.95C142.548,185.081 146.277,188.169 144.088,188.308C144.368,187.866 144.402,187.807 144.445,187.288C143.803,186.359 142.61,185.86 141.534,185.643C142.892,184.648 143.52,184.422 143.92,182.899Z" style="fill:rgb(93,59,45);fill-rule:nonzero;"/>
        <path d="M70.487,181.143C71.586,179.868 72.258,179.106 73.846,178.559L74.449,179.86L74.704,180.016C75.739,179.452 77.136,179.644 78.244,179.831L79.611,179.551L80.885,180.099C81.621,180.482 81.392,180.245 81.751,180.987C81.601,181.947 81.504,182.078 80.868,182.827L80.552,183.083C74.628,183.163 77.712,184.682 74.331,186.765C73.251,186.37 72.144,185.793 71.066,185.863C71.341,185.992 66.637,184.361 67.088,184.445C66.718,184.243 65.774,183.447 65.394,183.141L65.427,182.259C66.129,181.483 66.604,180.929 67.44,180.274C68.605,181.082 69.113,181.016 70.487,181.143Z" style="fill:rgb(145,109,81);fill-rule:nonzero;"/>
        <path d="M74.704,180.016C75.739,179.452 77.136,179.644 78.244,179.831L79.611,179.551L80.885,180.099C81.621,180.482 81.392,180.245 81.751,180.987C81.601,181.947 81.504,182.078 80.868,182.827L80.552,183.083C74.628,183.163 77.712,184.682 74.331,186.765C73.251,186.37 72.144,185.793 71.066,185.863C71.341,185.992 66.637,184.361 67.088,184.445L67.453,184.264C68.78,184.441 70.007,184.457 71.274,184.404C71.419,184.398 72.278,185.534 73.303,185.604C73.758,185.069 75.053,183.699 75.152,183.128L74.466,183.006C74.513,182.001 74.611,181.017 74.704,180.016Z" style="fill:rgb(140,96,61);fill-rule:nonzero;"/>
        <path d="M78.244,179.831L79.611,179.551L80.885,180.099C80.324,182.729 76.624,182.975 75.953,180.756L76.29,180.206C77.07,179.879 77.396,179.889 78.244,179.831Z" style="fill:rgb(183,160,149);fill-rule:nonzero;"/>
        <path d="M67.44,180.274L68.229,181.707L68.388,182.224C69.055,182.424 69.968,182.697 70.556,183.065L70.094,184.098C69.386,184.122 68.097,184.124 67.453,184.264L67.088,184.445C66.718,184.243 65.774,183.447 65.394,183.141L65.427,182.259C66.129,181.483 66.604,180.929 67.44,180.274Z" style="fill:rgb(153,120,103);fill-rule:nonzero;"/>
        <path d="M70.487,181.143C71.586,179.868 72.258,179.106 73.846,178.559L74.449,179.86C73.449,180.613 71.96,182.067 71.085,182.392C70.455,181.547 70.756,181.728 69.849,181.401C69.276,181.483 68.785,181.534 68.229,181.707L67.44,180.274C68.605,181.082 69.113,181.016 70.487,181.143Z" style="fill:rgb(113,76,55);fill-rule:nonzero;"/>
        <path d="M70.556,183.065C71.244,182.962 71.657,182.823 72.234,183.198L72.346,183.654C71.521,184.367 71.177,184.237 70.094,184.098L70.556,183.065Z" style="fill:rgb(149,101,59);fill-rule:nonzero;"/>
        <path d="M121.218,179.134C122.825,179.11 124.998,178.945 126.42,179.572C126.67,179.646 128.093,180.045 128.238,180.115C128.429,180.873 128.497,181.184 128.845,181.882L130.143,182.181C131.114,183.015 132.079,183.548 132.244,184.682C131.988,185.244 131.401,186.236 131.272,186.687L130.669,187.445C130.547,187.934 130.307,189.185 130.176,189.538L129.8,189.657C130.459,187.726 129.284,186.641 127.367,186.704C126.644,187.094 126.617,187.234 125.781,186.901L124.625,186.323C123.244,185.778 122.878,185.649 121.758,184.673L120.317,183.664L119.945,183.105C119.41,182.307 119.059,182.509 118.153,182.466C118.225,182.382 118.268,182.33 118.37,182.278C119.803,181.54 120.389,180.465 121.218,179.134Z" style="fill:rgb(85,51,37);fill-rule:nonzero;"/>
        <path d="M127.367,186.704C128.878,183.434 128.757,184.227 125.807,182.388C125.405,182.138 125.164,182.005 125.015,181.539C126.16,180.618 127.771,180.959 128.845,181.882L130.143,182.181C131.114,183.015 132.079,183.548 132.244,184.682C131.988,185.244 131.401,186.236 131.272,186.687L130.669,187.445C130.547,187.934 130.307,189.185 130.176,189.538L129.8,189.657C130.459,187.726 129.284,186.641 127.367,186.704Z" style="fill:rgb(58,32,25);fill-rule:nonzero;"/>
        <path d="M121.218,179.134C122.825,179.11 124.998,178.945 126.42,179.572C125.134,179.646 123.261,181.453 122.578,182.484C121.36,183.096 121.014,181.97 120.033,182.58L119.945,183.105C119.41,182.307 119.059,182.509 118.153,182.466C118.225,182.382 118.268,182.33 118.37,182.278C119.803,181.54 120.389,180.465 121.218,179.134Z" style="fill:rgb(113,76,55);fill-rule:nonzero;"/>
        <path d="M119.945,183.105L120.033,182.58C121.014,181.97 121.36,183.096 122.578,182.484C123.946,182.729 124.766,182.533 125.666,183.185C125.965,184.047 125.735,184.783 125.56,185.677C125.228,185.942 125.017,186.137 124.625,186.323C123.244,185.778 122.878,185.649 121.758,184.673L120.317,183.664L119.945,183.105Z" style="fill:rgb(122,84,60);fill-rule:nonzero;"/>
        <path d="M100.327,192.771L100.615,191.558L101.346,191.278C102.107,191.491 102.366,191.519 102.882,192.103C103.457,194.721 103.773,195.089 102.217,197.511L102.139,197.631C102.757,201.133 106.678,199.674 104.152,203.762C102.616,206.164 95.272,202.965 96.84,198.759C97.416,197.751 98.326,196.821 99.108,195.947C100.14,194.806 100.107,194.239 100.327,192.771Z" style="fill:rgb(106,68,40);fill-rule:nonzero;"/>
        <path d="M102.065,197.889L102.139,197.631C102.757,201.133 106.678,199.674 104.152,203.762C102.616,206.164 95.272,202.965 96.84,198.759C96.986,199.971 98.381,201.893 99.092,203.012C99.083,201.968 98.807,201.588 98.309,200.692L99.387,201.453C100.941,200.548 99.747,199.835 101.93,198.437L102.065,197.889Z" style="fill:rgb(71,41,29);fill-rule:nonzero;"/>
        <path d="M99.387,201.453C100.941,200.548 99.747,199.835 101.93,198.437C101.909,199.254 101.917,200.593 101.838,201.365L101.159,201.925C100.147,201.997 100.433,201.966 99.387,201.453Z" style="fill:rgb(127,86,49);fill-rule:nonzero;"/>
        <path d="M98.309,200.692L99.387,201.453C100.433,201.966 100.147,201.997 101.159,201.925L101.838,201.365C101.629,202.931 100.985,203.44 99.255,203.201L99.092,203.012C99.083,201.968 98.807,201.588 98.309,200.692Z" style="fill:rgb(113,76,55);fill-rule:nonzero;"/>
        <path d="M98.309,200.692C98.398,197.754 99.112,195.939 102.065,197.889L101.93,198.437C99.747,199.835 100.941,200.548 99.387,201.453L98.309,200.692Z" style="fill:rgb(140,96,61);fill-rule:nonzero;"/>
        <path d="M100.327,192.771L100.615,191.558L101.346,191.278C102.107,191.491 102.366,191.519 102.882,192.103L101.955,192.213C101.377,193.017 102.436,196.347 99.108,195.947C100.14,194.806 100.107,194.239 100.327,192.771Z" style="fill:rgb(70,41,33);fill-rule:nonzero;"/>
        <path d="M101.276,180.406C103.517,180.53 107.003,180.006 109.251,179.538C110.685,179.24 111.529,178.611 113.09,178.638C113.543,179.938 112.39,180.938 112.017,182.33L111.414,182.544L111.33,182.012C110.355,181.341 110.784,181.483 109.602,181.44C108.815,181.93 109.043,181.668 108.639,182.476L108.673,183.102C108.109,185.337 104.542,183.495 102.494,184.333C101.894,183.665 101.543,183.142 100.658,182.98C99.214,183.321 98.887,184.449 98.667,185.863L98.224,186.138C98.106,187.319 98.85,187.47 98.498,188.902C97.686,188.813 97.507,188.652 96.826,188.188C95.874,187.439 94.585,186.917 93.357,187.008C92.06,186.761 90.865,186.636 89.763,185.922C92.209,185.632 99.989,187.261 98.589,182.114C98.549,181.668 98.615,181.389 98.683,180.953C99.238,180.332 99.549,180.127 100.231,179.639C100.737,179.862 100.983,179.921 101.276,180.406Z" style="fill:rgb(77,46,37);fill-rule:nonzero;"/>
        <path d="M100.231,179.639C100.737,179.862 100.983,179.921 101.276,180.406C100.331,181.42 99.848,181.573 98.589,182.114C98.549,181.668 98.615,181.389 98.683,180.953C99.238,180.332 99.549,180.127 100.231,179.639Z" style="fill:rgb(113,76,55);fill-rule:nonzero;"/>
        <path d="M130.143,182.181C133.947,181.705 132.006,182.333 133.806,183.187C136.335,185.413 138.353,185.518 140.133,188.397L140.11,188.581L140.014,188.566C138.074,188.235 137.615,187.244 136.578,187.223C135.983,188.293 136.933,188.547 136.341,189.754L136.098,190.099C135.408,193.849 134.925,192.57 133.272,194.701C132.464,194.174 132.33,194.07 131.752,193.305L131.399,192.897C130.026,191.846 130.256,191.163 130.176,189.538C130.307,189.185 130.547,187.934 130.669,187.445L131.272,186.687C131.401,186.236 131.988,185.244 132.244,184.682C132.079,183.548 131.114,183.015 130.143,182.181Z" style="fill:rgb(71,41,29);fill-rule:nonzero;"/>
        <path d="M130.143,182.181C133.947,181.705 132.006,182.333 133.806,183.187C136.335,185.413 138.353,185.518 140.133,188.397L140.11,188.581L140.014,188.566C138.074,188.235 137.615,187.244 136.578,187.223C135.983,188.293 136.933,188.547 136.341,189.754C136.174,188.494 135.944,188.23 134.931,187.595C134.45,186.83 134.108,186.103 133.175,186.125L132.724,186.773C132.308,186.902 131.728,186.756 131.272,186.687C131.401,186.236 131.988,185.244 132.244,184.682C132.079,183.548 131.114,183.015 130.143,182.181Z" style="fill:rgb(77,46,37);fill-rule:nonzero;"/>
        <path d="M132.724,186.773L133.175,186.125C134.108,186.103 134.45,186.83 134.931,187.595C134.941,188.778 134.467,190.066 133.508,190.801C132.353,190.114 132.156,190.146 130.845,190.029C130.983,189.384 130.995,189.25 130.995,188.605L130.669,187.445L131.272,186.687C131.728,186.756 132.308,186.902 132.724,186.773Z" style="fill:rgb(122,84,60);fill-rule:nonzero;"/>
        <path d="M131.272,186.687C131.728,186.756 132.308,186.902 132.724,186.773C132.66,187.875 131.553,188.971 130.845,190.029C130.983,189.384 130.995,189.25 130.995,188.605L130.669,187.445L131.272,186.687Z" style="fill:rgb(113,76,55);fill-rule:nonzero;"/>
        <path d="M134.931,187.595C135.944,188.23 136.174,188.494 136.341,189.754L136.098,190.099C135.339,190.991 134.857,191.5 133.686,191.82C133.295,191.78 131.962,191.97 131.335,191.985C130.525,191.212 130.394,189.561 130.995,188.605C130.995,189.25 130.983,189.384 130.845,190.029C132.156,190.146 132.353,190.114 133.508,190.801C134.467,190.066 134.941,188.778 134.931,187.595Z" style="fill:rgb(85,51,37);fill-rule:nonzero;"/>
        <path d="M80.576,172.749L82.18,173.56C83.101,173.842 85.819,174.511 86.378,175.014C87.513,176.366 88.567,176.145 89.05,176.716C87.026,176.519 81.322,174.356 80.881,174.502C78.307,177.76 83.297,179.476 82.224,182.473C81.759,182.777 81.41,182.769 80.868,182.827C81.504,182.078 81.601,181.947 81.751,180.987C81.392,180.245 81.621,180.482 80.885,180.099L79.611,179.551L78.244,179.831C77.136,179.644 75.739,179.452 74.704,180.016L74.449,179.86L73.846,178.559C74.106,176.814 74.867,174.882 72.994,174.168C77.244,172.655 75.279,172.74 80.576,172.749Z" style="fill:rgb(113,76,55);fill-rule:nonzero;"/>
        <path d="M80.576,172.749L82.18,173.56C81.302,173.558 78.129,173.381 77.614,173.527C77.333,175.073 77.412,177.58 77.711,179.131L77.933,179.412L79.611,179.551L78.244,179.831C77.136,179.644 75.739,179.452 74.704,180.016L74.449,179.86L73.846,178.559C74.106,176.814 74.867,174.882 72.994,174.168C77.244,172.655 75.279,172.74 80.576,172.749Z" style="fill:rgb(127,86,49);fill-rule:nonzero;"/>
        <path d="M126.076,209.354C127.515,208.383 129.747,207.456 130.777,206.041C131.319,205.296 131.237,204.68 131.085,203.808L131.386,203.415C132.777,203.074 134.487,203.301 135.92,203.345C134.764,204.733 133.42,205.955 132.115,207.199C133.754,207.02 135.415,206.865 137.032,206.539C139.246,206.094 141.951,204.757 144.164,205.081C140.84,206.262 137.705,207.997 134.314,208.998C131.39,209.862 127.716,209.791 124.663,210.172C122.666,210.421 120.668,210.952 118.675,211.131C117.983,211.193 117.213,211.213 116.544,211.011L116.707,210.803C119.403,209.903 123.238,209.22 126.076,209.354Z" style="fill:rgb(58,32,25);fill-rule:nonzero;"/>
        <path d="M118.513,189.392C121.358,187.856 124.968,190.132 128.389,190.493C128.972,191.083 128.89,190.836 129.01,191.577C128.09,193.327 125.233,193.328 123.667,192.382L122.408,192.771C121.992,193.805 122.928,196.457 121.984,197.695C121.386,197.721 119.265,196.259 119.004,195.799C119.234,192.533 119.897,192.546 118.513,189.392Z" style="fill:rgb(71,41,29);fill-rule:nonzero;"/>
        <path d="M99.823,190.326C100.305,190.006 101.433,188.959 101.915,188.523L102.165,189.399C102.65,189.66 103.047,189.867 103.506,190.184C104.57,193.364 106.875,193.676 109.853,193.216C108.355,194.552 108.021,193.346 106.845,194.35L106.093,194.74C106.465,194.895 107.526,195.29 107.755,195.529C106.317,196.54 105.455,197.06 106.061,198.818L105.607,199.068C105.918,199.614 106.402,200.679 106.741,201.06L106.719,201.204L106.943,201.558C106.527,203.316 105.754,203.466 104.152,203.762C106.678,199.674 102.757,201.133 102.139,197.631L102.217,197.511C103.773,195.089 103.457,194.721 102.882,192.103C102.366,191.519 102.107,191.491 101.346,191.278L100.615,191.558L100.327,192.771L100.144,191.167L99.823,190.326Z" style="fill:rgb(58,32,25);fill-rule:nonzero;"/>
        <path d="M105.607,199.068C105.207,198.057 104.753,195.683 105.5,194.768L106.093,194.74C106.465,194.895 107.526,195.29 107.755,195.529C106.317,196.54 105.455,197.06 106.061,198.818L105.607,199.068Z" style="fill:rgb(103,66,53);fill-rule:nonzero;"/>
        <path d="M79.981,190.862C79.946,188.893 80.027,188.094 81.122,186.327C82.265,184.484 84.799,184.37 86.436,185.572C86.615,186.333 86.913,186.946 87.05,187.519L86.607,188.1C84.489,189.856 85.112,187.862 83.208,189.899C82.653,190.933 82.481,191.33 81.189,191.333C80.914,191.175 80.305,190.978 79.981,190.862Z" style="fill:rgb(85,51,37);fill-rule:nonzero;"/>
        <path d="M83.208,189.899C82.771,189.325 82.537,188.967 82.168,188.345C81.936,185.496 85.531,185.529 86.607,188.1C84.489,189.856 85.112,187.862 83.208,189.899Z" style="fill:rgb(113,76,55);fill-rule:nonzero;"/>
        <path d="M73.481,197.333C73.529,196.765 73.49,196.206 73.841,195.805L74.344,195.961L75.646,196.443C76.234,197.485 76.193,197.65 77.544,197.411L77.71,197.708C79.101,198.938 79.133,198.759 81.128,198.693L81.132,198.861C79.525,198.917 79.15,198.866 78.028,200.086L77.903,200.223C77.932,200.475 78.081,201.622 78.076,201.805C77.195,202.119 77.09,202.173 76.425,202.829C76.015,202.21 76.064,202.002 76.079,201.264L75.901,201.282C75.472,200.825 75.132,200.49 74.668,200.068C73.855,200.192 74.013,200.275 73.314,201.025C72.851,200.759 72.264,200.569 71.756,200.381L71.788,200.279C72.557,199.074 72.041,199.069 73.481,197.333Z" style="fill:rgb(85,51,37);fill-rule:nonzero;"/>
        <path d="M73.481,197.333C73.529,196.765 73.49,196.206 73.841,195.805L74.344,195.961C74.053,197.488 74.875,196.411 74.734,198.123C73.365,199.006 73.043,200.002 71.788,200.279C72.557,199.074 72.041,199.069 73.481,197.333Z" style="fill:rgb(58,32,25);fill-rule:nonzero;"/>
        <path d="M74.344,195.961L75.646,196.443C76.234,197.485 76.193,197.65 77.544,197.411L77.71,197.708C76.843,197.927 75.523,198.388 74.734,198.123C74.875,196.411 74.053,197.488 74.344,195.961Z" style="fill:rgb(70,41,33);fill-rule:nonzero;"/>
        <path d="M76.079,201.264C76.715,200.868 77.223,200.542 77.903,200.223C77.932,200.475 78.081,201.622 78.076,201.805C77.195,202.119 77.09,202.173 76.425,202.829C76.015,202.21 76.064,202.002 76.079,201.264Z" style="fill:rgb(77,46,37);fill-rule:nonzero;"/>
        <path d="M109.853,193.216L110.374,192.824C111.434,192.566 112.288,192.833 113.349,193.057C113.102,194.875 113.775,195.935 113.482,196.8C113.097,197.429 112.771,198.039 112.225,198.538L111.944,199.339L111.055,198.517L110.888,197.643C110.452,196.695 109.99,196.821 109.037,196.585L107.755,195.529C107.526,195.29 106.465,194.895 106.093,194.74L106.845,194.35C108.021,193.346 108.355,194.552 109.853,193.216Z" style="fill:rgb(85,51,37);fill-rule:nonzero;"/>
        <path d="M109.853,193.216L110.374,192.824C111.434,192.566 112.288,192.833 113.349,193.057C113.102,194.875 113.775,195.935 113.482,196.8C113.429,196.585 113.373,196.372 113.314,196.159C113.046,195.228 113.129,195.203 112.455,194.824L111.805,195.043L110.889,195.158C108.98,194.274 108.927,194.154 106.845,194.35C108.021,193.346 108.355,194.552 109.853,193.216Z" style="fill:rgb(71,41,29);fill-rule:nonzero;"/>
        <path d="M111.805,195.043L112.455,194.824C113.129,195.203 113.046,195.228 113.314,196.159C113.373,196.372 113.429,196.585 113.482,196.8C113.097,197.429 112.771,198.039 112.225,198.538L111.944,199.339L111.055,198.517L110.888,197.643C111.033,196.265 111.764,196.449 112.218,195.284L111.805,195.043Z" style="fill:rgb(77,46,37);fill-rule:nonzero;"/>
        <path d="M108.673,183.102L108.639,182.476C109.043,181.668 108.815,181.93 109.602,181.44C110.784,181.483 110.355,181.341 111.33,182.012L111.414,182.544L112.017,182.33C112.144,183.423 112.433,184.34 111.796,185.273C111.202,185.352 110.289,185.441 109.759,185.645L109.493,185.735L109.018,187.3C108.74,187.654 108.437,188.06 108.142,188.393C108.526,187.274 108.722,186.839 107.812,186.015C106.888,185.775 106.307,186.023 105.403,186.287C104.468,184.722 104.369,184.417 102.494,184.333C104.542,183.495 108.109,185.337 108.673,183.102Z" style="fill:rgb(58,32,25);fill-rule:nonzero;"/>
        <path d="M108.673,183.102L108.639,182.476C109.043,181.668 108.815,181.93 109.602,181.44C110.784,181.483 110.355,181.341 111.33,182.012C110.932,182.719 110.514,183.691 109.816,184.022C109.049,183.844 109.264,183.87 108.673,183.102Z" style="fill:rgb(58,32,25);fill-rule:nonzero;"/>
        <path d="M111.414,182.544L112.017,182.33C112.144,183.423 112.433,184.34 111.796,185.273C111.202,185.352 110.289,185.441 109.759,185.645L109.493,185.735C109.788,184.849 110.799,184.287 111.414,182.544Z" style="fill:rgb(77,46,37);fill-rule:nonzero;"/>
        <path d="M113.09,178.638C113.446,178.739 114.06,178.937 114.4,178.975L113.768,179.794C112.923,181.025 112.574,182.53 112.792,184.007C113.307,184.628 113.046,184.45 113.769,184.724L113.73,184.937C115.382,186.306 115.989,185.379 117.537,185.865C115.58,186.775 115.119,185.297 114.311,186.367C113.417,188.292 112.992,188.398 111.064,189.317L109.818,189.205C109.412,188.428 109.276,188.134 109.018,187.3L109.493,185.735L109.759,185.645C110.289,185.441 111.202,185.352 111.796,185.273C112.433,184.34 112.144,183.423 112.017,182.33C112.39,180.938 113.543,179.938 113.09,178.638Z" style="fill:rgb(93,59,45);fill-rule:nonzero;"/>
        <path d="M113.09,178.638C113.446,178.739 114.06,178.937 114.4,178.975L113.768,179.794C112.923,181.025 112.574,182.53 112.792,184.007C113.307,184.628 113.046,184.45 113.769,184.724L113.73,184.937C111.501,185.885 112.751,187.835 110.812,187.43C110.399,186.735 110.479,187.052 110.528,186.227C110.992,185.666 111.161,185.606 111.796,185.273C112.433,184.34 112.144,183.423 112.017,182.33C112.39,180.938 113.543,179.938 113.09,178.638Z" style="fill:rgb(103,66,53);fill-rule:nonzero;"/>
        <path d="M109.493,185.735L109.759,185.645C110.382,187.211 110.162,187.532 109.818,189.205C109.412,188.428 109.276,188.134 109.018,187.3L109.493,185.735Z" style="fill:rgb(93,59,45);fill-rule:nonzero;"/>
        <path d="M71.066,185.863C72.144,185.793 73.251,186.37 74.331,186.765C77.712,184.682 74.628,183.163 80.552,183.083C80.199,183.377 77.612,185.24 77.582,185.31C76.741,187.225 77.549,189.791 74.913,190.427C73.972,189.698 73.783,188.383 72.993,187.497C72.537,186.986 71.415,186.632 70.945,186.238L71.066,185.863Z" style="fill:rgb(85,51,37);fill-rule:nonzero;"/>
        <path d="M117.842,185.56C118.256,185.019 119.694,184.098 120.317,183.664L121.758,184.673C122.878,185.649 123.244,185.778 124.625,186.323L125.781,186.901C121.659,188.625 123.878,185.79 120.213,186.429C117.19,186.957 117.397,187.232 114.311,186.367C115.119,185.297 115.58,186.775 117.537,185.865L117.842,185.56Z" style="fill:rgb(71,41,29);fill-rule:nonzero;"/>
        <path d="M117.842,185.56C118.256,185.019 119.694,184.098 120.317,183.664L121.758,184.673C119.561,186.328 119.926,184.823 117.842,185.56Z" style="fill:rgb(106,68,40);fill-rule:nonzero;"/>
        <path d="M106.061,198.818C105.455,197.06 106.317,196.54 107.755,195.529L109.037,196.585C109.99,196.821 110.452,196.695 110.888,197.643L111.055,198.517C110.442,199.006 109.565,199.657 109.058,200.222C108.403,200.016 106.746,199.158 106.061,198.818Z" style="fill:rgb(127,86,49);fill-rule:nonzero;"/>
        <path d="M109.037,196.585C109.99,196.821 110.452,196.695 110.888,197.643L111.055,198.517C110.442,199.006 109.565,199.657 109.058,200.222C109.584,198.97 109.252,197.939 109.037,196.585Z" style="fill:rgb(106,68,40);fill-rule:nonzero;"/>
        <path d="M129.8,189.657L130.176,189.538C130.256,191.163 130.026,191.846 131.399,192.897C126.79,192.758 127.269,198.247 123.667,192.382C125.233,193.328 128.09,193.327 129.01,191.577C128.89,190.836 128.972,191.083 128.389,190.493C128.726,190.345 129.451,189.872 129.8,189.657Z" style="fill:rgb(58,32,25);fill-rule:nonzero;"/>
        <path d="M98.667,185.863C100.404,185.765 101.844,186.01 102.135,187.995L101.915,188.523C101.433,188.959 100.305,190.006 99.823,190.326C99.48,189.907 98.886,189.315 98.498,188.902C98.85,187.47 98.106,187.319 98.224,186.138L98.667,185.863Z" style="fill:rgb(93,59,45);fill-rule:nonzero;"/>
        <path d="M86.824,180.982C87.286,182.407 87.325,184.203 88.255,184.533C89.072,184.822 89.336,185.123 89.763,185.922C90.865,186.636 92.06,186.761 93.357,187.008C91.716,187.078 88.939,186.535 88.012,187.294C88.465,188.17 88.841,188.251 89.823,188.737L88.213,188.706C87.401,188.135 87.388,188.308 87.05,187.519C86.913,186.946 86.615,186.333 86.436,185.572L86.812,185.219C87.154,184.391 86.872,182.048 86.824,180.982Z" style="fill:rgb(70,41,33);fill-rule:nonzero;"/>
        <path d="M81.132,198.861C81.727,199.676 81.573,199.813 81.671,200.894C81.173,202.279 80.827,202.418 79.448,202.911L78.076,201.805C78.081,201.622 77.932,200.475 77.903,200.223L78.028,200.086C79.15,198.866 79.525,198.917 81.132,198.861Z" style="fill:rgb(103,66,53);fill-rule:nonzero;"/>
        <path d="M83.131,198.222C83.132,198.607 82.934,202.421 82.821,202.653C82.032,203.731 82.173,204.097 81.144,204.572C80.395,204.327 79.937,203.555 79.448,202.911C80.827,202.418 81.173,202.279 81.671,200.894C81.573,199.813 81.727,199.676 81.132,198.861L81.128,198.693C81.526,198.651 82.681,198.335 83.131,198.222Z" style="fill:rgb(71,41,29);fill-rule:nonzero;"/>
        <path d="M86.607,188.1L87.05,187.519C87.388,188.308 87.401,188.135 88.213,188.706C88.048,189.663 88.226,189.586 87.633,190.053L87.036,190.113C85.159,189.925 83.563,190.25 82.66,192.025L82.287,192.222C81.526,192.033 81.754,192.094 81.189,191.333C82.481,191.33 82.653,190.933 83.208,189.899C85.112,187.862 84.489,189.856 86.607,188.1Z" style="fill:rgb(85,51,37);fill-rule:nonzero;"/>
        <path d="M111.055,198.517L111.944,199.339C111.332,201.388 108.512,201.765 106.741,201.06C106.402,200.679 105.918,199.614 105.607,199.068L106.061,198.818C106.746,199.158 108.403,200.016 109.058,200.222C109.565,199.657 110.442,199.006 111.055,198.517Z" style="fill:rgb(85,51,37);fill-rule:nonzero;"/>
        <path d="M89.823,188.737C90.28,188.87 91.738,189.233 92.023,189.471C91.815,189.973 90.076,190.958 89.453,191.383C88.693,191.054 87.61,190.665 87.036,190.113L87.633,190.053C88.226,189.586 88.048,189.663 88.213,188.706L89.823,188.737Z" style="fill:rgb(71,41,29);fill-rule:nonzero;"/>
        <path d="M113.349,193.057C114.437,194.43 115.14,197.354 114.022,198.885C113.157,199.148 113.184,199.024 112.225,198.538C112.771,198.039 113.097,197.429 113.482,196.8C113.775,195.935 113.102,194.875 113.349,193.057Z" style="fill:rgb(70,41,33);fill-rule:nonzero;"/>
        <path d="M108.142,188.393C108.437,188.06 108.74,187.654 109.018,187.3C109.276,188.134 109.412,188.428 109.818,189.205L111.064,189.317C109.286,190.187 109.227,191.273 108.361,191.472C107.581,190.667 107.763,189.324 108.142,188.393Z" style="fill:rgb(71,41,29);fill-rule:nonzero;"/>
        <path d="M131.752,193.305C132.33,194.07 132.464,194.174 133.272,194.701C132.958,195.847 131.977,196.419 130.86,196.471C129.413,195.572 131.105,194.624 131.683,193.449L131.752,193.305Z" style="fill:rgb(58,32,25);fill-rule:nonzero;"/>
        <path d="M75.646,196.443C76.109,196.523 76.135,196.525 76.54,196.755C77.39,196.45 80.894,198.651 82.118,198.28C82.182,198.261 82.984,198.231 83.131,198.222C82.681,198.335 81.526,198.651 81.128,198.693C79.133,198.759 79.101,198.938 77.71,197.708L77.544,197.411C76.193,197.65 76.234,197.485 75.646,196.443Z" style="fill:rgb(58,32,25);fill-rule:nonzero;"/>
        <path d="M96.826,188.188C97.507,188.652 97.686,188.813 98.498,188.902C98.886,189.315 99.48,189.907 99.823,190.326L100.144,191.167C98.028,191.55 96.858,190.293 96.826,188.188Z" style="fill:rgb(58,32,25);fill-rule:nonzero;"/>
        <path d="M119.004,195.799C118.985,194.024 119.002,193.297 118.088,191.78C117.687,191.114 118.219,190.309 118.513,189.392C119.897,192.546 119.234,192.533 119.004,195.799Z" style="fill:rgb(58,32,25);fill-rule:nonzero;"/>
        <path d="M80.081,193.466C81.072,192.83 81.488,192.455 82.679,192.574C82.599,193.505 82.565,193.674 82.243,194.551L81.785,194.792C80.459,194.372 80.829,193.758 80.081,193.466Z" style="fill:rgb(58,32,25);fill-rule:nonzero;"/>
        <path d="M79.981,190.862C80.305,190.978 80.914,191.175 81.189,191.333C81.754,192.094 81.526,192.033 82.287,192.222L82.66,192.025L82.679,192.574C81.488,192.455 81.072,192.83 80.081,193.466C79.806,192.398 79.888,191.936 79.981,190.862Z" style="fill:rgb(70,41,33);fill-rule:nonzero;"/>
        <path d="M93.13,189.838C93.854,189.99 94.615,190.225 95.309,190.479C95.999,190.732 96.218,191.083 96.507,191.708C96.48,193.054 95.385,194.223 94.579,195.214C93.974,195.957 93.318,196.861 92.324,196.965L92.084,196.589C91.485,196.004 90.722,196.245 90.049,195.884C89.316,195.491 88.6,194.369 88.353,193.597C88.711,191.78 91.642,192.319 93.13,189.838Z" style="fill:rgb(77,46,37);fill-rule:nonzero;"/>
        <path d="M137.475,193.758C137.89,193.996 138.339,194.241 138.719,194.531C139.219,194.914 139.24,195.276 139.3,195.845C138.908,196.798 137.837,196.972 137.402,197.799C137.004,198.556 136.996,199.899 136.492,200.541C136.073,201.075 134.809,201.625 134.192,201.976C133.651,200.972 132.577,200.423 132.059,199.416C132.551,198.702 133.346,199.151 134.005,198.629C134.734,198.051 134.575,197.397 134.658,196.579C134.84,194.808 136.234,194.744 137.475,193.758Z" style="fill:rgb(58,32,25);fill-rule:nonzero;"/>
        <path d="M93.557,207.465C92.855,208.022 91.655,208.049 90.787,207.965C90.21,207.909 89.674,207.584 89.317,207.133C88.918,206.63 88.725,205.924 88.825,205.288C88.927,204.645 89.076,204.21 89.528,203.76C90.754,204.056 91.815,204.255 93.08,204.186C93.685,204.76 94.718,205.493 94.801,206.362C94.509,206.895 94.305,207.096 93.768,207.382L93.557,207.465Z" style="fill:rgb(77,46,37);fill-rule:nonzero;"/>
        <path d="M93.557,207.465C92.855,208.022 91.655,208.049 90.787,207.965C90.21,207.909 89.674,207.584 89.317,207.133C88.918,206.63 88.725,205.924 88.825,205.288C88.927,204.645 89.076,204.21 89.528,203.76C90.754,204.056 91.815,204.255 93.08,204.186C93.685,204.76 94.718,205.493 94.801,206.362C94.509,206.895 94.305,207.096 93.768,207.382C94.109,206.952 94.211,206.701 94.228,206.153C93.858,205.449 93.453,204.725 92.656,204.447C92.27,204.312 91.798,204.33 91.433,204.521C90.792,204.856 90.59,205.363 90.377,206.002C90.536,206.559 90.577,206.853 91.083,207.206C91.848,207.741 92.69,207.601 93.557,207.465Z" style="fill:rgb(58,32,25);fill-rule:nonzero;"/>
        <path d="M112.879,202.452C114.264,203.216 115.471,203.94 116.723,204.912C115.556,205.342 114.638,205.329 113.535,206.059L113.453,206.115C112.805,206.549 111.911,207.253 111.134,207.393C110.528,207.501 110.336,207.461 109.844,207.104C109.808,206.948 109.783,206.844 109.799,206.682C110.001,204.714 111.494,203.638 112.879,202.452Z" style="fill:rgb(58,32,25);fill-rule:nonzero;"/>
        <path d="M145.153,194.447C144.653,193.782 144.722,194.057 144.687,193.275L145.083,192.968C146.336,192.902 146.693,193.211 147.399,194.217C147.877,195.213 147.817,194.795 147.643,195.881C147.138,196.521 147.419,196.353 146.575,196.487C145.808,196.039 145.351,195.332 145.153,194.447Z" style="fill:rgb(71,41,29);fill-rule:nonzero;"/>
        <path d="M147.399,194.217C147.877,195.213 147.817,194.795 147.643,195.881C147.138,196.521 147.419,196.353 146.575,196.487C145.808,196.039 145.351,195.332 145.153,194.447L146.284,194.974C147.094,194.822 146.818,194.952 147.399,194.217Z" style="fill:rgb(58,32,25);fill-rule:nonzero;"/>
        <path d="M118.153,182.466C119.059,182.509 119.41,182.307 119.945,183.105L120.317,183.664C119.694,184.098 118.256,185.019 117.842,185.56L117.537,185.865C115.989,185.379 115.382,186.306 113.73,184.937L113.769,184.724C116.817,185.036 116.783,185.206 118.153,182.466Z" style="fill:rgb(106,68,40);fill-rule:nonzero;"/>
        <path d="M113.768,179.794C114.897,179.79 115.312,179.607 116.206,180.128C116.542,181.026 116.118,182.013 116.186,183.179C114.933,183.112 115.053,183.295 114.081,182.678C113.534,181.978 113.48,180.599 113.768,179.794Z" style="fill:rgb(183,160,149);fill-rule:nonzero;"/>
    </g>
    <defs>
        <linearGradient id="_Linear1" x1="0" y1="0" x2="1" y2="0" gradientUnits="userSpaceOnUse" gradientTransform="matrix(-1.9897,-11.30388,11.30388,-1.9897,54.075905,190.37848)"><stop offset="0" style="stop-color:rgb(39,22,19);stop-opacity:1"/><stop offset="1" style="stop-color:rgb(68,40,30);stop-opacity:1"/></linearGradient>
        <linearGradient id="_Linear2" x1="0" y1="0" x2="1" y2="0" gradientUnits="userSpaceOnUse" gradientTransform="matrix(-10.92683,-6.86804,6.86804,-10.92683,48.729633,187.36639)"><stop offset="0" style="stop-color:rgb(60,37,29);stop-opacity:1"/><stop offset="1" style="stop-color:rgb(102,59,44);stop-opacity:1"/></linearGradient>
        <linearGradient id="_Linear3" x1="0" y1="0" x2="1" y2="0" gradientUnits="userSpaceOnUse" gradientTransform="matrix(-24.105251,12.33473,-12.33473,-24.105251,71.1054,192.19972)"><stop offset="0" style="stop-color:rgb(32,15,13);stop-opacity:1"/><stop offset="1" style="stop-color:rgb(67,37,30);stop-opacity:1"/></linearGradient>
    </defs>
</svg>
